<?xml version="1.0" encoding="utf-8" standalone="no"?>
<!DOCTYPE svg PUBLIC "-//W3C//DTD SVG 1.1//EN"
  "http://www.w3.org/Graphics/SVG/1.1/DTD/svg11.dtd">
<!-- Created with matplotlib (https://matplotlib.org/) -->
<svg height="432pt" version="1.1" viewBox="0 0 504 432" width="504pt" xmlns="http://www.w3.org/2000/svg" xmlns:xlink="http://www.w3.org/1999/xlink">
 <defs>
  <style type="text/css">
*{stroke-linecap:butt;stroke-linejoin:round;}
  </style>
 </defs>
 <g id="figure_1">
  <g id="patch_1">
   <path d="M 0 432 
L 504 432 
L 504 0 
L 0 0 
z
" style="fill:#ffffff;"/>
  </g>
  <g id="axes_1">
   <g id="patch_2">
    <path d="M 50.96 390.04 
L 404.752 390.04 
L 404.752 25.44 
L 50.96 25.44 
z
" style="fill:#ffffff;"/>
   </g>
   <g id="PathCollection_1">
    <path clip-path="url(#p8da59ed669)" d="M 61.57376 67.389825 
L 61.908406 66.166596 
L 61.57376 65.929464 
L 60.905627 66.166596 
z
" style="fill:#481b6d;"/>
    <path clip-path="url(#p8da59ed669)" d="M 58.03584 65.322467 
L 59.582078 64.227234 
L 59.214333 62.287872 
L 58.03584 61.091985 
L 54.49792 60.482339 
L 50.96 61.431816 
L 50.96 62.287872 
L 50.96 62.92377 
L 54.49792 63.726065 
L 55.882316 64.227234 
z
" style="fill:#481b6d;"/>
   </g>
   <g id="PathCollection_2">
    <path clip-path="url(#p8da59ed669)" d="M 390.60032 91.462164 
L 394.13824 91.580099 
L 397.67616 91.678095 
L 401.21408 91.752628 
L 404.752 91.787683 
L 404.752 91.378298 
L 404.752 89.477951 
L 404.186296 89.438936 
L 401.21408 89.407262 
L 397.67616 89.346444 
L 394.13824 89.233099 
L 390.60032 89.061038 
L 387.0624 88.773621 
L 383.52448 88.240856 
L 381.151843 87.499574 
L 379.98656 87.334453 
L 376.44864 86.658598 
L 372.91072 85.581553 
L 372.856479 85.560213 
L 369.3728 84.790274 
L 365.83488 83.809412 
L 365.27201 83.620851 
L 362.29696 82.96103 
L 358.75904 82.077288 
L 357.357171 81.681489 
L 355.22112 81.255314 
L 351.6832 80.565076 
L 348.14528 79.881458 
L 347.454947 79.742128 
L 344.60736 79.310295 
L 341.06944 78.769266 
L 337.53152 78.24517 
L 334.550151 77.802766 
L 333.9936 77.7312 
L 330.45568 77.338992 
L 326.91776 77.114734 
L 323.37984 76.993173 
L 319.84192 76.980983 
L 316.304 77.079034 
L 312.76608 77.281029 
L 309.22816 77.531207 
L 305.69024 77.788701 
L 305.465146 77.802766 
L 302.15232 78.077893 
L 298.6144 78.274772 
L 295.07648 78.382737 
L 291.53856 78.408662 
L 288.00064 78.360521 
L 284.46272 78.271618 
L 280.9248 78.112729 
L 277.38688 77.865829 
L 276.544854 77.802766 
L 273.84896 77.672059 
L 270.31104 77.498884 
L 266.77312 77.340474 
L 263.2352 77.189259 
L 259.69728 77.033296 
L 256.15936 76.834302 
L 252.62144 76.577689 
L 249.08352 76.219621 
L 245.780387 75.863404 
L 245.5456 75.846089 
L 242.00768 75.472722 
L 238.46976 75.052601 
L 234.93184 74.682001 
L 231.39392 74.289733 
L 228.388968 73.924043 
L 227.856 73.871924 
L 224.31808 73.482629 
L 220.78016 73.150568 
L 217.24224 72.903727 
L 213.70432 72.685977 
L 210.1664 72.521725 
L 206.62848 72.409647 
L 203.09056 72.343658 
L 199.55264 72.287735 
L 196.01472 72.307307 
L 192.4768 72.384132 
L 188.93888 72.476541 
L 185.40096 72.551199 
L 181.86304 72.577179 
L 178.32512 72.532609 
L 174.7872 72.391556 
L 171.24928 72.176488 
L 168.420957 71.984681 
L 167.71136 71.950027 
L 164.17344 71.791882 
L 160.63552 71.724475 
L 157.0976 71.696139 
L 153.55968 71.632918 
L 150.02176 71.544182 
L 146.48384 71.429982 
L 142.94592 71.273001 
L 139.408 71.063409 
L 135.87008 70.840816 
L 132.33216 70.630306 
L 128.79424 70.470634 
L 125.25632 70.337209 
L 121.7184 70.189679 
L 119.016173 70.045319 
L 118.18048 70.011393 
L 114.64256 69.83532 
L 111.10464 69.699497 
L 107.56672 69.607954 
L 104.0288 69.562499 
L 100.49088 69.551691 
L 96.95296 69.546656 
L 93.41504 69.522026 
L 89.87712 69.463345 
L 86.3392 69.347989 
L 82.80128 69.143954 
L 79.26336 68.848567 
L 75.72544 68.382229 
L 74.430689 68.105957 
L 72.18752 67.715378 
L 68.6496 66.930607 
L 66.567103 66.166596 
L 65.11168 65.585767 
L 63.048446 64.227234 
L 61.57376 63.208146 
L 60.888236 62.287872 
L 58.847465 60.348511 
L 58.03584 60.058609 
L 54.49792 59.851563 
L 50.96 60.052276 
L 50.96 60.348511 
L 50.96 61.431816 
L 54.49792 60.482339 
L 58.03584 61.091985 
L 59.214333 62.287872 
L 59.582078 64.227234 
L 58.03584 65.322467 
L 55.882316 64.227234 
L 54.49792 63.726065 
L 50.96 62.92377 
L 50.96 64.227234 
L 50.96 64.778837 
L 54.49792 65.597015 
L 55.594784 66.166596 
L 58.03584 67.246333 
L 59.30703 68.105957 
L 61.57376 69.456068 
L 62.875133 70.045319 
L 65.11168 71.141941 
L 67.401041 71.984681 
L 68.6496 72.554462 
L 72.18752 73.371634 
L 74.689189 73.924043 
L 75.72544 74.136734 
L 79.26336 74.640343 
L 82.80128 75.045764 
L 86.3392 75.418687 
L 89.87712 75.731414 
L 91.345403 75.863404 
L 93.41504 76.077527 
L 96.95296 76.315652 
L 100.49088 76.49765 
L 104.0288 76.627196 
L 107.56672 76.738253 
L 111.10464 76.854123 
L 114.64256 76.980406 
L 118.18048 77.112459 
L 121.7184 77.243335 
L 125.25632 77.373836 
L 128.79424 77.531985 
L 132.33216 77.70317 
L 134.2112 77.802766 
L 135.87008 77.903146 
L 139.408 78.087148 
L 142.94592 78.273597 
L 146.48384 78.427851 
L 150.02176 78.562641 
L 153.55968 78.700538 
L 157.0976 78.821636 
L 160.63552 78.971066 
L 164.17344 79.119819 
L 167.71136 79.258892 
L 171.24928 79.374424 
L 174.7872 79.478512 
L 178.32512 79.576363 
L 181.86304 79.674684 
L 183.786726 79.742128 
L 185.40096 79.797399 
L 188.93888 79.917121 
L 192.4768 80.028894 
L 196.01472 80.165816 
L 199.55264 80.325143 
L 203.09056 80.512229 
L 206.62848 80.699234 
L 210.1664 80.885088 
L 213.70432 81.087684 
L 217.24224 81.30202 
L 220.78016 81.542681 
L 222.821725 81.681489 
L 224.31808 81.787991 
L 227.856 82.044186 
L 231.39392 82.293162 
L 234.93184 82.525262 
L 238.46976 82.7577 
L 242.00768 82.979586 
L 245.5456 83.207711 
L 249.08352 83.41734 
L 252.62144 83.619196 
L 252.649637 83.620851 
L 256.15936 83.798393 
L 259.69728 83.971432 
L 263.2352 84.174494 
L 266.77312 84.362892 
L 270.31104 84.525315 
L 273.84896 84.678252 
L 277.38688 84.814634 
L 280.9248 84.958426 
L 284.46272 85.105453 
L 288.00064 85.248715 
L 291.53856 85.381025 
L 295.07648 85.509846 
L 296.614502 85.560213 
L 298.6144 85.613433 
L 302.15232 85.694093 
L 305.69024 85.766611 
L 309.22816 85.824614 
L 312.76608 85.895815 
L 316.304 86.067092 
L 319.84192 86.274495 
L 323.37984 86.501613 
L 326.91776 86.751379 
L 330.45568 87.02213 
L 333.9936 87.301406 
L 336.37786 87.499574 
L 337.53152 87.598741 
L 341.06944 87.869543 
L 344.60736 88.1931 
L 348.14528 88.670415 
L 351.6832 88.974339 
L 355.22112 89.263514 
L 357.282721 89.438936 
L 358.75904 89.55405 
L 362.29696 89.785559 
L 365.83488 90.017862 
L 369.3728 90.250242 
L 372.91072 90.449985 
L 376.44864 90.595543 
L 379.98656 90.719541 
L 383.52448 90.892067 
L 387.0624 91.201862 
L 388.333113 91.378298 
z
M 60.905627 66.166596 
L 61.57376 65.929464 
L 61.908406 66.166596 
L 61.57376 67.389825 
z
" style="fill:#3f4788;"/>
    <path clip-path="url(#p8da59ed669)" d="M 387.0624 54.63878 
L 390.60032 54.979474 
L 394.13824 55.300086 
L 397.67616 55.592101 
L 401.21408 55.831248 
L 404.752 55.973248 
L 404.752 54.530426 
L 404.752 52.591064 
L 404.752 50.651702 
L 404.752 48.71234 
L 404.752 46.772979 
L 404.752 45.976142 
L 401.21408 46.006901 
L 397.67616 46.053093 
L 394.13824 46.061755 
L 390.60032 45.9701 
L 387.0624 45.747888 
L 383.52448 45.503379 
L 379.98656 45.2359 
L 376.44864 44.833656 
L 376.448398 44.833617 
L 372.91072 44.452712 
L 369.3728 44.036044 
L 365.83488 43.604992 
L 362.29696 43.191039 
L 359.39345 42.894255 
L 358.75904 42.847944 
L 355.22112 42.650584 
L 351.6832 42.521708 
L 348.14528 42.393515 
L 344.60736 42.377748 
L 341.06944 42.418687 
L 337.53152 42.452685 
L 333.9936 42.532717 
L 330.45568 42.636266 
L 326.91776 42.756573 
L 323.37984 42.806375 
L 319.84192 42.877345 
L 318.406903 42.894255 
L 316.304 42.934877 
L 315.20808 42.894255 
L 312.76608 42.842433 
L 309.22816 42.841744 
L 305.864237 42.894255 
L 305.69024 42.898824 
L 302.15232 42.918363 
L 298.6144 42.897757 
L 295.07648 42.979323 
L 291.53856 43.059565 
L 288.00064 43.096488 
L 284.46272 43.126257 
L 280.9248 43.148971 
L 277.38688 43.156675 
L 273.84896 43.182832 
L 270.31104 43.255795 
L 266.77312 43.37725 
L 263.2352 43.500587 
L 259.69728 43.601082 
L 256.15936 43.644936 
L 252.62144 43.664106 
L 249.08352 43.634745 
L 245.5456 43.573636 
L 242.00768 43.480279 
L 238.46976 43.367442 
L 234.93184 43.245668 
L 231.39392 43.14099 
L 227.856 43.070462 
L 224.31808 43.057719 
L 220.78016 43.075191 
L 217.24224 43.123398 
L 213.70432 43.196058 
L 210.1664 43.304034 
L 206.62848 43.417838 
L 203.09056 43.507801 
L 199.55264 43.598747 
L 196.01472 43.689279 
L 192.4768 43.749298 
L 188.93888 43.820878 
L 185.40096 43.903494 
L 181.86304 43.94423 
L 178.32512 43.979982 
L 174.7872 43.994696 
L 171.24928 43.999873 
L 167.71136 44.007572 
L 164.17344 44.001382 
L 160.63552 44.003657 
L 157.0976 44.020154 
L 153.55968 44.03437 
L 150.02176 44.049648 
L 146.48384 44.075762 
L 142.94592 44.103214 
L 139.408 44.112306 
L 135.87008 44.095854 
L 132.33216 44.06914 
L 128.79424 44.038685 
L 125.25632 44.018779 
L 121.7184 43.980029 
L 118.18048 43.91558 
L 114.64256 43.841275 
L 111.10464 43.778037 
L 107.56672 43.756705 
L 104.0288 43.740187 
L 100.49088 43.730086 
L 96.95296 43.755338 
L 93.41504 43.815784 
L 89.87712 43.931588 
L 86.3392 44.070924 
L 82.80128 44.21106 
L 79.26336 44.369631 
L 75.72544 44.563728 
L 72.18752 44.822285 
L 72.049619 44.833617 
L 68.6496 45.303986 
L 65.11168 45.930296 
L 61.57376 46.671639 
L 60.964252 46.772979 
L 58.03584 47.381436 
L 54.49792 47.221817 
L 50.96 46.916626 
L 50.96 48.71234 
L 50.96 50.519168 
L 54.49792 50.024574 
L 58.03584 50.167112 
L 59.617009 50.651702 
L 61.57376 50.964588 
L 65.11168 51.06975 
L 68.6496 51.061375 
L 72.18752 51.073506 
L 75.72544 51.429677 
L 79.26336 51.775203 
L 82.80128 52.117682 
L 86.3392 52.408157 
L 88.437795 52.591064 
L 89.87712 52.693279 
L 93.41504 52.979626 
L 96.95296 53.271688 
L 100.49088 53.160298 
L 104.0288 53.20432 
L 107.56672 53.226333 
L 111.10464 53.155911 
L 114.64256 53.1304 
L 118.18048 53.103504 
L 121.7184 53.022804 
L 125.25632 52.922124 
L 128.79424 52.830165 
L 132.33216 52.713392 
L 135.87008 52.6153 
L 136.604716 52.591064 
L 139.408 52.47559 
L 142.94592 52.418357 
L 146.48384 52.44181 
L 150.02176 52.42412 
L 153.55968 52.382526 
L 157.0976 52.332775 
L 160.63552 52.259368 
L 164.17344 52.216558 
L 167.71136 52.197975 
L 171.24928 52.149909 
L 174.7872 52.084852 
L 178.32512 52.015968 
L 181.86304 51.960879 
L 185.40096 51.923865 
L 188.93888 51.944524 
L 192.4768 51.959992 
L 196.01472 51.947602 
L 199.55264 51.911814 
L 203.09056 51.866029 
L 206.62848 51.839735 
L 210.1664 51.888188 
L 213.70432 51.950677 
L 217.24224 51.994749 
L 220.78016 51.978553 
L 224.31808 51.941664 
L 227.856 51.895934 
L 231.39392 51.840761 
L 234.93184 51.770556 
L 238.46976 51.70156 
L 242.00768 51.636974 
L 245.5456 51.57028 
L 249.08352 51.539233 
L 252.62144 51.521391 
L 256.15936 51.508749 
L 259.69728 51.535999 
L 263.2352 51.626694 
L 266.77312 51.769515 
L 270.31104 51.894192 
L 273.84896 51.944589 
L 277.38688 51.919727 
L 280.9248 51.857282 
L 284.46272 51.778275 
L 288.00064 51.649208 
L 291.53856 51.489913 
L 295.07648 51.320499 
L 298.6144 51.160513 
L 302.15232 50.996943 
L 305.69024 50.774469 
L 307.505781 50.651702 
L 309.22816 50.497209 
L 312.76608 50.18928 
L 316.304 49.887914 
L 319.84192 49.725816 
L 323.37984 49.644275 
L 326.91776 49.607351 
L 330.45568 49.687331 
L 333.9936 49.902139 
L 337.53152 50.172591 
L 341.06944 50.50756 
L 342.555254 50.651702 
L 344.60736 50.809038 
L 348.14528 51.074045 
L 351.6832 51.348756 
L 355.22112 51.650504 
L 358.75904 51.980884 
L 362.29696 52.28867 
L 365.83488 52.565978 
L 366.198062 52.591064 
L 369.3728 52.763612 
L 372.91072 52.947669 
L 376.44864 53.214113 
L 379.98656 53.632164 
L 383.52448 54.148003 
L 386.078654 54.530426 
z
" style="fill:#3f4788;"/>
   </g>
   <g id="PathCollection_3">
    <path clip-path="url(#p8da59ed669)" d="M 54.49792 390.04 
L 58.03584 390.04 
L 61.57376 390.04 
L 65.11168 390.04 
L 68.6496 390.04 
L 72.18752 390.04 
L 75.72544 390.04 
L 79.26336 390.04 
L 82.80128 390.04 
L 86.3392 390.04 
L 89.87712 390.04 
L 93.41504 390.04 
L 96.95296 390.04 
L 100.49088 390.04 
L 104.0288 390.04 
L 107.56672 390.04 
L 111.10464 390.04 
L 114.64256 390.04 
L 118.18048 390.04 
L 121.7184 390.04 
L 125.25632 390.04 
L 128.79424 390.04 
L 132.33216 390.04 
L 135.87008 390.04 
L 139.408 390.04 
L 142.94592 390.04 
L 146.48384 390.04 
L 150.02176 390.04 
L 153.55968 390.04 
L 157.0976 390.04 
L 160.63552 390.04 
L 164.17344 390.04 
L 167.71136 390.04 
L 171.24928 390.04 
L 174.7872 390.04 
L 178.32512 390.04 
L 181.86304 390.04 
L 185.40096 390.04 
L 188.93888 390.04 
L 192.4768 390.04 
L 196.01472 390.04 
L 199.55264 390.04 
L 203.09056 390.04 
L 206.62848 390.04 
L 210.1664 390.04 
L 213.70432 390.04 
L 217.24224 390.04 
L 220.78016 390.04 
L 224.31808 390.04 
L 227.856 390.04 
L 231.39392 390.04 
L 234.93184 390.04 
L 238.46976 390.04 
L 242.00768 390.04 
L 245.5456 390.04 
L 249.08352 390.04 
L 252.62144 390.04 
L 256.15936 390.04 
L 259.69728 390.04 
L 263.2352 390.04 
L 266.77312 390.04 
L 270.31104 390.04 
L 273.84896 390.04 
L 277.38688 390.04 
L 280.9248 390.04 
L 284.46272 390.04 
L 288.00064 390.04 
L 291.53856 390.04 
L 295.07648 390.04 
L 298.6144 390.04 
L 302.15232 390.04 
L 305.69024 390.04 
L 309.22816 390.04 
L 312.76608 390.04 
L 316.304 390.04 
L 319.84192 390.04 
L 323.37984 390.04 
L 326.91776 390.04 
L 330.45568 390.04 
L 333.9936 390.04 
L 337.53152 390.04 
L 341.06944 390.04 
L 344.60736 390.04 
L 348.14528 390.04 
L 351.6832 390.04 
L 355.22112 390.04 
L 358.75904 390.04 
L 362.29696 390.04 
L 365.83488 390.04 
L 369.3728 390.04 
L 372.91072 390.04 
L 376.44864 390.04 
L 379.98656 390.04 
L 383.52448 390.04 
L 387.0624 390.04 
L 390.60032 390.04 
L 394.13824 390.04 
L 397.67616 390.04 
L 401.21408 390.04 
L 404.752 390.04 
L 404.752 388.100638 
L 404.752 386.161277 
L 404.752 384.221915 
L 404.752 382.282553 
L 404.752 380.343191 
L 404.752 378.40383 
L 404.752 376.464468 
L 404.752 374.525106 
L 404.752 372.585745 
L 404.752 370.646383 
L 404.752 368.707021 
L 404.752 366.76766 
L 404.752 364.828298 
L 404.752 362.888936 
L 404.752 360.949574 
L 404.752 359.010213 
L 404.752 357.070851 
L 404.752 355.131489 
L 404.752 353.192128 
L 404.752 351.252766 
L 404.752 349.313404 
L 404.752 347.374043 
L 404.752 345.434681 
L 404.752 343.495319 
L 404.752 341.555957 
L 404.752 339.616596 
L 404.752 337.677234 
L 404.752 335.737872 
L 404.752 333.798511 
L 404.752 331.859149 
L 404.752 329.919787 
L 404.752 327.980426 
L 404.752 326.041064 
L 404.752 324.101702 
L 404.752 322.16234 
L 404.752 320.222979 
L 404.752 318.283617 
L 404.752 316.344255 
L 404.752 314.404894 
L 404.752 312.465532 
L 404.752 310.52617 
L 404.752 308.586809 
L 404.752 306.647447 
L 404.752 304.708085 
L 404.752 302.768723 
L 404.752 300.829362 
L 404.752 298.89 
L 404.752 296.950638 
L 404.752 295.011277 
L 404.752 293.071915 
L 404.752 291.132553 
L 404.752 289.193191 
L 404.752 287.25383 
L 404.752 285.314468 
L 404.752 283.375106 
L 404.752 281.435745 
L 404.752 279.496383 
L 404.752 277.557021 
L 404.752 275.61766 
L 404.752 273.678298 
L 404.752 271.738936 
L 404.752 269.799574 
L 404.752 267.860213 
L 404.752 265.920851 
L 404.752 263.981489 
L 404.752 262.042128 
L 404.752 260.102766 
L 404.752 258.163404 
L 404.752 256.224043 
L 404.752 254.284681 
L 404.752 252.345319 
L 404.752 250.405957 
L 404.752 248.466596 
L 404.752 246.527234 
L 404.752 244.587872 
L 404.752 242.648511 
L 404.752 240.709149 
L 404.752 238.769787 
L 404.752 236.830426 
L 404.752 234.891064 
L 404.752 232.951702 
L 404.752 231.01234 
L 404.752 229.072979 
L 404.752 227.133617 
L 404.752 225.194255 
L 404.752 223.254894 
L 404.752 221.315532 
L 404.752 219.37617 
L 404.752 217.436809 
L 404.752 215.497447 
L 404.752 213.558085 
L 404.752 211.618723 
L 404.752 209.679362 
L 404.752 207.74 
L 404.752 205.800638 
L 404.752 203.861277 
L 404.752 201.921915 
L 404.752 199.982553 
L 404.752 198.043191 
L 404.752 196.10383 
L 404.752 194.164468 
L 404.752 192.225106 
L 404.752 190.285745 
L 404.752 188.346383 
L 404.752 186.407021 
L 404.752 184.46766 
L 404.752 182.528298 
L 404.752 180.588936 
L 404.752 178.649574 
L 404.752 176.710213 
L 404.752 174.770851 
L 404.752 172.831489 
L 404.752 170.892128 
L 404.752 168.952766 
L 404.752 167.013404 
L 404.752 165.074043 
L 404.752 163.134681 
L 404.752 161.195319 
L 404.752 159.255957 
L 404.752 157.316596 
L 404.752 155.377234 
L 404.752 153.437872 
L 404.752 151.498511 
L 404.752 149.559149 
L 404.752 147.619787 
L 404.752 145.680426 
L 404.752 143.741064 
L 404.752 141.801702 
L 404.752 139.86234 
L 404.752 137.922979 
L 404.752 135.983617 
L 404.752 134.044255 
L 404.752 132.104894 
L 404.752 130.165532 
L 404.752 128.22617 
L 404.752 126.286809 
L 404.752 124.347447 
L 404.752 122.408085 
L 404.752 120.468723 
L 404.752 118.529362 
L 404.752 116.59 
L 404.752 114.650638 
L 404.752 112.711277 
L 404.752 110.771915 
L 404.752 108.832553 
L 404.752 106.893191 
L 404.752 104.95383 
L 404.752 103.014468 
L 404.752 101.075106 
L 404.752 99.135745 
L 404.752 97.196383 
L 404.752 95.257021 
L 404.752 93.31766 
L 404.752 91.787683 
L 401.21408 91.752628 
L 397.67616 91.678095 
L 394.13824 91.580099 
L 390.60032 91.462164 
L 388.333113 91.378298 
L 387.0624 91.201862 
L 383.52448 90.892067 
L 379.98656 90.719541 
L 376.44864 90.595543 
L 372.91072 90.449985 
L 369.3728 90.250242 
L 365.83488 90.017862 
L 362.29696 89.785559 
L 358.75904 89.55405 
L 357.282721 89.438936 
L 355.22112 89.263514 
L 351.6832 88.974339 
L 348.14528 88.670415 
L 344.60736 88.1931 
L 341.06944 87.869543 
L 337.53152 87.598741 
L 336.37786 87.499574 
L 333.9936 87.301406 
L 330.45568 87.02213 
L 326.91776 86.751379 
L 323.37984 86.501613 
L 319.84192 86.274495 
L 316.304 86.067092 
L 312.76608 85.895815 
L 309.22816 85.824614 
L 305.69024 85.766611 
L 302.15232 85.694093 
L 298.6144 85.613433 
L 296.614502 85.560213 
L 295.07648 85.509846 
L 291.53856 85.381025 
L 288.00064 85.248715 
L 284.46272 85.105453 
L 280.9248 84.958426 
L 277.38688 84.814634 
L 273.84896 84.678252 
L 270.31104 84.525315 
L 266.77312 84.362892 
L 263.2352 84.174494 
L 259.69728 83.971432 
L 256.15936 83.798393 
L 252.649637 83.620851 
L 252.62144 83.619196 
L 249.08352 83.41734 
L 245.5456 83.207711 
L 242.00768 82.979586 
L 238.46976 82.7577 
L 234.93184 82.525262 
L 231.39392 82.293162 
L 227.856 82.044186 
L 224.31808 81.787991 
L 222.821725 81.681489 
L 220.78016 81.542681 
L 217.24224 81.30202 
L 213.70432 81.087684 
L 210.1664 80.885088 
L 206.62848 80.699234 
L 203.09056 80.512229 
L 199.55264 80.325143 
L 196.01472 80.165816 
L 192.4768 80.028894 
L 188.93888 79.917121 
L 185.40096 79.797399 
L 183.786726 79.742128 
L 181.86304 79.674684 
L 178.32512 79.576363 
L 174.7872 79.478512 
L 171.24928 79.374424 
L 167.71136 79.258892 
L 164.17344 79.119819 
L 160.63552 78.971066 
L 157.0976 78.821636 
L 153.55968 78.700538 
L 150.02176 78.562641 
L 146.48384 78.427851 
L 142.94592 78.273597 
L 139.408 78.087148 
L 135.87008 77.903146 
L 134.2112 77.802766 
L 132.33216 77.70317 
L 128.79424 77.531985 
L 125.25632 77.373836 
L 121.7184 77.243335 
L 118.18048 77.112459 
L 114.64256 76.980406 
L 111.10464 76.854123 
L 107.56672 76.738253 
L 104.0288 76.627196 
L 100.49088 76.49765 
L 96.95296 76.315652 
L 93.41504 76.077527 
L 91.345403 75.863404 
L 89.87712 75.731414 
L 86.3392 75.418687 
L 82.80128 75.045764 
L 79.26336 74.640343 
L 75.72544 74.136734 
L 74.689189 73.924043 
L 72.18752 73.371634 
L 68.6496 72.554462 
L 67.401041 71.984681 
L 65.11168 71.141941 
L 62.875133 70.045319 
L 61.57376 69.456068 
L 59.30703 68.105957 
L 58.03584 67.246333 
L 55.594784 66.166596 
L 54.49792 65.597015 
L 50.96 64.778837 
L 50.96 66.166596 
L 50.96 68.105957 
L 50.96 70.045319 
L 50.96 71.984681 
L 50.96 73.924043 
L 50.96 75.863404 
L 50.96 77.802766 
L 50.96 79.742128 
L 50.96 81.681489 
L 50.96 83.620851 
L 50.96 85.560213 
L 50.96 87.499574 
L 50.96 89.438936 
L 50.96 91.378298 
L 50.96 93.31766 
L 50.96 95.257021 
L 50.96 97.196383 
L 50.96 99.135745 
L 50.96 101.075106 
L 50.96 103.014468 
L 50.96 104.95383 
L 50.96 106.893191 
L 50.96 108.832553 
L 50.96 110.771915 
L 50.96 112.711277 
L 50.96 114.650638 
L 50.96 116.59 
L 50.96 118.529362 
L 50.96 120.468723 
L 50.96 122.408085 
L 50.96 124.347447 
L 50.96 126.286809 
L 50.96 128.22617 
L 50.96 130.165532 
L 50.96 132.104894 
L 50.96 134.044255 
L 50.96 135.983617 
L 50.96 137.922979 
L 50.96 139.86234 
L 50.96 141.801702 
L 50.96 143.741064 
L 50.96 145.680426 
L 50.96 147.619787 
L 50.96 149.559149 
L 50.96 151.498511 
L 50.96 153.437872 
L 50.96 155.377234 
L 50.96 157.316596 
L 50.96 159.255957 
L 50.96 161.195319 
L 50.96 163.134681 
L 50.96 165.074043 
L 50.96 167.013404 
L 50.96 168.952766 
L 50.96 170.892128 
L 50.96 172.831489 
L 50.96 174.770851 
L 50.96 176.710213 
L 50.96 178.649574 
L 50.96 180.588936 
L 50.96 182.528298 
L 50.96 184.46766 
L 50.96 186.407021 
L 50.96 188.346383 
L 50.96 190.285745 
L 50.96 192.225106 
L 50.96 194.164468 
L 50.96 196.10383 
L 50.96 198.043191 
L 50.96 199.982553 
L 50.96 201.921915 
L 50.96 203.861277 
L 50.96 205.800638 
L 50.96 207.74 
L 50.96 209.679362 
L 50.96 211.618723 
L 50.96 213.558085 
L 50.96 215.497447 
L 50.96 217.436809 
L 50.96 219.37617 
L 50.96 221.315532 
L 50.96 223.254894 
L 50.96 225.194255 
L 50.96 227.133617 
L 50.96 229.072979 
L 50.96 231.01234 
L 50.96 232.951702 
L 50.96 234.891064 
L 50.96 236.830426 
L 50.96 238.769787 
L 50.96 240.709149 
L 50.96 242.648511 
L 50.96 244.587872 
L 50.96 246.527234 
L 50.96 248.466596 
L 50.96 250.405957 
L 50.96 252.345319 
L 50.96 254.284681 
L 50.96 256.224043 
L 50.96 258.163404 
L 50.96 260.102766 
L 50.96 262.042128 
L 50.96 263.981489 
L 50.96 265.920851 
L 50.96 267.860213 
L 50.96 269.799574 
L 50.96 271.738936 
L 50.96 273.678298 
L 50.96 275.61766 
L 50.96 277.557021 
L 50.96 279.496383 
L 50.96 281.435745 
L 50.96 283.375106 
L 50.96 285.314468 
L 50.96 287.25383 
L 50.96 289.193191 
L 50.96 291.132553 
L 50.96 293.071915 
L 50.96 295.011277 
L 50.96 296.950638 
L 50.96 298.89 
L 50.96 300.829362 
L 50.96 302.768723 
L 50.96 304.708085 
L 50.96 306.647447 
L 50.96 308.586809 
L 50.96 310.52617 
L 50.96 312.465532 
L 50.96 314.404894 
L 50.96 316.344255 
L 50.96 318.283617 
L 50.96 320.222979 
L 50.96 322.16234 
L 50.96 324.101702 
L 50.96 326.041064 
L 50.96 327.980426 
L 50.96 329.919787 
L 50.96 331.859149 
L 50.96 333.798511 
L 50.96 335.737872 
L 50.96 337.677234 
L 50.96 339.616596 
L 50.96 341.555957 
L 50.96 343.495319 
L 50.96 345.434681 
L 50.96 347.374043 
L 50.96 349.313404 
L 50.96 351.252766 
L 50.96 353.192128 
L 50.96 355.131489 
L 50.96 357.070851 
L 50.96 359.010213 
L 50.96 360.949574 
L 50.96 362.888936 
L 50.96 364.828298 
L 50.96 366.76766 
L 50.96 368.707021 
L 50.96 370.646383 
L 50.96 372.585745 
L 50.96 374.525106 
L 50.96 376.464468 
L 50.96 378.40383 
L 50.96 380.343191 
L 50.96 382.282553 
L 50.96 384.221915 
L 50.96 386.161277 
L 50.96 388.100638 
L 50.96 390.04 
z
" style="fill:#2e6e8e;"/>
    <path clip-path="url(#p8da59ed669)" d="M 404.752 89.477951 
L 404.752 89.438936 
L 404.752 87.499574 
L 404.752 85.560213 
L 404.752 83.620851 
L 404.752 81.681489 
L 404.752 80.944819 
L 401.21408 80.877108 
L 397.67616 80.720184 
L 394.13824 80.482304 
L 390.60032 80.166078 
L 387.0624 79.786107 
L 386.698699 79.742128 
L 383.52448 79.408247 
L 379.98656 79.013166 
L 376.44864 78.619107 
L 372.91072 78.193844 
L 369.910401 77.802766 
L 369.3728 77.740468 
L 365.83488 77.313763 
L 362.29696 76.888162 
L 358.75904 76.447914 
L 355.22112 75.990067 
L 354.260664 75.863404 
L 351.6832 75.528822 
L 348.14528 75.107625 
L 344.60736 74.755923 
L 341.06944 74.455737 
L 337.53152 74.200005 
L 333.9936 74.005397 
L 332.927453 73.924043 
L 330.45568 73.701594 
L 326.91776 73.314552 
L 323.37984 73.031224 
L 319.84192 72.809985 
L 316.304 72.664545 
L 312.76608 72.611828 
L 309.22816 72.666312 
L 305.69024 72.774352 
L 302.15232 72.902936 
L 298.6144 73.016523 
L 295.07648 73.118462 
L 291.53856 73.198831 
L 288.00064 73.237075 
L 284.46272 73.238125 
L 280.9248 73.21842 
L 277.38688 73.174108 
L 273.84896 73.086904 
L 270.31104 72.978628 
L 266.77312 72.843382 
L 263.2352 72.696344 
L 259.69728 72.547428 
L 256.15936 72.37862 
L 252.62144 72.217813 
L 249.08352 72.050086 
L 248.180285 71.984681 
L 245.5456 71.778765 
L 242.00768 71.518652 
L 238.46976 71.274208 
L 234.93184 71.018893 
L 231.39392 70.764964 
L 227.856 70.568606 
L 224.31808 70.428739 
L 220.78016 70.249641 
L 217.24224 70.050391 
L 217.141369 70.045319 
L 213.70432 69.844165 
L 210.1664 69.655994 
L 206.62848 69.472917 
L 203.09056 69.355994 
L 199.55264 69.334629 
L 196.01472 69.352463 
L 192.4768 69.391669 
L 188.93888 69.433144 
L 185.40096 69.465688 
L 181.86304 69.438332 
L 178.32512 69.407926 
L 174.7872 69.377706 
L 171.24928 69.32865 
L 167.71136 69.296095 
L 164.17344 69.268797 
L 160.63552 69.229346 
L 157.0976 69.175444 
L 153.55968 69.144141 
L 150.02176 69.065662 
L 146.48384 68.946838 
L 142.94592 68.802368 
L 139.408 68.633101 
L 135.87008 68.481988 
L 132.33216 68.396102 
L 128.79424 68.360191 
L 125.25632 68.335289 
L 121.7184 68.275184 
L 118.18048 68.164269 
L 116.214917 68.105957 
L 114.64256 68.050251 
L 111.10464 67.972601 
L 107.56672 67.919002 
L 104.0288 67.845596 
L 100.49088 67.778374 
L 96.95296 67.67661 
L 93.41504 67.59728 
L 89.87712 67.51029 
L 86.3392 67.38276 
L 82.80128 67.176428 
L 79.26336 66.876835 
L 75.72544 66.44151 
L 74.034667 66.166596 
L 72.18752 65.782266 
L 68.6496 64.836108 
L 67.11494 64.227234 
L 65.11168 63.260543 
L 63.753862 62.287872 
L 61.57376 61.513761 
L 60.290857 60.348511 
L 58.03584 59.543049 
L 54.49792 59.32401 
L 50.96 59.526898 
L 50.96 60.052276 
L 54.49792 59.851563 
L 58.03584 60.058609 
L 58.847465 60.348511 
L 60.888236 62.287872 
L 61.57376 63.208146 
L 63.048446 64.227234 
L 65.11168 65.585767 
L 66.567103 66.166596 
L 68.6496 66.930607 
L 72.18752 67.715378 
L 74.430689 68.105957 
L 75.72544 68.382229 
L 79.26336 68.848567 
L 82.80128 69.143954 
L 86.3392 69.347989 
L 89.87712 69.463345 
L 93.41504 69.522026 
L 96.95296 69.546656 
L 100.49088 69.551691 
L 104.0288 69.562499 
L 107.56672 69.607954 
L 111.10464 69.699497 
L 114.64256 69.83532 
L 118.18048 70.011393 
L 119.016173 70.045319 
L 121.7184 70.189679 
L 125.25632 70.337209 
L 128.79424 70.470634 
L 132.33216 70.630306 
L 135.87008 70.840816 
L 139.408 71.063409 
L 142.94592 71.273001 
L 146.48384 71.429982 
L 150.02176 71.544182 
L 153.55968 71.632918 
L 157.0976 71.696139 
L 160.63552 71.724475 
L 164.17344 71.791882 
L 167.71136 71.950027 
L 168.420957 71.984681 
L 171.24928 72.176488 
L 174.7872 72.391556 
L 178.32512 72.532609 
L 181.86304 72.577179 
L 185.40096 72.551199 
L 188.93888 72.476541 
L 192.4768 72.384132 
L 196.01472 72.307307 
L 199.55264 72.287735 
L 203.09056 72.343658 
L 206.62848 72.409647 
L 210.1664 72.521725 
L 213.70432 72.685977 
L 217.24224 72.903727 
L 220.78016 73.150568 
L 224.31808 73.482629 
L 227.856 73.871924 
L 228.388968 73.924043 
L 231.39392 74.289733 
L 234.93184 74.682001 
L 238.46976 75.052601 
L 242.00768 75.472722 
L 245.5456 75.846089 
L 245.780387 75.863404 
L 249.08352 76.219621 
L 252.62144 76.577689 
L 256.15936 76.834302 
L 259.69728 77.033296 
L 263.2352 77.189259 
L 266.77312 77.340474 
L 270.31104 77.498884 
L 273.84896 77.672059 
L 276.544854 77.802766 
L 277.38688 77.865829 
L 280.9248 78.112729 
L 284.46272 78.271618 
L 288.00064 78.360521 
L 291.53856 78.408662 
L 295.07648 78.382737 
L 298.6144 78.274772 
L 302.15232 78.077893 
L 305.465146 77.802766 
L 305.69024 77.788701 
L 309.22816 77.531207 
L 312.76608 77.281029 
L 316.304 77.079034 
L 319.84192 76.980983 
L 323.37984 76.993173 
L 326.91776 77.114734 
L 330.45568 77.338992 
L 333.9936 77.7312 
L 334.550151 77.802766 
L 337.53152 78.24517 
L 341.06944 78.769266 
L 344.60736 79.310295 
L 347.454947 79.742128 
L 348.14528 79.881458 
L 351.6832 80.565076 
L 355.22112 81.255314 
L 357.357171 81.681489 
L 358.75904 82.077288 
L 362.29696 82.96103 
L 365.27201 83.620851 
L 365.83488 83.809412 
L 369.3728 84.790274 
L 372.856479 85.560213 
L 372.91072 85.581553 
L 376.44864 86.658598 
L 379.98656 87.334453 
L 381.151843 87.499574 
L 383.52448 88.240856 
L 387.0624 88.773621 
L 390.60032 89.061038 
L 394.13824 89.233099 
L 397.67616 89.346444 
L 401.21408 89.407262 
L 404.186296 89.438936 
z
" style="fill:#2e6e8e;"/>
    <path clip-path="url(#p8da59ed669)" d="M 390.60032 60.588306 
L 394.13824 60.958952 
L 397.67616 61.209686 
L 401.21408 61.327133 
L 404.752 61.361477 
L 404.752 60.348511 
L 404.752 58.409149 
L 404.752 56.469787 
L 404.752 55.973248 
L 401.21408 55.831248 
L 397.67616 55.592101 
L 394.13824 55.300086 
L 390.60032 54.979474 
L 387.0624 54.63878 
L 386.078654 54.530426 
L 383.52448 54.148003 
L 379.98656 53.632164 
L 376.44864 53.214113 
L 372.91072 52.947669 
L 369.3728 52.763612 
L 366.198062 52.591064 
L 365.83488 52.565978 
L 362.29696 52.28867 
L 358.75904 51.980884 
L 355.22112 51.650504 
L 351.6832 51.348756 
L 348.14528 51.074045 
L 344.60736 50.809038 
L 342.555254 50.651702 
L 341.06944 50.50756 
L 337.53152 50.172591 
L 333.9936 49.902139 
L 330.45568 49.687331 
L 326.91776 49.607351 
L 323.37984 49.644275 
L 319.84192 49.725816 
L 316.304 49.887914 
L 312.76608 50.18928 
L 309.22816 50.497209 
L 307.505781 50.651702 
L 305.69024 50.774469 
L 302.15232 50.996943 
L 298.6144 51.160513 
L 295.07648 51.320499 
L 291.53856 51.489913 
L 288.00064 51.649208 
L 284.46272 51.778275 
L 280.9248 51.857282 
L 277.38688 51.919727 
L 273.84896 51.944589 
L 270.31104 51.894192 
L 266.77312 51.769515 
L 263.2352 51.626694 
L 259.69728 51.535999 
L 256.15936 51.508749 
L 252.62144 51.521391 
L 249.08352 51.539233 
L 245.5456 51.57028 
L 242.00768 51.636974 
L 238.46976 51.70156 
L 234.93184 51.770556 
L 231.39392 51.840761 
L 227.856 51.895934 
L 224.31808 51.941664 
L 220.78016 51.978553 
L 217.24224 51.994749 
L 213.70432 51.950677 
L 210.1664 51.888188 
L 206.62848 51.839735 
L 203.09056 51.866029 
L 199.55264 51.911814 
L 196.01472 51.947602 
L 192.4768 51.959992 
L 188.93888 51.944524 
L 185.40096 51.923865 
L 181.86304 51.960879 
L 178.32512 52.015968 
L 174.7872 52.084852 
L 171.24928 52.149909 
L 167.71136 52.197975 
L 164.17344 52.216558 
L 160.63552 52.259368 
L 157.0976 52.332775 
L 153.55968 52.382526 
L 150.02176 52.42412 
L 146.48384 52.44181 
L 142.94592 52.418357 
L 139.408 52.47559 
L 136.604716 52.591064 
L 135.87008 52.6153 
L 132.33216 52.713392 
L 128.79424 52.830165 
L 125.25632 52.922124 
L 121.7184 53.022804 
L 118.18048 53.103504 
L 114.64256 53.1304 
L 111.10464 53.155911 
L 107.56672 53.226333 
L 104.0288 53.20432 
L 100.49088 53.160298 
L 96.95296 53.271688 
L 93.41504 52.979626 
L 89.87712 52.693279 
L 88.437795 52.591064 
L 86.3392 52.408157 
L 82.80128 52.117682 
L 79.26336 51.775203 
L 75.72544 51.429677 
L 72.18752 51.073506 
L 68.6496 51.061375 
L 65.11168 51.06975 
L 61.57376 50.964588 
L 59.617009 50.651702 
L 58.03584 50.167112 
L 54.49792 50.024574 
L 50.96 50.519168 
L 50.96 50.651702 
L 50.96 52.591064 
L 50.96 53.965857 
L 54.49792 53.638814 
L 58.03584 53.665834 
L 61.252389 54.530426 
L 61.57376 54.565146 
L 65.11168 54.582786 
L 68.6496 54.657369 
L 72.18752 54.687578 
L 75.72544 54.834991 
L 79.26336 55.116184 
L 82.80128 55.288549 
L 86.3392 55.374898 
L 89.87712 55.478593 
L 93.41504 55.592846 
L 96.95296 55.627702 
L 100.49088 55.646527 
L 104.0288 55.560995 
L 107.56672 55.487727 
L 111.10464 55.428239 
L 114.64256 55.384923 
L 118.18048 55.412885 
L 121.7184 55.456841 
L 125.25632 55.48094 
L 128.79424 55.472381 
L 132.33216 55.432162 
L 135.87008 55.416049 
L 139.408 55.402362 
L 142.94592 55.384867 
L 146.48384 55.373245 
L 150.02176 55.381268 
L 153.55968 55.406891 
L 157.0976 55.447726 
L 160.63552 55.476391 
L 164.17344 55.470477 
L 167.71136 55.458974 
L 171.24928 55.435062 
L 174.7872 55.377833 
L 178.32512 55.336055 
L 181.86304 55.308024 
L 185.40096 55.241742 
L 188.93888 55.164022 
L 192.4768 55.118428 
L 196.01472 55.075627 
L 199.55264 55.017431 
L 203.09056 54.926741 
L 206.62848 54.821741 
L 210.1664 54.736817 
L 213.70432 54.716574 
L 217.24224 54.760592 
L 220.78016 54.799863 
L 224.31808 54.833751 
L 227.856 54.899573 
L 231.39392 54.97631 
L 234.93184 55.053968 
L 238.46976 55.13401 
L 242.00768 55.204025 
L 245.5456 55.28359 
L 249.08352 55.340129 
L 252.62144 55.389209 
L 256.15936 55.451135 
L 259.69728 55.510622 
L 263.2352 55.613593 
L 266.77312 55.736005 
L 270.31104 55.853166 
L 273.84896 55.938479 
L 277.38688 55.971274 
L 280.9248 55.957601 
L 284.46272 55.914442 
L 288.00064 55.864655 
L 291.53856 55.770004 
L 295.07648 55.616633 
L 298.6144 55.424527 
L 302.15232 55.225997 
L 305.69024 55.03213 
L 309.22816 54.833305 
L 312.76608 54.624745 
L 314.34452 54.530426 
L 316.304 54.403608 
L 319.84192 54.234678 
L 323.37984 54.131699 
L 326.91776 54.083284 
L 330.45568 54.100575 
L 333.9936 54.216527 
L 337.53152 54.421683 
L 338.971948 54.530426 
L 341.06944 54.678123 
L 344.60736 55.003355 
L 348.14528 55.33665 
L 351.6832 55.680215 
L 355.22112 56.063474 
L 358.517866 56.469787 
L 358.75904 56.500316 
L 362.29696 56.952653 
L 365.83488 57.376953 
L 369.3728 57.798483 
L 372.91072 58.247292 
L 374.159257 58.409149 
L 376.44864 58.721972 
L 379.98656 59.194083 
L 383.52448 59.660373 
L 387.0624 60.132272 
L 388.764977 60.348511 
z
" style="fill:#2e6e8e;"/>
    <path clip-path="url(#p8da59ed669)" d="M 54.49792 47.221817 
L 58.03584 47.381436 
L 60.964252 46.772979 
L 61.57376 46.671639 
L 65.11168 45.930296 
L 68.6496 45.303986 
L 72.049619 44.833617 
L 72.18752 44.822285 
L 75.72544 44.563728 
L 79.26336 44.369631 
L 82.80128 44.21106 
L 86.3392 44.070924 
L 89.87712 43.931588 
L 93.41504 43.815784 
L 96.95296 43.755338 
L 100.49088 43.730086 
L 104.0288 43.740187 
L 107.56672 43.756705 
L 111.10464 43.778037 
L 114.64256 43.841275 
L 118.18048 43.91558 
L 121.7184 43.980029 
L 125.25632 44.018779 
L 128.79424 44.038685 
L 132.33216 44.06914 
L 135.87008 44.095854 
L 139.408 44.112306 
L 142.94592 44.103214 
L 146.48384 44.075762 
L 150.02176 44.049648 
L 153.55968 44.03437 
L 157.0976 44.020154 
L 160.63552 44.003657 
L 164.17344 44.001382 
L 167.71136 44.007572 
L 171.24928 43.999873 
L 174.7872 43.994696 
L 178.32512 43.979982 
L 181.86304 43.94423 
L 185.40096 43.903494 
L 188.93888 43.820878 
L 192.4768 43.749298 
L 196.01472 43.689279 
L 199.55264 43.598747 
L 203.09056 43.507801 
L 206.62848 43.417838 
L 210.1664 43.304034 
L 213.70432 43.196058 
L 217.24224 43.123398 
L 220.78016 43.075191 
L 224.31808 43.057719 
L 227.856 43.070462 
L 231.39392 43.14099 
L 234.93184 43.245668 
L 238.46976 43.367442 
L 242.00768 43.480279 
L 245.5456 43.573636 
L 249.08352 43.634745 
L 252.62144 43.664106 
L 256.15936 43.644936 
L 259.69728 43.601082 
L 263.2352 43.500587 
L 266.77312 43.37725 
L 270.31104 43.255795 
L 273.84896 43.182832 
L 277.38688 43.156675 
L 280.9248 43.148971 
L 284.46272 43.126257 
L 288.00064 43.096488 
L 291.53856 43.059565 
L 295.07648 42.979323 
L 298.6144 42.897757 
L 302.15232 42.918363 
L 305.69024 42.898824 
L 305.864237 42.894255 
L 309.22816 42.841744 
L 312.76608 42.842433 
L 315.20808 42.894255 
L 316.304 42.934877 
L 318.406903 42.894255 
L 319.84192 42.877345 
L 323.37984 42.806375 
L 326.91776 42.756573 
L 330.45568 42.636266 
L 333.9936 42.532717 
L 337.53152 42.452685 
L 341.06944 42.418687 
L 344.60736 42.377748 
L 348.14528 42.393515 
L 351.6832 42.521708 
L 355.22112 42.650584 
L 358.75904 42.847944 
L 359.39345 42.894255 
L 362.29696 43.191039 
L 365.83488 43.604992 
L 369.3728 44.036044 
L 372.91072 44.452712 
L 376.448398 44.833617 
L 376.44864 44.833656 
L 379.98656 45.2359 
L 383.52448 45.503379 
L 387.0624 45.747888 
L 390.60032 45.9701 
L 394.13824 46.061755 
L 397.67616 46.053093 
L 401.21408 46.006901 
L 404.752 45.976142 
L 404.752 44.833617 
L 404.752 42.894255 
L 404.752 40.954894 
L 404.752 40.897085 
L 401.21408 40.913935 
L 397.67616 40.930991 
L 394.13824 40.87495 
L 390.60032 40.79508 
L 387.0624 40.68883 
L 383.52448 40.510518 
L 379.98656 40.322352 
L 376.44864 40.148881 
L 372.91072 39.945931 
L 369.3728 39.700424 
L 365.83488 39.477175 
L 362.29696 39.280542 
L 358.75904 39.13294 
L 355.22112 39.05611 
L 353.470645 39.015532 
L 351.6832 38.975957 
L 348.14528 38.93085 
L 344.60736 38.935733 
L 341.06944 38.925027 
L 337.53152 38.905211 
L 333.9936 38.914037 
L 330.45568 38.981367 
L 329.539618 39.015532 
L 326.91776 39.113916 
L 323.37984 39.210494 
L 319.84192 39.349824 
L 316.304 39.484701 
L 312.76608 39.542865 
L 309.22816 39.570959 
L 305.69024 39.623895 
L 302.15232 39.630115 
L 298.6144 39.656686 
L 295.07648 39.670479 
L 291.53856 39.654665 
L 288.00064 39.642528 
L 284.46272 39.646144 
L 280.9248 39.665238 
L 277.38688 39.683184 
L 273.84896 39.68884 
L 270.31104 39.729269 
L 266.77312 39.780518 
L 263.2352 39.870909 
L 259.69728 39.954802 
L 256.15936 40.029627 
L 252.62144 40.086488 
L 249.08352 40.104647 
L 245.5456 40.085721 
L 242.00768 40.022776 
L 238.46976 39.949193 
L 234.93184 39.878152 
L 231.39392 39.83907 
L 227.856 39.841792 
L 224.31808 39.838846 
L 220.78016 39.856131 
L 217.24224 39.897306 
L 213.70432 39.928321 
L 210.1664 39.97962 
L 206.62848 40.037881 
L 203.09056 40.08029 
L 199.55264 40.135578 
L 196.01472 40.197082 
L 192.4768 40.225246 
L 188.93888 40.225048 
L 185.40096 40.225012 
L 181.86304 40.224242 
L 178.32512 40.249558 
L 174.7872 40.267819 
L 171.24928 40.280286 
L 167.71136 40.293186 
L 164.17344 40.305335 
L 160.63552 40.34248 
L 157.0976 40.389164 
L 153.55968 40.44432 
L 150.02176 40.488165 
L 146.48384 40.535249 
L 142.94592 40.566397 
L 139.408 40.616627 
L 135.87008 40.646103 
L 132.33216 40.662899 
L 128.79424 40.681381 
L 125.25632 40.695964 
L 121.7184 40.722748 
L 118.18048 40.73315 
L 114.64256 40.710069 
L 111.10464 40.64804 
L 107.56672 40.579358 
L 104.0288 40.508201 
L 100.49088 40.44671 
L 96.95296 40.413047 
L 93.41504 40.374516 
L 89.87712 40.344426 
L 86.3392 40.347311 
L 82.80128 40.354567 
L 79.26336 40.344903 
L 75.72544 40.352355 
L 72.18752 40.383023 
L 68.6496 40.432614 
L 65.11168 40.535789 
L 61.57376 40.781373 
L 60.295914 40.954894 
L 58.03584 41.335049 
L 54.49792 42.063926 
L 50.96 42.599164 
L 50.96 42.894255 
L 50.96 44.833617 
L 50.96 46.772979 
L 50.96 46.916626 
z
" style="fill:#2e6e8e;"/>
   </g>
   <g id="PathCollection_4">
    <path clip-path="url(#p8da59ed669)" d="M 387.0624 79.786107 
L 390.60032 80.166078 
L 394.13824 80.482304 
L 397.67616 80.720184 
L 401.21408 80.877108 
L 404.752 80.944819 
L 404.752 79.742128 
L 404.752 77.802766 
L 404.752 75.863404 
L 404.752 73.924043 
L 404.752 72.606152 
L 401.21408 72.557916 
L 397.67616 72.503678 
L 394.13824 72.48149 
L 390.60032 72.44726 
L 387.0624 72.414843 
L 383.52448 72.403465 
L 379.98656 72.317931 
L 376.44864 72.237894 
L 372.91072 72.135774 
L 369.417249 71.984681 
L 369.3728 71.981937 
L 365.83488 71.698366 
L 362.29696 71.418757 
L 358.75904 71.142871 
L 355.22112 70.869269 
L 351.6832 70.577639 
L 348.14528 70.267512 
L 345.641513 70.045319 
L 344.60736 69.949911 
L 341.06944 69.649129 
L 337.53152 69.411274 
L 333.9936 69.192164 
L 330.45568 68.9591 
L 326.91776 68.624043 
L 323.37984 68.396628 
L 319.84192 68.179473 
L 318.456444 68.105957 
L 316.304 67.965372 
L 312.76608 67.761435 
L 309.22816 67.559355 
L 305.69024 67.456412 
L 302.15232 67.444971 
L 298.6144 67.477088 
L 295.07648 67.535926 
L 291.53856 67.610646 
L 288.00064 67.725899 
L 284.46272 67.875635 
L 280.9248 68.022695 
L 277.892763 68.105957 
L 277.38688 68.115347 
L 273.84896 68.121019 
L 272.576061 68.105957 
L 270.31104 68.072189 
L 266.77312 67.954117 
L 263.2352 67.802871 
L 259.69728 67.669869 
L 256.15936 67.541646 
L 252.62144 67.420018 
L 249.08352 67.314846 
L 245.5456 67.227908 
L 242.00768 67.165488 
L 238.46976 67.126406 
L 234.93184 67.079565 
L 231.39392 67.045225 
L 227.856 66.922851 
L 224.31808 66.756348 
L 220.78016 66.612113 
L 217.24224 66.476664 
L 213.70432 66.386957 
L 210.1664 66.24327 
L 207.9323 66.166596 
L 206.62848 66.121242 
L 203.09056 66.018528 
L 199.55264 65.986032 
L 196.01472 66.010991 
L 192.4768 66.053615 
L 188.93888 66.095971 
L 185.40096 66.055769 
L 181.86304 66.002736 
L 178.32512 65.975763 
L 174.7872 66.004025 
L 171.24928 66.110552 
L 169.073315 66.166596 
L 167.71136 66.197392 
L 164.17344 66.218397 
L 161.528008 66.166596 
L 160.63552 66.147338 
L 157.0976 66.052544 
L 153.55968 65.99399 
L 150.02176 65.931936 
L 146.48384 65.820357 
L 142.94592 65.698194 
L 139.408 65.640505 
L 135.87008 65.619923 
L 132.33216 65.651499 
L 128.79424 65.666656 
L 125.25632 65.661225 
L 121.7184 65.634406 
L 118.18048 65.652239 
L 114.64256 65.697107 
L 111.10464 65.687666 
L 107.56672 65.68811 
L 104.0288 65.6255 
L 100.49088 65.492275 
L 96.95296 65.330859 
L 93.41504 65.199303 
L 89.87712 65.082216 
L 86.3392 64.960765 
L 82.80128 64.775687 
L 79.26336 64.413724 
L 78.02334 64.227234 
L 75.72544 63.877523 
L 72.18752 63.306024 
L 68.6496 62.355416 
L 68.509954 62.287872 
L 65.11168 60.932686 
L 62.598901 60.348511 
L 61.57376 60.244853 
L 58.03584 59.027488 
L 54.49792 58.796457 
L 50.96 59.001519 
L 50.96 59.526898 
L 54.49792 59.32401 
L 58.03584 59.543049 
L 60.290857 60.348511 
L 61.57376 61.513761 
L 63.753862 62.287872 
L 65.11168 63.260543 
L 67.11494 64.227234 
L 68.6496 64.836108 
L 72.18752 65.782266 
L 74.034667 66.166596 
L 75.72544 66.44151 
L 79.26336 66.876835 
L 82.80128 67.176428 
L 86.3392 67.38276 
L 89.87712 67.51029 
L 93.41504 67.59728 
L 96.95296 67.67661 
L 100.49088 67.778374 
L 104.0288 67.845596 
L 107.56672 67.919002 
L 111.10464 67.972601 
L 114.64256 68.050251 
L 116.214917 68.105957 
L 118.18048 68.164269 
L 121.7184 68.275184 
L 125.25632 68.335289 
L 128.79424 68.360191 
L 132.33216 68.396102 
L 135.87008 68.481988 
L 139.408 68.633101 
L 142.94592 68.802368 
L 146.48384 68.946838 
L 150.02176 69.065662 
L 153.55968 69.144141 
L 157.0976 69.175444 
L 160.63552 69.229346 
L 164.17344 69.268797 
L 167.71136 69.296095 
L 171.24928 69.32865 
L 174.7872 69.377706 
L 178.32512 69.407926 
L 181.86304 69.438332 
L 185.40096 69.465688 
L 188.93888 69.433144 
L 192.4768 69.391669 
L 196.01472 69.352463 
L 199.55264 69.334629 
L 203.09056 69.355994 
L 206.62848 69.472917 
L 210.1664 69.655994 
L 213.70432 69.844165 
L 217.141369 70.045319 
L 217.24224 70.050391 
L 220.78016 70.249641 
L 224.31808 70.428739 
L 227.856 70.568606 
L 231.39392 70.764964 
L 234.93184 71.018893 
L 238.46976 71.274208 
L 242.00768 71.518652 
L 245.5456 71.778765 
L 248.180285 71.984681 
L 249.08352 72.050086 
L 252.62144 72.217813 
L 256.15936 72.37862 
L 259.69728 72.547428 
L 263.2352 72.696344 
L 266.77312 72.843382 
L 270.31104 72.978628 
L 273.84896 73.086904 
L 277.38688 73.174108 
L 280.9248 73.21842 
L 284.46272 73.238125 
L 288.00064 73.237075 
L 291.53856 73.198831 
L 295.07648 73.118462 
L 298.6144 73.016523 
L 302.15232 72.902936 
L 305.69024 72.774352 
L 309.22816 72.666312 
L 312.76608 72.611828 
L 316.304 72.664545 
L 319.84192 72.809985 
L 323.37984 73.031224 
L 326.91776 73.314552 
L 330.45568 73.701594 
L 332.927453 73.924043 
L 333.9936 74.005397 
L 337.53152 74.200005 
L 341.06944 74.455737 
L 344.60736 74.755923 
L 348.14528 75.107625 
L 351.6832 75.528822 
L 354.260664 75.863404 
L 355.22112 75.990067 
L 358.75904 76.447914 
L 362.29696 76.888162 
L 365.83488 77.313763 
L 369.3728 77.740468 
L 369.910401 77.802766 
L 372.91072 78.193844 
L 376.44864 78.619107 
L 379.98656 79.013166 
L 383.52448 79.408247 
L 386.698699 79.742128 
z
" style="fill:#21918c;"/>
    <path clip-path="url(#p8da59ed669)" d="M 397.67616 68.293939 
L 401.21408 69.130561 
L 404.752 69.499508 
L 404.752 68.105957 
L 404.752 66.166596 
L 404.752 64.227234 
L 404.752 62.287872 
L 404.752 61.361477 
L 401.21408 61.327133 
L 397.67616 61.209686 
L 394.13824 60.958952 
L 390.60032 60.588306 
L 388.764977 60.348511 
L 387.0624 60.132272 
L 383.52448 59.660373 
L 379.98656 59.194083 
L 376.44864 58.721972 
L 374.159257 58.409149 
L 372.91072 58.247292 
L 369.3728 57.798483 
L 365.83488 57.376953 
L 362.29696 56.952653 
L 358.75904 56.500316 
L 358.517866 56.469787 
L 355.22112 56.063474 
L 351.6832 55.680215 
L 348.14528 55.33665 
L 344.60736 55.003355 
L 341.06944 54.678123 
L 338.971948 54.530426 
L 337.53152 54.421683 
L 333.9936 54.216527 
L 330.45568 54.100575 
L 326.91776 54.083284 
L 323.37984 54.131699 
L 319.84192 54.234678 
L 316.304 54.403608 
L 314.34452 54.530426 
L 312.76608 54.624745 
L 309.22816 54.833305 
L 305.69024 55.03213 
L 302.15232 55.225997 
L 298.6144 55.424527 
L 295.07648 55.616633 
L 291.53856 55.770004 
L 288.00064 55.864655 
L 284.46272 55.914442 
L 280.9248 55.957601 
L 277.38688 55.971274 
L 273.84896 55.938479 
L 270.31104 55.853166 
L 266.77312 55.736005 
L 263.2352 55.613593 
L 259.69728 55.510622 
L 256.15936 55.451135 
L 252.62144 55.389209 
L 249.08352 55.340129 
L 245.5456 55.28359 
L 242.00768 55.204025 
L 238.46976 55.13401 
L 234.93184 55.053968 
L 231.39392 54.97631 
L 227.856 54.899573 
L 224.31808 54.833751 
L 220.78016 54.799863 
L 217.24224 54.760592 
L 213.70432 54.716574 
L 210.1664 54.736817 
L 206.62848 54.821741 
L 203.09056 54.926741 
L 199.55264 55.017431 
L 196.01472 55.075627 
L 192.4768 55.118428 
L 188.93888 55.164022 
L 185.40096 55.241742 
L 181.86304 55.308024 
L 178.32512 55.336055 
L 174.7872 55.377833 
L 171.24928 55.435062 
L 167.71136 55.458974 
L 164.17344 55.470477 
L 160.63552 55.476391 
L 157.0976 55.447726 
L 153.55968 55.406891 
L 150.02176 55.381268 
L 146.48384 55.373245 
L 142.94592 55.384867 
L 139.408 55.402362 
L 135.87008 55.416049 
L 132.33216 55.432162 
L 128.79424 55.472381 
L 125.25632 55.48094 
L 121.7184 55.456841 
L 118.18048 55.412885 
L 114.64256 55.384923 
L 111.10464 55.428239 
L 107.56672 55.487727 
L 104.0288 55.560995 
L 100.49088 55.646527 
L 96.95296 55.627702 
L 93.41504 55.592846 
L 89.87712 55.478593 
L 86.3392 55.374898 
L 82.80128 55.288549 
L 79.26336 55.116184 
L 75.72544 54.834991 
L 72.18752 54.687578 
L 68.6496 54.657369 
L 65.11168 54.582786 
L 61.57376 54.565146 
L 61.252389 54.530426 
L 58.03584 53.665834 
L 54.49792 53.638814 
L 50.96 53.965857 
L 50.96 54.530426 
L 50.96 55.056494 
L 54.49792 54.952283 
L 58.03584 54.852757 
L 61.57376 55.324824 
L 65.11168 55.809366 
L 68.479665 56.469787 
L 68.6496 56.542791 
L 72.18752 56.783337 
L 75.72544 57.124941 
L 79.26336 57.580751 
L 82.80128 57.887595 
L 86.3392 57.88163 
L 89.87712 57.830089 
L 93.41504 57.800155 
L 96.95296 57.731751 
L 100.49088 57.90031 
L 104.0288 57.859427 
L 107.56672 57.7756 
L 111.10464 57.698075 
L 114.64256 57.674331 
L 118.18048 57.724181 
L 121.7184 57.796247 
L 125.25632 57.899495 
L 128.79424 57.981156 
L 132.33216 58.02156 
L 135.87008 58.077731 
L 139.408 58.165111 
L 142.94592 58.206706 
L 146.48384 58.192035 
L 150.02176 58.181728 
L 153.55968 58.265373 
L 157.0976 58.308622 
L 160.63552 58.306223 
L 164.17344 58.305907 
L 167.71136 58.274462 
L 171.24928 58.285215 
L 174.7872 58.326101 
L 178.32512 58.31842 
L 181.86304 58.304611 
L 185.40096 58.272717 
L 188.93888 58.188517 
L 192.4768 58.074857 
L 196.01472 57.962553 
L 199.55264 57.861473 
L 203.09056 57.791153 
L 206.62848 57.730881 
L 210.1664 57.651131 
L 213.70432 57.595562 
L 217.24224 57.582544 
L 220.78016 57.660376 
L 224.31808 57.792504 
L 227.856 57.918553 
L 231.39392 58.065607 
L 234.93184 58.223375 
L 238.462827 58.409149 
L 238.46976 58.409716 
L 242.00768 58.712345 
L 245.5456 58.9665 
L 249.08352 59.190117 
L 252.62144 59.358122 
L 256.15936 59.482598 
L 259.69728 59.595012 
L 263.2352 59.687816 
L 266.77312 59.821707 
L 270.31104 60.014221 
L 273.84896 60.223866 
L 276.426391 60.348511 
L 277.38688 60.423584 
L 280.9248 60.576803 
L 284.46272 60.602761 
L 288.00064 60.609482 
L 291.53856 60.642977 
L 295.07648 60.644649 
L 298.6144 60.52958 
L 300.437062 60.348511 
L 302.15232 60.227369 
L 305.69024 59.813756 
L 309.22816 59.32694 
L 312.76608 58.886748 
L 316.304 58.522338 
L 317.589011 58.409149 
L 319.84192 58.281483 
L 323.37984 58.116507 
L 326.91776 58.009281 
L 330.45568 58.004529 
L 333.9936 58.096235 
L 337.53152 58.255426 
L 340.170965 58.409149 
L 341.06944 58.482091 
L 344.60736 58.89383 
L 348.14528 59.422732 
L 351.6832 59.931377 
L 354.663173 60.348511 
L 355.22112 60.452764 
L 358.75904 61.105627 
L 362.29696 61.76667 
L 365.129512 62.287872 
L 365.83488 62.47168 
L 369.3728 63.271437 
L 372.91072 63.986917 
L 374.344123 64.227234 
L 376.44864 64.74515 
L 379.98656 65.43841 
L 383.52448 65.976145 
L 384.91956 66.166596 
L 387.0624 66.670494 
L 390.60032 67.305164 
L 394.13824 67.779311 
L 397.120783 68.105957 
z
" style="fill:#21918c;"/>
    <path clip-path="url(#p8da59ed669)" d="M 54.49792 42.063926 
L 58.03584 41.335049 
L 60.295914 40.954894 
L 61.57376 40.781373 
L 65.11168 40.535789 
L 68.6496 40.432614 
L 72.18752 40.383023 
L 75.72544 40.352355 
L 79.26336 40.344903 
L 82.80128 40.354567 
L 86.3392 40.347311 
L 89.87712 40.344426 
L 93.41504 40.374516 
L 96.95296 40.413047 
L 100.49088 40.44671 
L 104.0288 40.508201 
L 107.56672 40.579358 
L 111.10464 40.64804 
L 114.64256 40.710069 
L 118.18048 40.73315 
L 121.7184 40.722748 
L 125.25632 40.695964 
L 128.79424 40.681381 
L 132.33216 40.662899 
L 135.87008 40.646103 
L 139.408 40.616627 
L 142.94592 40.566397 
L 146.48384 40.535249 
L 150.02176 40.488165 
L 153.55968 40.44432 
L 157.0976 40.389164 
L 160.63552 40.34248 
L 164.17344 40.305335 
L 167.71136 40.293186 
L 171.24928 40.280286 
L 174.7872 40.267819 
L 178.32512 40.249558 
L 181.86304 40.224242 
L 185.40096 40.225012 
L 188.93888 40.225048 
L 192.4768 40.225246 
L 196.01472 40.197082 
L 199.55264 40.135578 
L 203.09056 40.08029 
L 206.62848 40.037881 
L 210.1664 39.97962 
L 213.70432 39.928321 
L 217.24224 39.897306 
L 220.78016 39.856131 
L 224.31808 39.838846 
L 227.856 39.841792 
L 231.39392 39.83907 
L 234.93184 39.878152 
L 238.46976 39.949193 
L 242.00768 40.022776 
L 245.5456 40.085721 
L 249.08352 40.104647 
L 252.62144 40.086488 
L 256.15936 40.029627 
L 259.69728 39.954802 
L 263.2352 39.870909 
L 266.77312 39.780518 
L 270.31104 39.729269 
L 273.84896 39.68884 
L 277.38688 39.683184 
L 280.9248 39.665238 
L 284.46272 39.646144 
L 288.00064 39.642528 
L 291.53856 39.654665 
L 295.07648 39.670479 
L 298.6144 39.656686 
L 302.15232 39.630115 
L 305.69024 39.623895 
L 309.22816 39.570959 
L 312.76608 39.542865 
L 316.304 39.484701 
L 319.84192 39.349824 
L 323.37984 39.210494 
L 326.91776 39.113916 
L 329.539618 39.015532 
L 330.45568 38.981367 
L 333.9936 38.914037 
L 337.53152 38.905211 
L 341.06944 38.925027 
L 344.60736 38.935733 
L 348.14528 38.93085 
L 351.6832 38.975957 
L 353.470645 39.015532 
L 355.22112 39.05611 
L 358.75904 39.13294 
L 362.29696 39.280542 
L 365.83488 39.477175 
L 369.3728 39.700424 
L 372.91072 39.945931 
L 376.44864 40.148881 
L 379.98656 40.322352 
L 383.52448 40.510518 
L 387.0624 40.68883 
L 390.60032 40.79508 
L 394.13824 40.87495 
L 397.67616 40.930991 
L 401.21408 40.913935 
L 404.752 40.897085 
L 404.752 39.015532 
L 404.752 37.07617 
L 404.752 36.572933 
L 401.21408 36.540691 
L 397.67616 36.491434 
L 394.13824 36.498129 
L 390.60032 36.434224 
L 387.0624 36.318134 
L 383.52448 36.230591 
L 379.98656 36.191519 
L 376.44864 36.149392 
L 372.91072 36.042966 
L 369.3728 35.880403 
L 365.83488 35.707466 
L 362.29696 35.588287 
L 358.75904 35.53031 
L 355.22112 35.512855 
L 351.6832 35.484775 
L 348.14528 35.441986 
L 344.60736 35.405025 
L 341.06944 35.350033 
L 337.53152 35.375127 
L 333.9936 35.41084 
L 330.45568 35.361651 
L 326.91776 35.413526 
L 323.37984 35.50758 
L 319.84192 35.595452 
L 316.304 35.765302 
L 312.76608 35.914078 
L 309.22816 36.006413 
L 305.69024 36.124097 
L 302.15232 36.259016 
L 298.6144 36.289941 
L 295.07648 36.304162 
L 291.53856 36.312923 
L 288.00064 36.311216 
L 284.46272 36.315095 
L 280.9248 36.30336 
L 277.38688 36.250914 
L 273.84896 36.231426 
L 270.31104 36.217151 
L 266.77312 36.231289 
L 263.2352 36.271662 
L 259.69728 36.338769 
L 256.15936 36.441331 
L 252.62144 36.549133 
L 249.08352 36.582748 
L 245.5456 36.563727 
L 242.00768 36.55687 
L 238.46976 36.500682 
L 234.93184 36.428356 
L 231.39392 36.434586 
L 227.856 36.480454 
L 224.31808 36.528987 
L 220.78016 36.571019 
L 217.24224 36.595645 
L 213.70432 36.637678 
L 210.1664 36.690493 
L 206.62848 36.719476 
L 203.09056 36.718888 
L 199.55264 36.716978 
L 196.01472 36.703025 
L 192.4768 36.684213 
L 188.93888 36.675195 
L 185.40096 36.638296 
L 181.86304 36.597928 
L 178.32512 36.561426 
L 174.7872 36.550118 
L 171.24928 36.565172 
L 167.71136 36.567278 
L 164.17344 36.598727 
L 160.63552 36.655602 
L 157.0976 36.751346 
L 153.55968 36.842841 
L 150.02176 36.915525 
L 146.48384 36.928326 
L 142.94592 37.008914 
L 141.09437 37.07617 
L 139.408 37.120982 
L 135.87008 37.222238 
L 132.33216 37.302179 
L 128.79424 37.370202 
L 125.25632 37.40712 
L 121.7184 37.435234 
L 118.18048 37.45045 
L 114.64256 37.429687 
L 111.10464 37.378264 
L 107.56672 37.322105 
L 104.0288 37.256199 
L 100.49088 37.164721 
L 97.302634 37.07617 
L 96.95296 37.062177 
L 93.41504 36.88091 
L 89.87712 36.683624 
L 86.3392 36.594723 
L 82.80128 36.474401 
L 79.26336 36.366688 
L 75.72544 36.237377 
L 72.18752 36.057343 
L 68.6496 35.862602 
L 65.11168 35.691688 
L 61.57376 35.565643 
L 58.03584 35.486949 
L 54.49792 35.408737 
L 50.96 35.349567 
L 50.96 37.07617 
L 50.96 39.015532 
L 50.96 40.954894 
L 50.96 42.599164 
z
" style="fill:#21918c;"/>
    <path clip-path="url(#p8da59ed669)" d="M 54.49792 28.807527 
L 58.03584 28.850012 
L 61.57376 28.877611 
L 65.11168 28.899631 
L 68.6496 28.921199 
L 72.18752 28.924545 
L 75.72544 28.886967 
L 79.26336 28.841698 
L 82.80128 28.803994 
L 86.3392 28.765462 
L 89.87712 28.715749 
L 93.41504 28.669943 
L 96.95296 28.617321 
L 100.49088 28.537012 
L 104.0288 28.475021 
L 107.56672 28.433534 
L 111.10464 28.390008 
L 114.64256 28.360226 
L 118.18048 28.338908 
L 121.7184 28.360375 
L 125.25632 28.391775 
L 128.79424 28.428572 
L 132.33216 28.487359 
L 135.87008 28.505039 
L 139.408 28.505184 
L 142.94592 28.490419 
L 146.48384 28.471519 
L 150.02176 28.447689 
L 153.55968 28.433155 
L 157.0976 28.455803 
L 160.63552 28.498326 
L 164.17344 28.558534 
L 167.71136 28.617449 
L 171.24928 28.652603 
L 174.7872 28.668607 
L 178.32512 28.665697 
L 181.86304 28.599207 
L 185.40096 28.480465 
L 188.93888 28.341259 
L 192.4768 28.175276 
L 196.01472 27.998124 
L 199.55264 27.807537 
L 203.09056 27.665373 
L 206.62848 27.539111 
L 210.1664 27.476631 
L 213.70432 27.46564 
L 217.24224 27.49785 
L 220.78016 27.569445 
L 224.31808 27.684236 
L 227.856 27.833397 
L 231.39392 27.977089 
L 234.93184 28.082783 
L 238.46976 28.140824 
L 242.00768 28.180192 
L 245.5456 28.232795 
L 249.08352 28.272912 
L 252.62144 28.240949 
L 256.15936 28.203998 
L 259.69728 28.152275 
L 263.2352 28.165392 
L 266.77312 28.105566 
L 270.31104 28.040505 
L 273.84896 27.951429 
L 277.38688 27.787774 
L 280.9248 27.684289 
L 284.46272 27.603226 
L 288.00064 27.583164 
L 291.53856 27.671877 
L 295.07648 27.803909 
L 298.6144 27.964639 
L 302.15232 28.125123 
L 305.69024 28.313434 
L 309.22816 28.439052 
L 312.76608 28.503637 
L 316.304 28.537666 
L 319.84192 28.533389 
L 323.37984 28.453341 
L 326.91776 28.322321 
L 330.45568 28.090748 
L 333.9936 27.817087 
L 337.53152 27.438038 
L 338.559409 27.379362 
L 341.06944 27.280037 
L 343.062382 27.379362 
L 344.60736 27.497035 
L 348.14528 27.710432 
L 351.6832 28.013517 
L 355.22112 28.154082 
L 358.75904 28.212074 
L 362.29696 28.170276 
L 365.83488 28.01154 
L 369.3728 27.793515 
L 372.91072 27.551229 
L 376.165303 27.379362 
L 376.44864 27.368995 
L 379.98656 27.322653 
L 383.52448 27.303477 
L 387.0624 27.22376 
L 390.60032 27.118926 
L 394.13824 27.064988 
L 397.67616 27.014083 
L 401.21408 26.955359 
L 404.752 26.884826 
L 404.752 25.44 
L 401.21408 25.44 
L 397.67616 25.44 
L 394.13824 25.44 
L 390.60032 25.44 
L 387.0624 25.44 
L 383.52448 25.44 
L 379.98656 25.44 
L 376.44864 25.44 
L 372.91072 25.44 
L 369.3728 25.44 
L 365.83488 25.44 
L 362.29696 25.44 
L 358.75904 25.44 
L 355.22112 25.44 
L 351.6832 25.44 
L 348.14528 25.44 
L 344.60736 25.44 
L 341.06944 25.44 
L 337.53152 25.44 
L 333.9936 25.44 
L 330.45568 25.44 
L 326.91776 25.44 
L 323.37984 25.44 
L 319.84192 25.44 
L 316.304 25.44 
L 312.76608 25.44 
L 309.22816 25.44 
L 305.69024 25.44 
L 302.15232 25.44 
L 298.6144 25.44 
L 295.07648 25.44 
L 291.53856 25.44 
L 288.00064 25.44 
L 284.46272 25.44 
L 280.9248 25.44 
L 277.38688 25.44 
L 273.84896 25.44 
L 270.31104 25.44 
L 266.77312 25.44 
L 263.2352 25.44 
L 259.69728 25.44 
L 256.15936 25.44 
L 252.62144 25.44 
L 249.08352 25.44 
L 245.5456 25.44 
L 242.00768 25.44 
L 238.46976 25.44 
L 234.93184 25.44 
L 231.39392 25.44 
L 227.856 25.44 
L 224.31808 25.44 
L 220.78016 25.44 
L 217.24224 25.44 
L 213.70432 25.44 
L 210.1664 25.44 
L 206.62848 25.44 
L 203.09056 25.44 
L 199.55264 25.44 
L 196.01472 25.44 
L 192.4768 25.44 
L 188.93888 25.44 
L 185.40096 25.44 
L 181.86304 25.44 
L 178.32512 25.44 
L 174.7872 25.44 
L 171.24928 25.44 
L 167.71136 25.44 
L 164.17344 25.44 
L 160.63552 25.44 
L 157.0976 25.44 
L 153.55968 25.44 
L 150.02176 25.44 
L 146.48384 25.44 
L 142.94592 25.44 
L 139.408 25.44 
L 135.87008 25.44 
L 132.33216 25.44 
L 128.79424 25.44 
L 125.25632 25.44 
L 121.7184 25.44 
L 118.18048 25.44 
L 114.64256 25.44 
L 111.10464 25.44 
L 107.56672 25.44 
L 104.0288 25.44 
L 100.49088 25.44 
L 96.95296 25.44 
L 93.41504 25.44 
L 89.87712 25.44 
L 86.3392 25.44 
L 82.80128 25.44 
L 79.26336 25.44 
L 75.72544 25.44 
L 72.18752 25.44 
L 68.6496 25.44 
L 65.11168 25.44 
L 61.57376 25.44 
L 58.03584 25.44 
L 54.49792 25.44 
L 50.96 25.44 
L 50.96 27.379362 
L 50.96 28.764975 
z
" style="fill:#21918c;"/>
   </g>
   <g id="PathCollection_5">
    <path clip-path="url(#p8da59ed669)" d="M 372.91072 72.135774 
L 376.44864 72.237894 
L 379.98656 72.317931 
L 383.52448 72.403465 
L 387.0624 72.414843 
L 390.60032 72.44726 
L 394.13824 72.48149 
L 397.67616 72.503678 
L 401.21408 72.557916 
L 404.752 72.606152 
L 404.752 71.984681 
L 404.752 70.045319 
L 404.752 69.499508 
L 401.21408 69.130561 
L 397.67616 68.293939 
L 397.120783 68.105957 
L 394.13824 67.779311 
L 390.60032 67.305164 
L 387.0624 66.670494 
L 384.91956 66.166596 
L 383.52448 65.976145 
L 379.98656 65.43841 
L 376.44864 64.74515 
L 374.344123 64.227234 
L 372.91072 63.986917 
L 369.3728 63.271437 
L 365.83488 62.47168 
L 365.129512 62.287872 
L 362.29696 61.76667 
L 358.75904 61.105627 
L 355.22112 60.452764 
L 354.663173 60.348511 
L 351.6832 59.931377 
L 348.14528 59.422732 
L 344.60736 58.89383 
L 341.06944 58.482091 
L 340.170965 58.409149 
L 337.53152 58.255426 
L 333.9936 58.096235 
L 330.45568 58.004529 
L 326.91776 58.009281 
L 323.37984 58.116507 
L 319.84192 58.281483 
L 317.589011 58.409149 
L 316.304 58.522338 
L 312.76608 58.886748 
L 309.22816 59.32694 
L 305.69024 59.813756 
L 302.15232 60.227369 
L 300.437062 60.348511 
L 298.6144 60.52958 
L 295.07648 60.644649 
L 291.53856 60.642977 
L 288.00064 60.609482 
L 284.46272 60.602761 
L 280.9248 60.576803 
L 277.38688 60.423584 
L 276.426391 60.348511 
L 273.84896 60.223866 
L 270.31104 60.014221 
L 266.77312 59.821707 
L 263.2352 59.687816 
L 259.69728 59.595012 
L 256.15936 59.482598 
L 252.62144 59.358122 
L 249.08352 59.190117 
L 245.5456 58.9665 
L 242.00768 58.712345 
L 238.46976 58.409716 
L 238.462827 58.409149 
L 234.93184 58.223375 
L 231.39392 58.065607 
L 227.856 57.918553 
L 224.31808 57.792504 
L 220.78016 57.660376 
L 217.24224 57.582544 
L 213.70432 57.595562 
L 210.1664 57.651131 
L 206.62848 57.730881 
L 203.09056 57.791153 
L 199.55264 57.861473 
L 196.01472 57.962553 
L 192.4768 58.074857 
L 188.93888 58.188517 
L 185.40096 58.272717 
L 181.86304 58.304611 
L 178.32512 58.31842 
L 174.7872 58.326101 
L 171.24928 58.285215 
L 167.71136 58.274462 
L 164.17344 58.305907 
L 160.63552 58.306223 
L 157.0976 58.308622 
L 153.55968 58.265373 
L 150.02176 58.181728 
L 146.48384 58.192035 
L 142.94592 58.206706 
L 139.408 58.165111 
L 135.87008 58.077731 
L 132.33216 58.02156 
L 128.79424 57.981156 
L 125.25632 57.899495 
L 121.7184 57.796247 
L 118.18048 57.724181 
L 114.64256 57.674331 
L 111.10464 57.698075 
L 107.56672 57.7756 
L 104.0288 57.859427 
L 100.49088 57.90031 
L 96.95296 57.731751 
L 93.41504 57.800155 
L 89.87712 57.830089 
L 86.3392 57.88163 
L 82.80128 57.887595 
L 79.26336 57.580751 
L 75.72544 57.124941 
L 72.18752 56.783337 
L 68.6496 56.542791 
L 68.479665 56.469787 
L 65.11168 55.809366 
L 61.57376 55.324824 
L 58.03584 54.852757 
L 54.49792 54.952283 
L 50.96 55.056494 
L 50.96 55.756909 
L 54.49792 55.683863 
L 58.03584 55.446863 
L 61.57376 56.084501 
L 63.425981 56.469787 
L 65.11168 58.140978 
L 65.802106 58.409149 
L 65.11168 58.588362 
L 61.57376 59.31258 
L 58.03584 58.511928 
L 56.519702 58.409149 
L 54.49792 58.024438 
L 52.106877 58.409149 
L 50.96 58.476141 
L 50.96 59.001519 
L 54.49792 58.796457 
L 58.03584 59.027488 
L 61.57376 60.244853 
L 62.598901 60.348511 
L 65.11168 60.932686 
L 68.509954 62.287872 
L 68.6496 62.355416 
L 72.18752 63.306024 
L 75.72544 63.877523 
L 78.02334 64.227234 
L 79.26336 64.413724 
L 82.80128 64.775687 
L 86.3392 64.960765 
L 89.87712 65.082216 
L 93.41504 65.199303 
L 96.95296 65.330859 
L 100.49088 65.492275 
L 104.0288 65.6255 
L 107.56672 65.68811 
L 111.10464 65.687666 
L 114.64256 65.697107 
L 118.18048 65.652239 
L 121.7184 65.634406 
L 125.25632 65.661225 
L 128.79424 65.666656 
L 132.33216 65.651499 
L 135.87008 65.619923 
L 139.408 65.640505 
L 142.94592 65.698194 
L 146.48384 65.820357 
L 150.02176 65.931936 
L 153.55968 65.99399 
L 157.0976 66.052544 
L 160.63552 66.147338 
L 161.528008 66.166596 
L 164.17344 66.218397 
L 167.71136 66.197392 
L 169.073315 66.166596 
L 171.24928 66.110552 
L 174.7872 66.004025 
L 178.32512 65.975763 
L 181.86304 66.002736 
L 185.40096 66.055769 
L 188.93888 66.095971 
L 192.4768 66.053615 
L 196.01472 66.010991 
L 199.55264 65.986032 
L 203.09056 66.018528 
L 206.62848 66.121242 
L 207.9323 66.166596 
L 210.1664 66.24327 
L 213.70432 66.386957 
L 217.24224 66.476664 
L 220.78016 66.612113 
L 224.31808 66.756348 
L 227.856 66.922851 
L 231.39392 67.045225 
L 234.93184 67.079565 
L 238.46976 67.126406 
L 242.00768 67.165488 
L 245.5456 67.227908 
L 249.08352 67.314846 
L 252.62144 67.420018 
L 256.15936 67.541646 
L 259.69728 67.669869 
L 263.2352 67.802871 
L 266.77312 67.954117 
L 270.31104 68.072189 
L 272.576061 68.105957 
L 273.84896 68.121019 
L 277.38688 68.115347 
L 277.892763 68.105957 
L 280.9248 68.022695 
L 284.46272 67.875635 
L 288.00064 67.725899 
L 291.53856 67.610646 
L 295.07648 67.535926 
L 298.6144 67.477088 
L 302.15232 67.444971 
L 305.69024 67.456412 
L 309.22816 67.559355 
L 312.76608 67.761435 
L 316.304 67.965372 
L 318.456444 68.105957 
L 319.84192 68.179473 
L 323.37984 68.396628 
L 326.91776 68.624043 
L 330.45568 68.9591 
L 333.9936 69.192164 
L 337.53152 69.411274 
L 341.06944 69.649129 
L 344.60736 69.949911 
L 345.641513 70.045319 
L 348.14528 70.267512 
L 351.6832 70.577639 
L 355.22112 70.869269 
L 358.75904 71.142871 
L 362.29696 71.418757 
L 365.83488 71.698366 
L 369.3728 71.981937 
L 369.417249 71.984681 
z
" style="fill:#2db27d;"/>
    <path clip-path="url(#p8da59ed669)" d="M 100.49088 37.164721 
L 104.0288 37.256199 
L 107.56672 37.322105 
L 111.10464 37.378264 
L 114.64256 37.429687 
L 118.18048 37.45045 
L 121.7184 37.435234 
L 125.25632 37.40712 
L 128.79424 37.370202 
L 132.33216 37.302179 
L 135.87008 37.222238 
L 139.408 37.120982 
L 141.09437 37.07617 
L 142.94592 37.008914 
L 146.48384 36.928326 
L 150.02176 36.915525 
L 153.55968 36.842841 
L 157.0976 36.751346 
L 160.63552 36.655602 
L 164.17344 36.598727 
L 167.71136 36.567278 
L 171.24928 36.565172 
L 174.7872 36.550118 
L 178.32512 36.561426 
L 181.86304 36.597928 
L 185.40096 36.638296 
L 188.93888 36.675195 
L 192.4768 36.684213 
L 196.01472 36.703025 
L 199.55264 36.716978 
L 203.09056 36.718888 
L 206.62848 36.719476 
L 210.1664 36.690493 
L 213.70432 36.637678 
L 217.24224 36.595645 
L 220.78016 36.571019 
L 224.31808 36.528987 
L 227.856 36.480454 
L 231.39392 36.434586 
L 234.93184 36.428356 
L 238.46976 36.500682 
L 242.00768 36.55687 
L 245.5456 36.563727 
L 249.08352 36.582748 
L 252.62144 36.549133 
L 256.15936 36.441331 
L 259.69728 36.338769 
L 263.2352 36.271662 
L 266.77312 36.231289 
L 270.31104 36.217151 
L 273.84896 36.231426 
L 277.38688 36.250914 
L 280.9248 36.30336 
L 284.46272 36.315095 
L 288.00064 36.311216 
L 291.53856 36.312923 
L 295.07648 36.304162 
L 298.6144 36.289941 
L 302.15232 36.259016 
L 305.69024 36.124097 
L 309.22816 36.006413 
L 312.76608 35.914078 
L 316.304 35.765302 
L 319.84192 35.595452 
L 323.37984 35.50758 
L 326.91776 35.413526 
L 330.45568 35.361651 
L 333.9936 35.41084 
L 337.53152 35.375127 
L 341.06944 35.350033 
L 344.60736 35.405025 
L 348.14528 35.441986 
L 351.6832 35.484775 
L 355.22112 35.512855 
L 358.75904 35.53031 
L 362.29696 35.588287 
L 365.83488 35.707466 
L 369.3728 35.880403 
L 372.91072 36.042966 
L 376.44864 36.149392 
L 379.98656 36.191519 
L 383.52448 36.230591 
L 387.0624 36.318134 
L 390.60032 36.434224 
L 394.13824 36.498129 
L 397.67616 36.491434 
L 401.21408 36.540691 
L 404.752 36.572933 
L 404.752 35.136809 
L 404.752 33.197447 
L 404.752 31.258085 
L 404.752 29.318723 
L 404.752 27.379362 
L 404.752 26.884826 
L 401.21408 26.955359 
L 397.67616 27.014083 
L 394.13824 27.064988 
L 390.60032 27.118926 
L 387.0624 27.22376 
L 383.52448 27.303477 
L 379.98656 27.322653 
L 376.44864 27.368995 
L 376.165303 27.379362 
L 372.91072 27.551229 
L 369.3728 27.793515 
L 365.83488 28.01154 
L 362.29696 28.170276 
L 358.75904 28.212074 
L 355.22112 28.154082 
L 351.6832 28.013517 
L 348.14528 27.710432 
L 344.60736 27.497035 
L 343.062382 27.379362 
L 341.06944 27.280037 
L 338.559409 27.379362 
L 337.53152 27.438038 
L 333.9936 27.817087 
L 330.45568 28.090748 
L 326.91776 28.322321 
L 323.37984 28.453341 
L 319.84192 28.533389 
L 316.304 28.537666 
L 312.76608 28.503637 
L 309.22816 28.439052 
L 305.69024 28.313434 
L 302.15232 28.125123 
L 298.6144 27.964639 
L 295.07648 27.803909 
L 291.53856 27.671877 
L 288.00064 27.583164 
L 284.46272 27.603226 
L 280.9248 27.684289 
L 277.38688 27.787774 
L 273.84896 27.951429 
L 270.31104 28.040505 
L 266.77312 28.105566 
L 263.2352 28.165392 
L 259.69728 28.152275 
L 256.15936 28.203998 
L 252.62144 28.240949 
L 249.08352 28.272912 
L 245.5456 28.232795 
L 242.00768 28.180192 
L 238.46976 28.140824 
L 234.93184 28.082783 
L 231.39392 27.977089 
L 227.856 27.833397 
L 224.31808 27.684236 
L 220.78016 27.569445 
L 217.24224 27.49785 
L 213.70432 27.46564 
L 210.1664 27.476631 
L 206.62848 27.539111 
L 203.09056 27.665373 
L 199.55264 27.807537 
L 196.01472 27.998124 
L 192.4768 28.175276 
L 188.93888 28.341259 
L 185.40096 28.480465 
L 181.86304 28.599207 
L 178.32512 28.665697 
L 174.7872 28.668607 
L 171.24928 28.652603 
L 167.71136 28.617449 
L 164.17344 28.558534 
L 160.63552 28.498326 
L 157.0976 28.455803 
L 153.55968 28.433155 
L 150.02176 28.447689 
L 146.48384 28.471519 
L 142.94592 28.490419 
L 139.408 28.505184 
L 135.87008 28.505039 
L 132.33216 28.487359 
L 128.79424 28.428572 
L 125.25632 28.391775 
L 121.7184 28.360375 
L 118.18048 28.338908 
L 114.64256 28.360226 
L 111.10464 28.390008 
L 107.56672 28.433534 
L 104.0288 28.475021 
L 100.49088 28.537012 
L 96.95296 28.617321 
L 93.41504 28.669943 
L 89.87712 28.715749 
L 86.3392 28.765462 
L 82.80128 28.803994 
L 79.26336 28.841698 
L 75.72544 28.886967 
L 72.18752 28.924545 
L 68.6496 28.921199 
L 65.11168 28.899631 
L 61.57376 28.877611 
L 58.03584 28.850012 
L 54.49792 28.807527 
L 50.96 28.764975 
L 50.96 29.318723 
L 50.96 31.258085 
L 50.96 33.197447 
L 50.96 35.136809 
L 50.96 35.349567 
L 54.49792 35.408737 
L 58.03584 35.486949 
L 61.57376 35.565643 
L 65.11168 35.691688 
L 68.6496 35.862602 
L 72.18752 36.057343 
L 75.72544 36.237377 
L 79.26336 36.366688 
L 82.80128 36.474401 
L 86.3392 36.594723 
L 89.87712 36.683624 
L 93.41504 36.88091 
L 96.95296 37.062177 
L 97.302634 37.07617 
z
" style="fill:#2db27d;"/>
   </g>
   <g id="PathCollection_6">
    <path clip-path="url(#p8da59ed669)" d="M 52.106877 58.409149 
L 54.49792 58.024438 
L 56.519702 58.409149 
L 58.03584 58.511928 
L 61.57376 59.31258 
L 65.11168 58.588362 
L 65.802106 58.409149 
L 65.11168 58.140978 
L 63.425981 56.469787 
L 61.57376 56.084501 
L 58.03584 55.446863 
L 54.49792 55.683863 
L 50.96 55.756909 
L 50.96 56.457324 
L 54.49792 56.415443 
L 58.03584 56.040969 
L 60.138254 56.469787 
L 58.03584 57.38924 
L 54.49792 56.577287 
L 50.96 56.50855 
L 50.96 58.409149 
L 50.96 58.476141 
z
" style="fill:#73d056;"/>
   </g>
   <g id="PathCollection_7">
    <path clip-path="url(#p8da59ed669)" d="M 54.49792 56.577287 
L 58.03584 57.38924 
L 60.138254 56.469787 
L 58.03584 56.040969 
L 54.49792 56.415443 
L 50.96 56.457324 
L 50.96 56.469787 
L 50.96 56.50855 
z
" style="fill:#d0e11c;"/>
   </g>
   <g id="matplotlib.axis_1">
    <g id="xtick_1">
     <g id="line2d_1">
      <defs>
       <path d="M 0 0 
L 0 3.5 
" id="m4096a55385" style="stroke:#000000;stroke-width:0.8;"/>
      </defs>
      <g>
       <use style="stroke:#000000;stroke-width:0.8;" x="50.96" xlink:href="#m4096a55385" y="390.04"/>
      </g>
     </g>
     <g id="text_1">
      <!-- 0 -->
      <defs>
       <path d="M 31.78125 66.40625 
Q 24.171875 66.40625 20.328125 58.90625 
Q 16.5 51.421875 16.5 36.375 
Q 16.5 21.390625 20.328125 13.890625 
Q 24.171875 6.390625 31.78125 6.390625 
Q 39.453125 6.390625 43.28125 13.890625 
Q 47.125 21.390625 47.125 36.375 
Q 47.125 51.421875 43.28125 58.90625 
Q 39.453125 66.40625 31.78125 66.40625 
z
M 31.78125 74.21875 
Q 44.046875 74.21875 50.515625 64.515625 
Q 56.984375 54.828125 56.984375 36.375 
Q 56.984375 17.96875 50.515625 8.265625 
Q 44.046875 -1.421875 31.78125 -1.421875 
Q 19.53125 -1.421875 13.0625 8.265625 
Q 6.59375 17.96875 6.59375 36.375 
Q 6.59375 54.828125 13.0625 64.515625 
Q 19.53125 74.21875 31.78125 74.21875 
z
" id="DejaVuSans-48"/>
      </defs>
      <g transform="translate(47.77875 404.638438)scale(0.1 -0.1)">
       <use xlink:href="#DejaVuSans-48"/>
      </g>
     </g>
    </g>
    <g id="xtick_2">
     <g id="line2d_2">
      <g>
       <use style="stroke:#000000;stroke-width:0.8;" x="121.7184" xlink:href="#m4096a55385" y="390.04"/>
      </g>
     </g>
     <g id="text_2">
      <!-- 20 -->
      <defs>
       <path d="M 19.1875 8.296875 
L 53.609375 8.296875 
L 53.609375 0 
L 7.328125 0 
L 7.328125 8.296875 
Q 12.9375 14.109375 22.625 23.890625 
Q 32.328125 33.6875 34.8125 36.53125 
Q 39.546875 41.84375 41.421875 45.53125 
Q 43.3125 49.21875 43.3125 52.78125 
Q 43.3125 58.59375 39.234375 62.25 
Q 35.15625 65.921875 28.609375 65.921875 
Q 23.96875 65.921875 18.8125 64.3125 
Q 13.671875 62.703125 7.8125 59.421875 
L 7.8125 69.390625 
Q 13.765625 71.78125 18.9375 73 
Q 24.125 74.21875 28.421875 74.21875 
Q 39.75 74.21875 46.484375 68.546875 
Q 53.21875 62.890625 53.21875 53.421875 
Q 53.21875 48.921875 51.53125 44.890625 
Q 49.859375 40.875 45.40625 35.40625 
Q 44.1875 33.984375 37.640625 27.21875 
Q 31.109375 20.453125 19.1875 8.296875 
z
" id="DejaVuSans-50"/>
      </defs>
      <g transform="translate(115.3559 404.638438)scale(0.1 -0.1)">
       <use xlink:href="#DejaVuSans-50"/>
       <use x="63.623047" xlink:href="#DejaVuSans-48"/>
      </g>
     </g>
    </g>
    <g id="xtick_3">
     <g id="line2d_3">
      <g>
       <use style="stroke:#000000;stroke-width:0.8;" x="192.4768" xlink:href="#m4096a55385" y="390.04"/>
      </g>
     </g>
     <g id="text_3">
      <!-- 40 -->
      <defs>
       <path d="M 37.796875 64.3125 
L 12.890625 25.390625 
L 37.796875 25.390625 
z
M 35.203125 72.90625 
L 47.609375 72.90625 
L 47.609375 25.390625 
L 58.015625 25.390625 
L 58.015625 17.1875 
L 47.609375 17.1875 
L 47.609375 0 
L 37.796875 0 
L 37.796875 17.1875 
L 4.890625 17.1875 
L 4.890625 26.703125 
z
" id="DejaVuSans-52"/>
      </defs>
      <g transform="translate(186.1143 404.638438)scale(0.1 -0.1)">
       <use xlink:href="#DejaVuSans-52"/>
       <use x="63.623047" xlink:href="#DejaVuSans-48"/>
      </g>
     </g>
    </g>
    <g id="xtick_4">
     <g id="line2d_4">
      <g>
       <use style="stroke:#000000;stroke-width:0.8;" x="263.2352" xlink:href="#m4096a55385" y="390.04"/>
      </g>
     </g>
     <g id="text_4">
      <!-- 60 -->
      <defs>
       <path d="M 33.015625 40.375 
Q 26.375 40.375 22.484375 35.828125 
Q 18.609375 31.296875 18.609375 23.390625 
Q 18.609375 15.53125 22.484375 10.953125 
Q 26.375 6.390625 33.015625 6.390625 
Q 39.65625 6.390625 43.53125 10.953125 
Q 47.40625 15.53125 47.40625 23.390625 
Q 47.40625 31.296875 43.53125 35.828125 
Q 39.65625 40.375 33.015625 40.375 
z
M 52.59375 71.296875 
L 52.59375 62.3125 
Q 48.875 64.0625 45.09375 64.984375 
Q 41.3125 65.921875 37.59375 65.921875 
Q 27.828125 65.921875 22.671875 59.328125 
Q 17.53125 52.734375 16.796875 39.40625 
Q 19.671875 43.65625 24.015625 45.921875 
Q 28.375 48.1875 33.59375 48.1875 
Q 44.578125 48.1875 50.953125 41.515625 
Q 57.328125 34.859375 57.328125 23.390625 
Q 57.328125 12.15625 50.6875 5.359375 
Q 44.046875 -1.421875 33.015625 -1.421875 
Q 20.359375 -1.421875 13.671875 8.265625 
Q 6.984375 17.96875 6.984375 36.375 
Q 6.984375 53.65625 15.1875 63.9375 
Q 23.390625 74.21875 37.203125 74.21875 
Q 40.921875 74.21875 44.703125 73.484375 
Q 48.484375 72.75 52.59375 71.296875 
z
" id="DejaVuSans-54"/>
      </defs>
      <g transform="translate(256.8727 404.638438)scale(0.1 -0.1)">
       <use xlink:href="#DejaVuSans-54"/>
       <use x="63.623047" xlink:href="#DejaVuSans-48"/>
      </g>
     </g>
    </g>
    <g id="xtick_5">
     <g id="line2d_5">
      <g>
       <use style="stroke:#000000;stroke-width:0.8;" x="333.9936" xlink:href="#m4096a55385" y="390.04"/>
      </g>
     </g>
     <g id="text_5">
      <!-- 80 -->
      <defs>
       <path d="M 31.78125 34.625 
Q 24.75 34.625 20.71875 30.859375 
Q 16.703125 27.09375 16.703125 20.515625 
Q 16.703125 13.921875 20.71875 10.15625 
Q 24.75 6.390625 31.78125 6.390625 
Q 38.8125 6.390625 42.859375 10.171875 
Q 46.921875 13.96875 46.921875 20.515625 
Q 46.921875 27.09375 42.890625 30.859375 
Q 38.875 34.625 31.78125 34.625 
z
M 21.921875 38.8125 
Q 15.578125 40.375 12.03125 44.71875 
Q 8.5 49.078125 8.5 55.328125 
Q 8.5 64.0625 14.71875 69.140625 
Q 20.953125 74.21875 31.78125 74.21875 
Q 42.671875 74.21875 48.875 69.140625 
Q 55.078125 64.0625 55.078125 55.328125 
Q 55.078125 49.078125 51.53125 44.71875 
Q 48 40.375 41.703125 38.8125 
Q 48.828125 37.15625 52.796875 32.3125 
Q 56.78125 27.484375 56.78125 20.515625 
Q 56.78125 9.90625 50.3125 4.234375 
Q 43.84375 -1.421875 31.78125 -1.421875 
Q 19.734375 -1.421875 13.25 4.234375 
Q 6.78125 9.90625 6.78125 20.515625 
Q 6.78125 27.484375 10.78125 32.3125 
Q 14.796875 37.15625 21.921875 38.8125 
z
M 18.3125 54.390625 
Q 18.3125 48.734375 21.84375 45.5625 
Q 25.390625 42.390625 31.78125 42.390625 
Q 38.140625 42.390625 41.71875 45.5625 
Q 45.3125 48.734375 45.3125 54.390625 
Q 45.3125 60.0625 41.71875 63.234375 
Q 38.140625 66.40625 31.78125 66.40625 
Q 25.390625 66.40625 21.84375 63.234375 
Q 18.3125 60.0625 18.3125 54.390625 
z
" id="DejaVuSans-56"/>
      </defs>
      <g transform="translate(327.6311 404.638438)scale(0.1 -0.1)">
       <use xlink:href="#DejaVuSans-56"/>
       <use x="63.623047" xlink:href="#DejaVuSans-48"/>
      </g>
     </g>
    </g>
    <g id="xtick_6">
     <g id="line2d_6">
      <g>
       <use style="stroke:#000000;stroke-width:0.8;" x="404.752" xlink:href="#m4096a55385" y="390.04"/>
      </g>
     </g>
     <g id="text_6">
      <!-- 100 -->
      <defs>
       <path d="M 12.40625 8.296875 
L 28.515625 8.296875 
L 28.515625 63.921875 
L 10.984375 60.40625 
L 10.984375 69.390625 
L 28.421875 72.90625 
L 38.28125 72.90625 
L 38.28125 8.296875 
L 54.390625 8.296875 
L 54.390625 0 
L 12.40625 0 
z
" id="DejaVuSans-49"/>
      </defs>
      <g transform="translate(395.20825 404.638438)scale(0.1 -0.1)">
       <use xlink:href="#DejaVuSans-49"/>
       <use x="63.623047" xlink:href="#DejaVuSans-48"/>
       <use x="127.246094" xlink:href="#DejaVuSans-48"/>
      </g>
     </g>
    </g>
    <g id="text_7">
     <!-- X -->
     <defs>
      <path d="M 6.296875 72.90625 
L 16.890625 72.90625 
L 35.015625 45.796875 
L 53.21875 72.90625 
L 63.8125 72.90625 
L 40.375 37.890625 
L 65.375 0 
L 54.78125 0 
L 34.28125 31 
L 13.625 0 
L 2.984375 0 
L 29 38.921875 
z
" id="DejaVuSans-88"/>
     </defs>
     <g transform="translate(224.431 418.316562)scale(0.1 -0.1)">
      <use xlink:href="#DejaVuSans-88"/>
     </g>
    </g>
   </g>
   <g id="matplotlib.axis_2">
    <g id="ytick_1">
     <g id="line2d_7">
      <defs>
       <path d="M 0 0 
L -3.5 0 
" id="m70a7968503" style="stroke:#000000;stroke-width:0.8;"/>
      </defs>
      <g>
       <use style="stroke:#000000;stroke-width:0.8;" x="50.96" xlink:href="#m70a7968503" y="390.04"/>
      </g>
     </g>
     <g id="text_8">
      <!-- 0 -->
      <g transform="translate(37.5975 393.839219)scale(0.1 -0.1)">
       <use xlink:href="#DejaVuSans-48"/>
      </g>
     </g>
    </g>
    <g id="ytick_2">
     <g id="line2d_8">
      <g>
       <use style="stroke:#000000;stroke-width:0.8;" x="50.96" xlink:href="#m70a7968503" y="341.555957"/>
      </g>
     </g>
     <g id="text_9">
      <!-- 25 -->
      <defs>
       <path d="M 10.796875 72.90625 
L 49.515625 72.90625 
L 49.515625 64.59375 
L 19.828125 64.59375 
L 19.828125 46.734375 
Q 21.96875 47.46875 24.109375 47.828125 
Q 26.265625 48.1875 28.421875 48.1875 
Q 40.625 48.1875 47.75 41.5 
Q 54.890625 34.8125 54.890625 23.390625 
Q 54.890625 11.625 47.5625 5.09375 
Q 40.234375 -1.421875 26.90625 -1.421875 
Q 22.3125 -1.421875 17.546875 -0.640625 
Q 12.796875 0.140625 7.71875 1.703125 
L 7.71875 11.625 
Q 12.109375 9.234375 16.796875 8.0625 
Q 21.484375 6.890625 26.703125 6.890625 
Q 35.15625 6.890625 40.078125 11.328125 
Q 45.015625 15.765625 45.015625 23.390625 
Q 45.015625 31 40.078125 35.4375 
Q 35.15625 39.890625 26.703125 39.890625 
Q 22.75 39.890625 18.8125 39.015625 
Q 14.890625 38.140625 10.796875 36.28125 
z
" id="DejaVuSans-53"/>
      </defs>
      <g transform="translate(31.235 345.355176)scale(0.1 -0.1)">
       <use xlink:href="#DejaVuSans-50"/>
       <use x="63.623047" xlink:href="#DejaVuSans-53"/>
      </g>
     </g>
    </g>
    <g id="ytick_3">
     <g id="line2d_9">
      <g>
       <use style="stroke:#000000;stroke-width:0.8;" x="50.96" xlink:href="#m70a7968503" y="293.071915"/>
      </g>
     </g>
     <g id="text_10">
      <!-- 50 -->
      <g transform="translate(31.235 296.871134)scale(0.1 -0.1)">
       <use xlink:href="#DejaVuSans-53"/>
       <use x="63.623047" xlink:href="#DejaVuSans-48"/>
      </g>
     </g>
    </g>
    <g id="ytick_4">
     <g id="line2d_10">
      <g>
       <use style="stroke:#000000;stroke-width:0.8;" x="50.96" xlink:href="#m70a7968503" y="244.587872"/>
      </g>
     </g>
     <g id="text_11">
      <!-- 75 -->
      <defs>
       <path d="M 8.203125 72.90625 
L 55.078125 72.90625 
L 55.078125 68.703125 
L 28.609375 0 
L 18.3125 0 
L 43.21875 64.59375 
L 8.203125 64.59375 
z
" id="DejaVuSans-55"/>
      </defs>
      <g transform="translate(31.235 248.387091)scale(0.1 -0.1)">
       <use xlink:href="#DejaVuSans-55"/>
       <use x="63.623047" xlink:href="#DejaVuSans-53"/>
      </g>
     </g>
    </g>
    <g id="ytick_5">
     <g id="line2d_11">
      <g>
       <use style="stroke:#000000;stroke-width:0.8;" x="50.96" xlink:href="#m70a7968503" y="196.10383"/>
      </g>
     </g>
     <g id="text_12">
      <!-- 100 -->
      <g transform="translate(24.8725 199.903049)scale(0.1 -0.1)">
       <use xlink:href="#DejaVuSans-49"/>
       <use x="63.623047" xlink:href="#DejaVuSans-48"/>
       <use x="127.246094" xlink:href="#DejaVuSans-48"/>
      </g>
     </g>
    </g>
    <g id="ytick_6">
     <g id="line2d_12">
      <g>
       <use style="stroke:#000000;stroke-width:0.8;" x="50.96" xlink:href="#m70a7968503" y="147.619787"/>
      </g>
     </g>
     <g id="text_13">
      <!-- 125 -->
      <g transform="translate(24.8725 151.419006)scale(0.1 -0.1)">
       <use xlink:href="#DejaVuSans-49"/>
       <use x="63.623047" xlink:href="#DejaVuSans-50"/>
       <use x="127.246094" xlink:href="#DejaVuSans-53"/>
      </g>
     </g>
    </g>
    <g id="ytick_7">
     <g id="line2d_13">
      <g>
       <use style="stroke:#000000;stroke-width:0.8;" x="50.96" xlink:href="#m70a7968503" y="99.135745"/>
      </g>
     </g>
     <g id="text_14">
      <!-- 150 -->
      <g transform="translate(24.8725 102.934963)scale(0.1 -0.1)">
       <use xlink:href="#DejaVuSans-49"/>
       <use x="63.623047" xlink:href="#DejaVuSans-53"/>
       <use x="127.246094" xlink:href="#DejaVuSans-48"/>
      </g>
     </g>
    </g>
    <g id="ytick_8">
     <g id="line2d_14">
      <g>
       <use style="stroke:#000000;stroke-width:0.8;" x="50.96" xlink:href="#m70a7968503" y="50.651702"/>
      </g>
     </g>
     <g id="text_15">
      <!-- 175 -->
      <g transform="translate(24.8725 54.450921)scale(0.1 -0.1)">
       <use xlink:href="#DejaVuSans-49"/>
       <use x="63.623047" xlink:href="#DejaVuSans-55"/>
       <use x="127.246094" xlink:href="#DejaVuSans-53"/>
      </g>
     </g>
    </g>
    <g id="text_16">
     <!-- Y -->
     <defs>
      <path d="M -0.203125 72.90625 
L 10.40625 72.90625 
L 30.609375 42.921875 
L 50.6875 72.90625 
L 61.28125 72.90625 
L 35.5 34.71875 
L 35.5 0 
L 25.59375 0 
L 25.59375 34.71875 
z
" id="DejaVuSans-89"/>
     </defs>
     <g transform="translate(18.792813 210.793906)rotate(-90)scale(0.1 -0.1)">
      <use xlink:href="#DejaVuSans-89"/>
     </g>
    </g>
   </g>
   <g id="patch_3">
    <path d="M 50.96 390.04 
L 50.96 25.44 
" style="fill:none;stroke:#000000;stroke-linecap:square;stroke-linejoin:miter;stroke-width:0.8;"/>
   </g>
   <g id="patch_4">
    <path d="M 404.752 390.04 
L 404.752 25.44 
" style="fill:none;stroke:#000000;stroke-linecap:square;stroke-linejoin:miter;stroke-width:0.8;"/>
   </g>
   <g id="patch_5">
    <path d="M 50.96 390.04 
L 404.752 390.04 
" style="fill:none;stroke:#000000;stroke-linecap:square;stroke-linejoin:miter;stroke-width:0.8;"/>
   </g>
   <g id="patch_6">
    <path d="M 50.96 25.44 
L 404.752 25.44 
" style="fill:none;stroke:#000000;stroke-linecap:square;stroke-linejoin:miter;stroke-width:0.8;"/>
   </g>
   <g id="text_17">
    <!-- Contour plot output -->
    <defs>
     <path d="M 64.40625 67.28125 
L 64.40625 56.890625 
Q 59.421875 61.53125 53.78125 63.8125 
Q 48.140625 66.109375 41.796875 66.109375 
Q 29.296875 66.109375 22.65625 58.46875 
Q 16.015625 50.828125 16.015625 36.375 
Q 16.015625 21.96875 22.65625 14.328125 
Q 29.296875 6.6875 41.796875 6.6875 
Q 48.140625 6.6875 53.78125 8.984375 
Q 59.421875 11.28125 64.40625 15.921875 
L 64.40625 5.609375 
Q 59.234375 2.09375 53.4375 0.328125 
Q 47.65625 -1.421875 41.21875 -1.421875 
Q 24.65625 -1.421875 15.125 8.703125 
Q 5.609375 18.84375 5.609375 36.375 
Q 5.609375 53.953125 15.125 64.078125 
Q 24.65625 74.21875 41.21875 74.21875 
Q 47.75 74.21875 53.53125 72.484375 
Q 59.328125 70.75 64.40625 67.28125 
z
" id="DejaVuSans-67"/>
     <path d="M 30.609375 48.390625 
Q 23.390625 48.390625 19.1875 42.75 
Q 14.984375 37.109375 14.984375 27.296875 
Q 14.984375 17.484375 19.15625 11.84375 
Q 23.34375 6.203125 30.609375 6.203125 
Q 37.796875 6.203125 41.984375 11.859375 
Q 46.1875 17.53125 46.1875 27.296875 
Q 46.1875 37.015625 41.984375 42.703125 
Q 37.796875 48.390625 30.609375 48.390625 
z
M 30.609375 56 
Q 42.328125 56 49.015625 48.375 
Q 55.71875 40.765625 55.71875 27.296875 
Q 55.71875 13.875 49.015625 6.21875 
Q 42.328125 -1.421875 30.609375 -1.421875 
Q 18.84375 -1.421875 12.171875 6.21875 
Q 5.515625 13.875 5.515625 27.296875 
Q 5.515625 40.765625 12.171875 48.375 
Q 18.84375 56 30.609375 56 
z
" id="DejaVuSans-111"/>
     <path d="M 54.890625 33.015625 
L 54.890625 0 
L 45.90625 0 
L 45.90625 32.71875 
Q 45.90625 40.484375 42.875 44.328125 
Q 39.84375 48.1875 33.796875 48.1875 
Q 26.515625 48.1875 22.3125 43.546875 
Q 18.109375 38.921875 18.109375 30.90625 
L 18.109375 0 
L 9.078125 0 
L 9.078125 54.6875 
L 18.109375 54.6875 
L 18.109375 46.1875 
Q 21.34375 51.125 25.703125 53.5625 
Q 30.078125 56 35.796875 56 
Q 45.21875 56 50.046875 50.171875 
Q 54.890625 44.34375 54.890625 33.015625 
z
" id="DejaVuSans-110"/>
     <path d="M 18.3125 70.21875 
L 18.3125 54.6875 
L 36.8125 54.6875 
L 36.8125 47.703125 
L 18.3125 47.703125 
L 18.3125 18.015625 
Q 18.3125 11.328125 20.140625 9.421875 
Q 21.96875 7.515625 27.59375 7.515625 
L 36.8125 7.515625 
L 36.8125 0 
L 27.59375 0 
Q 17.1875 0 13.234375 3.875 
Q 9.28125 7.765625 9.28125 18.015625 
L 9.28125 47.703125 
L 2.6875 47.703125 
L 2.6875 54.6875 
L 9.28125 54.6875 
L 9.28125 70.21875 
z
" id="DejaVuSans-116"/>
     <path d="M 8.5 21.578125 
L 8.5 54.6875 
L 17.484375 54.6875 
L 17.484375 21.921875 
Q 17.484375 14.15625 20.5 10.265625 
Q 23.53125 6.390625 29.59375 6.390625 
Q 36.859375 6.390625 41.078125 11.03125 
Q 45.3125 15.671875 45.3125 23.6875 
L 45.3125 54.6875 
L 54.296875 54.6875 
L 54.296875 0 
L 45.3125 0 
L 45.3125 8.40625 
Q 42.046875 3.421875 37.71875 1 
Q 33.40625 -1.421875 27.6875 -1.421875 
Q 18.265625 -1.421875 13.375 4.4375 
Q 8.5 10.296875 8.5 21.578125 
z
M 31.109375 56 
z
" id="DejaVuSans-117"/>
     <path d="M 41.109375 46.296875 
Q 39.59375 47.171875 37.8125 47.578125 
Q 36.03125 48 33.890625 48 
Q 26.265625 48 22.1875 43.046875 
Q 18.109375 38.09375 18.109375 28.8125 
L 18.109375 0 
L 9.078125 0 
L 9.078125 54.6875 
L 18.109375 54.6875 
L 18.109375 46.1875 
Q 20.953125 51.171875 25.484375 53.578125 
Q 30.03125 56 36.53125 56 
Q 37.453125 56 38.578125 55.875 
Q 39.703125 55.765625 41.0625 55.515625 
z
" id="DejaVuSans-114"/>
     <path id="DejaVuSans-32"/>
     <path d="M 18.109375 8.203125 
L 18.109375 -20.796875 
L 9.078125 -20.796875 
L 9.078125 54.6875 
L 18.109375 54.6875 
L 18.109375 46.390625 
Q 20.953125 51.265625 25.265625 53.625 
Q 29.59375 56 35.59375 56 
Q 45.5625 56 51.78125 48.09375 
Q 58.015625 40.1875 58.015625 27.296875 
Q 58.015625 14.40625 51.78125 6.484375 
Q 45.5625 -1.421875 35.59375 -1.421875 
Q 29.59375 -1.421875 25.265625 0.953125 
Q 20.953125 3.328125 18.109375 8.203125 
z
M 48.6875 27.296875 
Q 48.6875 37.203125 44.609375 42.84375 
Q 40.53125 48.484375 33.40625 48.484375 
Q 26.265625 48.484375 22.1875 42.84375 
Q 18.109375 37.203125 18.109375 27.296875 
Q 18.109375 17.390625 22.1875 11.75 
Q 26.265625 6.109375 33.40625 6.109375 
Q 40.53125 6.109375 44.609375 11.75 
Q 48.6875 17.390625 48.6875 27.296875 
z
" id="DejaVuSans-112"/>
     <path d="M 9.421875 75.984375 
L 18.40625 75.984375 
L 18.40625 0 
L 9.421875 0 
z
" id="DejaVuSans-108"/>
    </defs>
    <g transform="translate(168.79725 19.44)scale(0.12 -0.12)">
     <use xlink:href="#DejaVuSans-67"/>
     <use x="69.824219" xlink:href="#DejaVuSans-111"/>
     <use x="131.005859" xlink:href="#DejaVuSans-110"/>
     <use x="194.384766" xlink:href="#DejaVuSans-116"/>
     <use x="233.59375" xlink:href="#DejaVuSans-111"/>
     <use x="294.775391" xlink:href="#DejaVuSans-117"/>
     <use x="358.154297" xlink:href="#DejaVuSans-114"/>
     <use x="399.267578" xlink:href="#DejaVuSans-32"/>
     <use x="431.054688" xlink:href="#DejaVuSans-112"/>
     <use x="494.53125" xlink:href="#DejaVuSans-108"/>
     <use x="522.314453" xlink:href="#DejaVuSans-111"/>
     <use x="583.496094" xlink:href="#DejaVuSans-116"/>
     <use x="622.705078" xlink:href="#DejaVuSans-32"/>
     <use x="654.492188" xlink:href="#DejaVuSans-111"/>
     <use x="715.673828" xlink:href="#DejaVuSans-117"/>
     <use x="779.052734" xlink:href="#DejaVuSans-116"/>
     <use x="818.261719" xlink:href="#DejaVuSans-112"/>
     <use x="881.738281" xlink:href="#DejaVuSans-117"/>
     <use x="945.117188" xlink:href="#DejaVuSans-116"/>
    </g>
   </g>
   <g id="legend_1">
    <g id="patch_7">
     <path d="M 393.752 38.44 
L 397.752 38.44 
Q 399.752 38.44 399.752 36.44 
L 399.752 32.44 
Q 399.752 30.44 397.752 30.44 
L 393.752 30.44 
Q 391.752 30.44 391.752 32.44 
L 391.752 36.44 
Q 391.752 38.44 393.752 38.44 
z
" style="fill:#ffffff;opacity:0.8;stroke:#cccccc;stroke-linejoin:miter;"/>
    </g>
   </g>
  </g>
  <g id="axes_2">
   <g id="patch_8">
    <path clip-path="url(#p3801fecde3)" d="M 426.864 390.04 
L 426.864 337.954286 
L 426.864 77.525714 
L 426.864 25.44 
L 445.094 25.44 
L 445.094 77.525714 
L 445.094 337.954286 
L 445.094 390.04 
z
" style="fill:#ffffff;stroke:#ffffff;stroke-linejoin:miter;stroke-width:0.01;"/>
   </g>
   <g id="QuadMesh_1">
    <path clip-path="url(#p3801fecde3)" d="M 426.864 390.04 
L 445.094 390.04 
L 445.094 337.954286 
L 426.864 337.954286 
L 426.864 390.04 
" style="fill:#481b6d;"/>
    <path clip-path="url(#p3801fecde3)" d="M 426.864 337.954286 
L 445.094 337.954286 
L 445.094 285.868571 
L 426.864 285.868571 
L 426.864 337.954286 
" style="fill:#3f4788;"/>
    <path clip-path="url(#p3801fecde3)" d="M 426.864 285.868571 
L 445.094 285.868571 
L 445.094 233.782857 
L 426.864 233.782857 
L 426.864 285.868571 
" style="fill:#2e6e8e;"/>
    <path clip-path="url(#p3801fecde3)" d="M 426.864 233.782857 
L 445.094 233.782857 
L 445.094 181.697143 
L 426.864 181.697143 
L 426.864 233.782857 
" style="fill:#21918c;"/>
    <path clip-path="url(#p3801fecde3)" d="M 426.864 181.697143 
L 445.094 181.697143 
L 445.094 129.611429 
L 426.864 129.611429 
L 426.864 181.697143 
" style="fill:#2db27d;"/>
    <path clip-path="url(#p3801fecde3)" d="M 426.864 129.611429 
L 445.094 129.611429 
L 445.094 77.525714 
L 426.864 77.525714 
L 426.864 129.611429 
" style="fill:#73d056;"/>
    <path clip-path="url(#p3801fecde3)" d="M 426.864 77.525714 
L 445.094 77.525714 
L 445.094 25.44 
L 426.864 25.44 
L 426.864 77.525714 
" style="fill:#d0e11c;"/>
   </g>
   <g id="matplotlib.axis_3"/>
   <g id="matplotlib.axis_4">
    <g id="ytick_9">
     <g id="line2d_15">
      <defs>
       <path d="M 0 0 
L 3.5 0 
" id="m8eb32c72b7" style="stroke:#000000;stroke-width:0.8;"/>
      </defs>
      <g>
       <use style="stroke:#000000;stroke-width:0.8;" x="445.094" xlink:href="#m8eb32c72b7" y="390.04"/>
      </g>
     </g>
     <g id="text_18">
      <!-- 30 -->
      <defs>
       <path d="M 10.59375 35.5 
L 73.1875 35.5 
L 73.1875 27.203125 
L 10.59375 27.203125 
z
" id="DejaVuSans-8722"/>
       <path d="M 40.578125 39.3125 
Q 47.65625 37.796875 51.625 33 
Q 55.609375 28.21875 55.609375 21.1875 
Q 55.609375 10.40625 48.1875 4.484375 
Q 40.765625 -1.421875 27.09375 -1.421875 
Q 22.515625 -1.421875 17.65625 -0.515625 
Q 12.796875 0.390625 7.625 2.203125 
L 7.625 11.71875 
Q 11.71875 9.328125 16.59375 8.109375 
Q 21.484375 6.890625 26.8125 6.890625 
Q 36.078125 6.890625 40.9375 10.546875 
Q 45.796875 14.203125 45.796875 21.1875 
Q 45.796875 27.640625 41.28125 31.265625 
Q 36.765625 34.90625 28.71875 34.90625 
L 20.21875 34.90625 
L 20.21875 43.015625 
L 29.109375 43.015625 
Q 36.375 43.015625 40.234375 45.921875 
Q 44.09375 48.828125 44.09375 54.296875 
Q 44.09375 59.90625 40.109375 62.90625 
Q 36.140625 65.921875 28.71875 65.921875 
Q 24.65625 65.921875 20.015625 65.03125 
Q 15.375 64.15625 9.8125 62.3125 
L 9.8125 71.09375 
Q 15.4375 72.65625 20.34375 73.4375 
Q 25.25 74.21875 29.59375 74.21875 
Q 40.828125 74.21875 47.359375 69.109375 
Q 53.90625 64.015625 53.90625 55.328125 
Q 53.90625 49.265625 50.4375 45.09375 
Q 46.96875 40.921875 40.578125 39.3125 
z
" id="DejaVuSans-51"/>
      </defs>
      <g transform="translate(452.094 393.839219)scale(0.1 -0.1)">
       <use xlink:href="#DejaVuSans-8722"/>
       <use x="83.789062" xlink:href="#DejaVuSans-51"/>
       <use x="147.412109" xlink:href="#DejaVuSans-48"/>
      </g>
     </g>
    </g>
    <g id="ytick_10">
     <g id="line2d_16">
      <g>
       <use style="stroke:#000000;stroke-width:0.8;" x="445.094" xlink:href="#m8eb32c72b7" y="337.954286"/>
      </g>
     </g>
     <g id="text_19">
      <!-- 20 -->
      <g transform="translate(452.094 341.753504)scale(0.1 -0.1)">
       <use xlink:href="#DejaVuSans-8722"/>
       <use x="83.789062" xlink:href="#DejaVuSans-50"/>
       <use x="147.412109" xlink:href="#DejaVuSans-48"/>
      </g>
     </g>
    </g>
    <g id="ytick_11">
     <g id="line2d_17">
      <g>
       <use style="stroke:#000000;stroke-width:0.8;" x="445.094" xlink:href="#m8eb32c72b7" y="285.868571"/>
      </g>
     </g>
     <g id="text_20">
      <!-- 10 -->
      <g transform="translate(452.094 289.66779)scale(0.1 -0.1)">
       <use xlink:href="#DejaVuSans-8722"/>
       <use x="83.789062" xlink:href="#DejaVuSans-49"/>
       <use x="147.412109" xlink:href="#DejaVuSans-48"/>
      </g>
     </g>
    </g>
    <g id="ytick_12">
     <g id="line2d_18">
      <g>
       <use style="stroke:#000000;stroke-width:0.8;" x="445.094" xlink:href="#m8eb32c72b7" y="233.782857"/>
      </g>
     </g>
     <g id="text_21">
      <!-- 0 -->
      <g transform="translate(452.094 237.582076)scale(0.1 -0.1)">
       <use xlink:href="#DejaVuSans-48"/>
      </g>
     </g>
    </g>
    <g id="ytick_13">
     <g id="line2d_19">
      <g>
       <use style="stroke:#000000;stroke-width:0.8;" x="445.094" xlink:href="#m8eb32c72b7" y="181.697143"/>
      </g>
     </g>
     <g id="text_22">
      <!-- 10 -->
      <g transform="translate(452.094 185.496362)scale(0.1 -0.1)">
       <use xlink:href="#DejaVuSans-49"/>
       <use x="63.623047" xlink:href="#DejaVuSans-48"/>
      </g>
     </g>
    </g>
    <g id="ytick_14">
     <g id="line2d_20">
      <g>
       <use style="stroke:#000000;stroke-width:0.8;" x="445.094" xlink:href="#m8eb32c72b7" y="129.611429"/>
      </g>
     </g>
     <g id="text_23">
      <!-- 20 -->
      <g transform="translate(452.094 133.410647)scale(0.1 -0.1)">
       <use xlink:href="#DejaVuSans-50"/>
       <use x="63.623047" xlink:href="#DejaVuSans-48"/>
      </g>
     </g>
    </g>
    <g id="ytick_15">
     <g id="line2d_21">
      <g>
       <use style="stroke:#000000;stroke-width:0.8;" x="445.094" xlink:href="#m8eb32c72b7" y="77.525714"/>
      </g>
     </g>
     <g id="text_24">
      <!-- 30 -->
      <g transform="translate(452.094 81.324933)scale(0.1 -0.1)">
       <use xlink:href="#DejaVuSans-51"/>
       <use x="63.623047" xlink:href="#DejaVuSans-48"/>
      </g>
     </g>
    </g>
    <g id="ytick_16">
     <g id="line2d_22">
      <g>
       <use style="stroke:#000000;stroke-width:0.8;" x="445.094" xlink:href="#m8eb32c72b7" y="25.44"/>
      </g>
     </g>
     <g id="text_25">
      <!-- 40 -->
      <g transform="translate(452.094 29.239219)scale(0.1 -0.1)">
       <use xlink:href="#DejaVuSans-52"/>
       <use x="63.623047" xlink:href="#DejaVuSans-48"/>
      </g>
     </g>
    </g>
   </g>
   <g id="patch_9">
    <path d="M 426.864 390.04 
L 426.864 337.954286 
L 426.864 77.525714 
L 426.864 25.44 
L 445.094 25.44 
L 445.094 77.525714 
L 445.094 337.954286 
L 445.094 390.04 
z
" style="fill:none;stroke:#000000;stroke-linejoin:miter;stroke-width:0.8;"/>
   </g>
  </g>
 </g>
 <defs>
  <clipPath id="p8da59ed669">
   <rect height="364.6" width="353.792" x="50.96" y="25.44"/>
  </clipPath>
  <clipPath id="p3801fecde3">
   <rect height="364.6" width="18.23" x="426.864" y="25.44"/>
  </clipPath>
 </defs>
</svg>
