<?xml version="1.0" encoding="utf-8" standalone="no"?>
<!DOCTYPE svg PUBLIC "-//W3C//DTD SVG 1.1//EN"
  "http://www.w3.org/Graphics/SVG/1.1/DTD/svg11.dtd">
<!-- Created with matplotlib (https://matplotlib.org/) -->
<svg height="432pt" version="1.1" viewBox="0 0 504 432" width="504pt" xmlns="http://www.w3.org/2000/svg" xmlns:xlink="http://www.w3.org/1999/xlink">
 <defs>
  <style type="text/css">
*{stroke-linecap:butt;stroke-linejoin:round;}
  </style>
 </defs>
 <g id="figure_1">
  <g id="patch_1">
   <path d="M 0 432 
L 504 432 
L 504 0 
L 0 0 
z
" style="fill:#ffffff;"/>
  </g>
  <g id="axes_1">
   <g id="patch_2">
    <path d="M 44.57 390.04 
L 403.474 390.04 
L 403.474 25.44 
L 44.57 25.44 
z
" style="fill:#ffffff;"/>
   </g>
   <g id="PathCollection_1">
    <path clip-path="url(#pe7987af261)" d="M 89.433 50.037046 
L 98.4056 50.078689 
L 107.3782 50.091866 
L 115.591954 49.746667 
L 107.446753 44.885333 
L 107.3782 44.882557 
L 98.4056 44.694955 
L 89.433 44.660215 
L 84.899072 44.885333 
L 85.132223 49.746667 
z
" style="fill:#481b6d;"/>
    <path clip-path="url(#pe7987af261)" d="M 53.5426 46.169666 
L 54.789774 44.885333 
L 53.5426 44.737095 
L 44.57 44.822778 
L 44.57 44.885333 
L 44.57 46.321994 
z
" style="fill:#481b6d;"/>
    <path clip-path="url(#pe7987af261)" d="M 215.0494 44.921352 
L 216.00784 44.885333 
L 215.0494 44.86321 
L 212.868903 44.885333 
z
" style="fill:#481b6d;"/>
    <path clip-path="url(#pe7987af261)" d="M 349.6384 45.282109 
L 356.882424 44.885333 
L 349.6384 44.388159 
L 344.967342 44.885333 
z
" style="fill:#481b6d;"/>
   </g>
   <g id="PathCollection_2">
    <path clip-path="url(#pe7987af261)" d="M 322.7206 84.063024 
L 331.6932 84.78175 
L 340.6658 85.37645 
L 349.6384 86.062574 
L 358.611 86.156201 
L 367.5836 86.060607 
L 376.5562 85.296263 
L 381.726093 83.776 
L 376.5562 83.262627 
L 367.5836 81.752248 
L 360.946608 78.914667 
L 358.611 78.588442 
L 349.6384 77.08465 
L 340.6658 75.271735 
L 335.668588 74.053333 
L 331.6932 73.68115 
L 322.7206 73.459056 
L 313.748 73.563675 
L 304.7754 73.939494 
L 302.097645 74.053333 
L 295.8028 75.273516 
L 286.8302 76.037798 
L 277.8576 75.987696 
L 268.885 75.060999 
L 264.157117 74.053333 
L 259.9124 73.917618 
L 250.9398 73.656451 
L 241.9672 73.202839 
L 232.9946 72.340116 
L 224.022 70.935646 
L 215.0494 69.594096 
L 210.182424 69.192 
L 206.0768 69.115226 
L 197.1042 69.031515 
L 188.1316 69.069311 
L 179.159 69.183452 
L 170.1864 69.125617 
L 161.2138 68.814925 
L 152.2412 68.617878 
L 143.2686 68.53649 
L 134.296 68.35174 
L 125.3234 67.974593 
L 116.3508 67.57374 
L 107.3782 67.339026 
L 98.4056 67.028722 
L 89.433 66.962949 
L 80.4604 66.921704 
L 71.4878 66.676795 
L 63.925365 64.330667 
L 62.5152 64.18812 
L 53.5426 59.779387 
L 52.710228 59.469333 
L 44.57 58.927346 
L 44.57 59.469333 
L 44.57 64.330667 
L 44.57 64.352391 
L 53.5426 67.50963 
L 58.398457 69.192 
L 62.5152 70.902725 
L 71.4878 72.263669 
L 80.4604 73.076853 
L 89.433 74.025247 
L 90.012873 74.053333 
L 98.4056 74.397797 
L 107.3782 74.638261 
L 116.3508 74.951969 
L 125.3234 75.241748 
L 134.296 75.518963 
L 143.2686 75.863741 
L 152.2412 76.205198 
L 161.2138 76.362128 
L 170.1864 76.450245 
L 179.159 76.676042 
L 188.1316 77.058609 
L 197.1042 77.497063 
L 206.0768 77.952474 
L 215.0494 78.508152 
L 221.74149 78.914667 
L 224.022 79.02431 
L 232.9946 79.368308 
L 241.9672 79.595397 
L 250.9398 79.925102 
L 259.9124 80.292353 
L 268.885 80.549324 
L 277.8576 80.786914 
L 286.8302 81.123314 
L 295.8028 81.706706 
L 304.7754 82.460764 
L 313.748 83.227077 
L 318.997082 83.776 
z
" style="fill:#3f4788;"/>
    <path clip-path="url(#pe7987af261)" d="M 403.474 55.052533 
L 403.474 54.608 
L 403.474 49.746667 
L 403.474 44.885333 
L 403.474 42.947623 
L 394.5014 43.08681 
L 385.5288 42.843555 
L 376.5562 41.977186 
L 367.5836 40.813229 
L 362.81838 40.024 
L 358.611 39.687813 
L 349.6384 39.151526 
L 340.6658 39.159728 
L 331.6932 39.367885 
L 322.7206 39.54699 
L 313.748 39.670496 
L 304.7754 39.972632 
L 302.580139 40.024 
L 295.8028 40.429204 
L 286.8302 40.409568 
L 277.8576 40.079059 
L 268.885 40.215985 
L 259.9124 40.63121 
L 250.9398 40.900217 
L 241.9672 41.1127 
L 232.9946 40.914082 
L 224.022 40.38599 
L 215.0494 40.264369 
L 206.0768 40.487505 
L 197.1042 40.838597 
L 188.1316 41.071673 
L 179.159 41.471623 
L 170.1864 41.664257 
L 161.2138 41.669767 
L 152.2412 41.552438 
L 143.2686 41.517205 
L 134.296 41.671834 
L 125.3234 41.894673 
L 116.3508 41.968537 
L 107.3782 41.874125 
L 98.4056 41.75357 
L 89.433 41.57262 
L 80.4604 41.509858 
L 71.4878 41.475553 
L 62.5152 41.028873 
L 53.5426 40.217183 
L 44.57 40.082865 
L 44.57 44.822778 
L 53.5426 44.737095 
L 54.789774 44.885333 
L 53.5426 46.169666 
L 44.57 46.321994 
L 44.57 49.746667 
L 44.57 50.557699 
L 53.5426 50.521153 
L 62.5152 50.152588 
L 71.4878 50.336864 
L 80.4604 50.951678 
L 89.433 51.317893 
L 98.4056 51.413409 
L 107.3782 51.363566 
L 116.3508 51.170304 
L 125.3234 51.004267 
L 134.296 50.862906 
L 143.2686 50.858891 
L 152.2412 50.757134 
L 161.2138 50.642973 
L 170.1864 50.56171 
L 179.159 50.445078 
L 188.1316 50.521959 
L 197.1042 50.524065 
L 206.0768 50.506002 
L 215.0494 50.370178 
L 224.022 50.269778 
L 232.9946 50.232384 
L 241.9672 50.205356 
L 250.9398 50.217892 
L 259.9124 50.220133 
L 268.885 50.336113 
L 277.8576 50.491554 
L 286.8302 50.443695 
L 295.8028 49.982603 
L 299.223903 49.746667 
L 304.7754 48.98216 
L 313.748 48.483868 
L 322.7206 48.199267 
L 331.6932 48.53292 
L 340.6658 49.564644 
L 342.033202 49.746667 
L 349.6384 50.301709 
L 358.611 50.74963 
L 367.5836 51.118584 
L 376.5562 51.660473 
L 385.5288 52.620688 
L 394.5014 54.194254 
L 397.682104 54.608 
z
M 85.132223 49.746667 
L 84.899072 44.885333 
L 89.433 44.660215 
L 98.4056 44.694955 
L 107.3782 44.882557 
L 107.446753 44.885333 
L 115.591954 49.746667 
L 107.3782 50.091866 
L 98.4056 50.078689 
L 89.433 50.037046 
z
M 212.868903 44.885333 
L 215.0494 44.86321 
L 216.00784 44.885333 
L 215.0494 44.921352 
z
M 344.967342 44.885333 
L 349.6384 44.388159 
L 356.882424 44.885333 
L 349.6384 45.282109 
z
" style="fill:#3f4788;"/>
   </g>
   <g id="PathCollection_3">
    <path clip-path="url(#pe7987af261)" d="M 53.5426 390.04 
L 62.5152 390.04 
L 71.4878 390.04 
L 80.4604 390.04 
L 89.433 390.04 
L 98.4056 390.04 
L 107.3782 390.04 
L 116.3508 390.04 
L 125.3234 390.04 
L 134.296 390.04 
L 143.2686 390.04 
L 152.2412 390.04 
L 161.2138 390.04 
L 170.1864 390.04 
L 179.159 390.04 
L 188.1316 390.04 
L 197.1042 390.04 
L 206.0768 390.04 
L 215.0494 390.04 
L 224.022 390.04 
L 232.9946 390.04 
L 241.9672 390.04 
L 250.9398 390.04 
L 259.9124 390.04 
L 268.885 390.04 
L 277.8576 390.04 
L 286.8302 390.04 
L 295.8028 390.04 
L 304.7754 390.04 
L 313.748 390.04 
L 322.7206 390.04 
L 331.6932 390.04 
L 340.6658 390.04 
L 349.6384 390.04 
L 358.611 390.04 
L 367.5836 390.04 
L 376.5562 390.04 
L 385.5288 390.04 
L 394.5014 390.04 
L 403.474 390.04 
L 403.474 385.178667 
L 403.474 380.317333 
L 403.474 375.456 
L 403.474 370.594667 
L 403.474 365.733333 
L 403.474 360.872 
L 403.474 356.010667 
L 403.474 351.149333 
L 403.474 346.288 
L 403.474 341.426667 
L 403.474 336.565333 
L 403.474 331.704 
L 403.474 326.842667 
L 403.474 321.981333 
L 403.474 317.12 
L 403.474 312.258667 
L 403.474 307.397333 
L 403.474 302.536 
L 403.474 297.674667 
L 403.474 292.813333 
L 403.474 287.952 
L 403.474 283.090667 
L 403.474 278.229333 
L 403.474 273.368 
L 403.474 268.506667 
L 403.474 263.645333 
L 403.474 258.784 
L 403.474 253.922667 
L 403.474 249.061333 
L 403.474 244.2 
L 403.474 239.338667 
L 403.474 234.477333 
L 403.474 229.616 
L 403.474 224.754667 
L 403.474 219.893333 
L 403.474 215.032 
L 403.474 210.170667 
L 403.474 205.309333 
L 403.474 200.448 
L 403.474 195.586667 
L 403.474 190.725333 
L 403.474 185.864 
L 403.474 181.002667 
L 403.474 176.141333 
L 403.474 171.28 
L 403.474 166.418667 
L 403.474 161.557333 
L 403.474 156.696 
L 403.474 151.834667 
L 403.474 146.973333 
L 403.474 142.112 
L 403.474 137.250667 
L 403.474 132.389333 
L 403.474 127.528 
L 403.474 122.666667 
L 403.474 117.805333 
L 403.474 112.944 
L 403.474 108.082667 
L 403.474 103.221333 
L 403.474 98.36 
L 403.474 93.498667 
L 403.474 88.637333 
L 403.474 83.776 
L 403.474 78.914667 
L 403.474 77.589136 
L 394.5014 77.214991 
L 385.5288 76.452289 
L 376.5562 75.523774 
L 367.5836 74.241707 
L 366.531854 74.053333 
L 358.611 73.029466 
L 349.6384 71.803393 
L 340.6658 70.707321 
L 331.6932 69.840411 
L 325.168489 69.192 
L 322.7206 68.983293 
L 313.748 68.751727 
L 304.7754 68.91565 
L 295.8028 69.134243 
L 292.696244 69.192 
L 286.8302 69.338031 
L 277.8576 69.306876 
L 274.301469 69.192 
L 268.885 69.066136 
L 259.9124 68.762839 
L 250.9398 68.357676 
L 241.9672 67.870319 
L 232.9946 67.241399 
L 224.022 66.671386 
L 215.0494 66.178074 
L 206.0768 65.889472 
L 197.1042 65.856363 
L 188.1316 65.925194 
L 179.159 66.028107 
L 170.1864 66.063812 
L 161.2138 65.917341 
L 152.2412 65.665624 
L 143.2686 65.589505 
L 134.296 65.303352 
L 125.3234 64.729815 
L 119.524349 64.330667 
L 116.3508 64.186237 
L 107.3782 63.944552 
L 98.4056 63.628174 
L 89.433 63.575005 
L 80.4604 63.474584 
L 71.4878 63.25193 
L 62.5152 62.32359 
L 56.951501 59.469333 
L 53.5426 58.505919 
L 44.57 58.034346 
L 44.57 58.927346 
L 52.710228 59.469333 
L 53.5426 59.779387 
L 62.5152 64.18812 
L 63.925365 64.330667 
L 71.4878 66.676795 
L 80.4604 66.921704 
L 89.433 66.962949 
L 98.4056 67.028722 
L 107.3782 67.339026 
L 116.3508 67.57374 
L 125.3234 67.974593 
L 134.296 68.35174 
L 143.2686 68.53649 
L 152.2412 68.617878 
L 161.2138 68.814925 
L 170.1864 69.125617 
L 179.159 69.183452 
L 188.1316 69.069311 
L 197.1042 69.031515 
L 206.0768 69.115226 
L 210.182424 69.192 
L 215.0494 69.594096 
L 224.022 70.935646 
L 232.9946 72.340116 
L 241.9672 73.202839 
L 250.9398 73.656451 
L 259.9124 73.917618 
L 264.157117 74.053333 
L 268.885 75.060999 
L 277.8576 75.987696 
L 286.8302 76.037798 
L 295.8028 75.273516 
L 302.097645 74.053333 
L 304.7754 73.939494 
L 313.748 73.563675 
L 322.7206 73.459056 
L 331.6932 73.68115 
L 335.668588 74.053333 
L 340.6658 75.271735 
L 349.6384 77.08465 
L 358.611 78.588442 
L 360.946608 78.914667 
L 367.5836 81.752248 
L 376.5562 83.262627 
L 381.726093 83.776 
L 376.5562 85.296263 
L 367.5836 86.060607 
L 358.611 86.156201 
L 349.6384 86.062574 
L 340.6658 85.37645 
L 331.6932 84.78175 
L 322.7206 84.063024 
L 318.997082 83.776 
L 313.748 83.227077 
L 304.7754 82.460764 
L 295.8028 81.706706 
L 286.8302 81.123314 
L 277.8576 80.786914 
L 268.885 80.549324 
L 259.9124 80.292353 
L 250.9398 79.925102 
L 241.9672 79.595397 
L 232.9946 79.368308 
L 224.022 79.02431 
L 221.74149 78.914667 
L 215.0494 78.508152 
L 206.0768 77.952474 
L 197.1042 77.497063 
L 188.1316 77.058609 
L 179.159 76.676042 
L 170.1864 76.450245 
L 161.2138 76.362128 
L 152.2412 76.205198 
L 143.2686 75.863741 
L 134.296 75.518963 
L 125.3234 75.241748 
L 116.3508 74.951969 
L 107.3782 74.638261 
L 98.4056 74.397797 
L 90.012873 74.053333 
L 89.433 74.025247 
L 80.4604 73.076853 
L 71.4878 72.263669 
L 62.5152 70.902725 
L 58.398457 69.192 
L 53.5426 67.50963 
L 44.57 64.352391 
L 44.57 69.192 
L 44.57 74.053333 
L 44.57 78.914667 
L 44.57 83.776 
L 44.57 88.637333 
L 44.57 93.498667 
L 44.57 98.36 
L 44.57 103.221333 
L 44.57 108.082667 
L 44.57 112.944 
L 44.57 117.805333 
L 44.57 122.666667 
L 44.57 127.528 
L 44.57 132.389333 
L 44.57 137.250667 
L 44.57 142.112 
L 44.57 146.973333 
L 44.57 151.834667 
L 44.57 156.696 
L 44.57 161.557333 
L 44.57 166.418667 
L 44.57 171.28 
L 44.57 176.141333 
L 44.57 181.002667 
L 44.57 185.864 
L 44.57 190.725333 
L 44.57 195.586667 
L 44.57 200.448 
L 44.57 205.309333 
L 44.57 210.170667 
L 44.57 215.032 
L 44.57 219.893333 
L 44.57 224.754667 
L 44.57 229.616 
L 44.57 234.477333 
L 44.57 239.338667 
L 44.57 244.2 
L 44.57 249.061333 
L 44.57 253.922667 
L 44.57 258.784 
L 44.57 263.645333 
L 44.57 268.506667 
L 44.57 273.368 
L 44.57 278.229333 
L 44.57 283.090667 
L 44.57 287.952 
L 44.57 292.813333 
L 44.57 297.674667 
L 44.57 302.536 
L 44.57 307.397333 
L 44.57 312.258667 
L 44.57 317.12 
L 44.57 321.981333 
L 44.57 326.842667 
L 44.57 331.704 
L 44.57 336.565333 
L 44.57 341.426667 
L 44.57 346.288 
L 44.57 351.149333 
L 44.57 356.010667 
L 44.57 360.872 
L 44.57 365.733333 
L 44.57 370.594667 
L 44.57 375.456 
L 44.57 380.317333 
L 44.57 385.178667 
L 44.57 390.04 
z
" style="fill:#2e6e8e;"/>
    <path clip-path="url(#pe7987af261)" d="M 367.5836 54.995692 
L 376.5562 56.181306 
L 385.5288 57.44677 
L 394.5014 58.620287 
L 403.474 59.206478 
L 403.474 55.052533 
L 397.682104 54.608 
L 394.5014 54.194254 
L 385.5288 52.620688 
L 376.5562 51.660473 
L 367.5836 51.118584 
L 358.611 50.74963 
L 349.6384 50.301709 
L 342.033202 49.746667 
L 340.6658 49.564644 
L 331.6932 48.53292 
L 322.7206 48.199267 
L 313.748 48.483868 
L 304.7754 48.98216 
L 299.223903 49.746667 
L 295.8028 49.982603 
L 286.8302 50.443695 
L 277.8576 50.491554 
L 268.885 50.336113 
L 259.9124 50.220133 
L 250.9398 50.217892 
L 241.9672 50.205356 
L 232.9946 50.232384 
L 224.022 50.269778 
L 215.0494 50.370178 
L 206.0768 50.506002 
L 197.1042 50.524065 
L 188.1316 50.521959 
L 179.159 50.445078 
L 170.1864 50.56171 
L 161.2138 50.642973 
L 152.2412 50.757134 
L 143.2686 50.858891 
L 134.296 50.862906 
L 125.3234 51.004267 
L 116.3508 51.170304 
L 107.3782 51.363566 
L 98.4056 51.413409 
L 89.433 51.317893 
L 80.4604 50.951678 
L 71.4878 50.336864 
L 62.5152 50.152588 
L 53.5426 50.521153 
L 44.57 50.557699 
L 44.57 51.395075 
L 53.5426 51.373494 
L 62.5152 51.607023 
L 71.4878 52.008199 
L 80.4604 52.550405 
L 89.433 52.598739 
L 98.4056 52.748129 
L 107.3782 52.635267 
L 116.3508 52.630562 
L 125.3234 52.698436 
L 134.296 52.790486 
L 143.2686 52.815026 
L 152.2412 52.859457 
L 161.2138 52.851358 
L 170.1864 52.8261 
L 179.159 52.73833 
L 188.1316 52.54618 
L 197.1042 52.434363 
L 206.0768 52.277807 
L 215.0494 52.123861 
L 224.022 52.170111 
L 232.9946 52.422382 
L 241.9672 52.674718 
L 250.9398 52.877332 
L 259.9124 53.026342 
L 268.885 53.194363 
L 277.8576 53.35466 
L 286.8302 53.356194 
L 295.8028 52.959649 
L 304.7754 52.332699 
L 313.748 51.828592 
L 322.7206 51.546863 
L 331.6932 51.665748 
L 340.6658 52.228944 
L 349.6384 53.046397 
L 358.611 53.908851 
L 364.750044 54.608 
z
" style="fill:#2e6e8e;"/>
    <path clip-path="url(#pe7987af261)" d="M 53.5426 40.217183 
L 62.5152 41.028873 
L 71.4878 41.475553 
L 80.4604 41.509858 
L 89.433 41.57262 
L 98.4056 41.75357 
L 107.3782 41.874125 
L 116.3508 41.968537 
L 125.3234 41.894673 
L 134.296 41.671834 
L 143.2686 41.517205 
L 152.2412 41.552438 
L 161.2138 41.669767 
L 170.1864 41.664257 
L 179.159 41.471623 
L 188.1316 41.071673 
L 197.1042 40.838597 
L 206.0768 40.487505 
L 215.0494 40.264369 
L 224.022 40.38599 
L 232.9946 40.914082 
L 241.9672 41.1127 
L 250.9398 40.900217 
L 259.9124 40.63121 
L 268.885 40.215985 
L 277.8576 40.079059 
L 286.8302 40.409568 
L 295.8028 40.429204 
L 302.580139 40.024 
L 304.7754 39.972632 
L 313.748 39.670496 
L 322.7206 39.54699 
L 331.6932 39.367885 
L 340.6658 39.159728 
L 349.6384 39.151526 
L 358.611 39.687813 
L 362.81838 40.024 
L 367.5836 40.813229 
L 376.5562 41.977186 
L 385.5288 42.843555 
L 394.5014 43.08681 
L 403.474 42.947623 
L 403.474 40.024 
L 403.474 38.876784 
L 394.5014 38.965542 
L 385.5288 38.675704 
L 376.5562 38.115545 
L 367.5836 37.598358 
L 358.611 37.141886 
L 349.6384 36.841213 
L 340.6658 36.885996 
L 331.6932 36.974662 
L 322.7206 37.058296 
L 313.748 37.265813 
L 304.7754 37.553531 
L 295.8028 37.734862 
L 286.8302 37.705419 
L 277.8576 37.540143 
L 268.885 37.551943 
L 259.9124 37.757429 
L 250.9398 37.936485 
L 241.9672 38.057075 
L 232.9946 37.974451 
L 224.022 37.74159 
L 215.0494 37.69543 
L 206.0768 37.839719 
L 197.1042 37.993426 
L 188.1316 38.073331 
L 179.159 38.213001 
L 170.1864 38.322625 
L 161.2138 38.378384 
L 152.2412 38.364496 
L 143.2686 38.371218 
L 134.296 38.471406 
L 125.3234 38.718364 
L 116.3508 38.952115 
L 107.3782 39.054358 
L 98.4056 39.006407 
L 89.433 38.781313 
L 80.4604 38.511603 
L 71.4878 38.289686 
L 62.5152 38.056306 
L 53.5426 37.765655 
L 44.57 37.678827 
L 44.57 40.024 
L 44.57 40.082865 
z
" style="fill:#2e6e8e;"/>
   </g>
   <g id="PathCollection_4">
    <path clip-path="url(#pe7987af261)" d="M 367.5836 74.241707 
L 376.5562 75.523774 
L 385.5288 76.452289 
L 394.5014 77.214991 
L 403.474 77.589136 
L 403.474 74.053333 
L 403.474 72.011964 
L 394.5014 71.563418 
L 385.5288 71.056996 
L 376.5562 70.461835 
L 367.5836 69.806948 
L 360.39989 69.192 
L 358.611 68.996318 
L 349.6384 67.992953 
L 340.6658 67.133581 
L 331.6932 66.440551 
L 322.7206 65.688183 
L 313.748 65.341836 
L 304.7754 65.212083 
L 295.8028 65.280014 
L 286.8302 65.391868 
L 277.8576 65.429372 
L 268.885 65.37582 
L 259.9124 65.217743 
L 250.9398 64.908331 
L 241.9672 64.455305 
L 239.443209 64.330667 
L 232.9946 63.917286 
L 224.022 63.575129 
L 215.0494 63.147698 
L 206.0768 62.864723 
L 197.1042 62.829382 
L 188.1316 62.847991 
L 179.159 62.861795 
L 170.1864 62.962878 
L 161.2138 62.986499 
L 152.2412 62.834444 
L 143.2686 62.729792 
L 134.296 62.493406 
L 125.3234 62.270463 
L 116.3508 62.040779 
L 107.3782 61.836614 
L 98.4056 61.617371 
L 89.433 61.718794 
L 80.4604 61.576668 
L 71.4878 61.423575 
L 62.5152 60.459061 
L 60.58596 59.469333 
L 53.5426 57.478758 
L 44.57 57.141347 
L 44.57 58.034346 
L 53.5426 58.505919 
L 56.951501 59.469333 
L 62.5152 62.32359 
L 71.4878 63.25193 
L 80.4604 63.474584 
L 89.433 63.575005 
L 98.4056 63.628174 
L 107.3782 63.944552 
L 116.3508 64.186237 
L 119.524349 64.330667 
L 125.3234 64.729815 
L 134.296 65.303352 
L 143.2686 65.589505 
L 152.2412 65.665624 
L 161.2138 65.917341 
L 170.1864 66.063812 
L 179.159 66.028107 
L 188.1316 65.925194 
L 197.1042 65.856363 
L 206.0768 65.889472 
L 215.0494 66.178074 
L 224.022 66.671386 
L 232.9946 67.241399 
L 241.9672 67.870319 
L 250.9398 68.357676 
L 259.9124 68.762839 
L 268.885 69.066136 
L 274.301469 69.192 
L 277.8576 69.306876 
L 286.8302 69.338031 
L 292.696244 69.192 
L 295.8028 69.134243 
L 304.7754 68.91565 
L 313.748 68.751727 
L 322.7206 68.983293 
L 325.168489 69.192 
L 331.6932 69.840411 
L 340.6658 70.707321 
L 349.6384 71.803393 
L 358.611 73.029466 
L 366.531854 74.053333 
z
" style="fill:#21918c;"/>
    <path clip-path="url(#pe7987af261)" d="M 376.5562 60.873632 
L 385.5288 62.482809 
L 394.5014 63.486028 
L 403.474 63.892748 
L 403.474 59.469333 
L 403.474 59.206478 
L 394.5014 58.620287 
L 385.5288 57.44677 
L 376.5562 56.181306 
L 367.5836 54.995692 
L 364.750044 54.608 
L 358.611 53.908851 
L 349.6384 53.046397 
L 340.6658 52.228944 
L 331.6932 51.665748 
L 322.7206 51.546863 
L 313.748 51.828592 
L 304.7754 52.332699 
L 295.8028 52.959649 
L 286.8302 53.356194 
L 277.8576 53.35466 
L 268.885 53.194363 
L 259.9124 53.026342 
L 250.9398 52.877332 
L 241.9672 52.674718 
L 232.9946 52.422382 
L 224.022 52.170111 
L 215.0494 52.123861 
L 206.0768 52.277807 
L 197.1042 52.434363 
L 188.1316 52.54618 
L 179.159 52.73833 
L 170.1864 52.8261 
L 161.2138 52.851358 
L 152.2412 52.859457 
L 143.2686 52.815026 
L 134.296 52.790486 
L 125.3234 52.698436 
L 116.3508 52.630562 
L 107.3782 52.635267 
L 98.4056 52.748129 
L 89.433 52.598739 
L 80.4604 52.550405 
L 71.4878 52.008199 
L 62.5152 51.607023 
L 53.5426 51.373494 
L 44.57 51.395075 
L 44.57 52.232451 
L 53.5426 52.225836 
L 62.5152 53.061459 
L 71.4878 53.679534 
L 80.4604 54.149131 
L 89.433 53.879586 
L 98.4056 54.082849 
L 107.3782 53.906967 
L 116.3508 54.09082 
L 125.3234 54.392605 
L 131.515172 54.608 
L 134.296 54.843666 
L 143.2686 54.932364 
L 152.2412 55.192184 
L 161.2138 55.324263 
L 170.1864 55.391869 
L 179.159 55.325291 
L 187.311735 54.608 
L 188.1316 54.570401 
L 197.1042 54.34466 
L 206.0768 54.049611 
L 215.0494 53.877545 
L 224.022 54.070445 
L 232.931595 54.608 
L 232.9946 54.617673 
L 241.9672 55.580366 
L 250.9398 56.066199 
L 259.9124 56.369107 
L 268.885 56.636954 
L 277.8576 56.905301 
L 286.8302 56.999644 
L 295.8028 56.639675 
L 304.7754 55.768492 
L 313.748 54.673598 
L 314.616527 54.608 
L 322.7206 54.290162 
L 331.6932 54.298785 
L 337.128425 54.608 
L 340.6658 54.911667 
L 349.6384 56.145562 
L 358.611 57.395943 
L 367.5836 58.791161 
L 371.798826 59.469333 
z
" style="fill:#21918c;"/>
    <path clip-path="url(#pe7987af261)" d="M 53.5426 37.765655 
L 62.5152 38.056306 
L 71.4878 38.289686 
L 80.4604 38.511603 
L 89.433 38.781313 
L 98.4056 39.006407 
L 107.3782 39.054358 
L 116.3508 38.952115 
L 125.3234 38.718364 
L 134.296 38.471406 
L 143.2686 38.371218 
L 152.2412 38.364496 
L 161.2138 38.378384 
L 170.1864 38.322625 
L 179.159 38.213001 
L 188.1316 38.073331 
L 197.1042 37.993426 
L 206.0768 37.839719 
L 215.0494 37.69543 
L 224.022 37.74159 
L 232.9946 37.974451 
L 241.9672 38.057075 
L 250.9398 37.936485 
L 259.9124 37.757429 
L 268.885 37.551943 
L 277.8576 37.540143 
L 286.8302 37.705419 
L 295.8028 37.734862 
L 304.7754 37.553531 
L 313.748 37.265813 
L 322.7206 37.058296 
L 331.6932 36.974662 
L 340.6658 36.885996 
L 349.6384 36.841213 
L 358.611 37.141886 
L 367.5836 37.598358 
L 376.5562 38.115545 
L 385.5288 38.675704 
L 394.5014 38.965542 
L 403.474 38.876784 
L 403.474 35.388731 
L 394.5014 35.46002 
L 385.5288 35.326997 
L 380.487825 35.162667 
L 376.5562 34.972643 
L 367.5836 34.489748 
L 358.611 34.255444 
L 349.6384 34.147781 
L 340.6658 34.371304 
L 331.6932 34.262267 
L 322.7206 34.12914 
L 313.748 34.54473 
L 304.7754 35.104617 
L 303.076968 35.162667 
L 295.8028 35.285131 
L 286.8302 35.211795 
L 284.378941 35.162667 
L 277.8576 34.922811 
L 268.885 34.828746 
L 261.374609 35.162667 
L 259.9124 35.196159 
L 250.9398 35.410535 
L 241.9672 35.490101 
L 232.9946 35.42223 
L 224.022 35.268189 
L 215.0494 35.238441 
L 206.0768 35.40241 
L 197.1042 35.509453 
L 188.1316 35.539482 
L 179.159 35.571236 
L 170.1864 35.625762 
L 161.2138 35.677922 
L 152.2412 35.736009 
L 143.2686 35.750108 
L 134.296 35.831078 
L 125.3234 36.072617 
L 116.3508 36.35833 
L 107.3782 36.535937 
L 98.4056 36.536448 
L 89.433 36.288149 
L 80.4604 35.953542 
L 71.4878 35.730323 
L 62.5152 35.572994 
L 53.5426 35.406479 
L 44.57 35.304162 
L 44.57 37.678827 
z
" style="fill:#21918c;"/>
    <path clip-path="url(#pe7987af261)" d="M 53.5426 25.752308 
L 62.5152 26.134802 
L 71.4878 26.604086 
L 80.4604 26.725984 
L 89.433 26.573552 
L 98.4056 26.362195 
L 107.3782 26.266765 
L 116.3508 26.335076 
L 125.3234 26.528203 
L 134.296 26.537201 
L 143.2686 26.358135 
L 152.2412 26.424161 
L 161.2138 26.715143 
L 170.1864 26.662644 
L 179.159 26.343366 
L 188.1316 25.819412 
L 193.107314 25.44 
L 188.1316 25.44 
L 179.159 25.44 
L 170.1864 25.44 
L 161.2138 25.44 
L 152.2412 25.44 
L 143.2686 25.44 
L 134.296 25.44 
L 125.3234 25.44 
L 116.3508 25.44 
L 107.3782 25.44 
L 98.4056 25.44 
L 89.433 25.44 
L 80.4604 25.44 
L 71.4878 25.44 
L 62.5152 25.44 
L 53.5426 25.44 
L 44.57 25.44 
L 44.57 25.524854 
z
" style="fill:#21918c;"/>
    <path clip-path="url(#pe7987af261)" d="M 215.0494 25.564308 
L 224.022 25.783949 
L 232.9946 25.863337 
L 241.9672 25.942257 
L 250.9398 25.58587 
L 259.9124 25.590705 
L 268.885 26.045325 
L 277.8576 25.563853 
L 281.213252 25.44 
L 277.8576 25.44 
L 268.885 25.44 
L 259.9124 25.44 
L 250.9398 25.44 
L 241.9672 25.44 
L 232.9946 25.44 
L 224.022 25.44 
L 215.0494 25.44 
L 213.127837 25.44 
z
" style="fill:#21918c;"/>
    <path clip-path="url(#pe7987af261)" d="M 295.8028 25.779645 
L 304.7754 26.420627 
L 313.748 26.650229 
L 322.7206 26.43864 
L 329.749863 25.44 
L 322.7206 25.44 
L 313.748 25.44 
L 304.7754 25.44 
L 295.8028 25.44 
L 289.924181 25.44 
z
" style="fill:#21918c;"/>
    <path clip-path="url(#pe7987af261)" d="M 358.611 25.797453 
L 363.894646 25.44 
L 358.611 25.44 
L 353.743802 25.44 
z
" style="fill:#21918c;"/>
   </g>
   <g id="PathCollection_5">
    <path clip-path="url(#pe7987af261)" d="M 367.5836 69.806948 
L 376.5562 70.461835 
L 385.5288 71.056996 
L 394.5014 71.563418 
L 403.474 72.011964 
L 403.474 69.192 
L 403.474 64.330667 
L 403.474 63.892748 
L 394.5014 63.486028 
L 385.5288 62.482809 
L 376.5562 60.873632 
L 371.798826 59.469333 
L 367.5836 58.791161 
L 358.611 57.395943 
L 349.6384 56.145562 
L 340.6658 54.911667 
L 337.128425 54.608 
L 331.6932 54.298785 
L 322.7206 54.290162 
L 314.616527 54.608 
L 313.748 54.673598 
L 304.7754 55.768492 
L 295.8028 56.639675 
L 286.8302 56.999644 
L 277.8576 56.905301 
L 268.885 56.636954 
L 259.9124 56.369107 
L 250.9398 56.066199 
L 241.9672 55.580366 
L 232.9946 54.617673 
L 232.931595 54.608 
L 224.022 54.070445 
L 215.0494 53.877545 
L 206.0768 54.049611 
L 197.1042 54.34466 
L 188.1316 54.570401 
L 187.311735 54.608 
L 179.159 55.325291 
L 170.1864 55.391869 
L 161.2138 55.324263 
L 152.2412 55.192184 
L 143.2686 54.932364 
L 134.296 54.843666 
L 131.515172 54.608 
L 125.3234 54.392605 
L 116.3508 54.09082 
L 107.3782 53.906967 
L 98.4056 54.082849 
L 89.433 53.879586 
L 80.4604 54.149131 
L 71.4878 53.679534 
L 62.5152 53.061459 
L 53.5426 52.225836 
L 44.57 52.232451 
L 44.57 53.069828 
L 53.5426 53.078177 
L 62.5152 54.515894 
L 63.634164 54.608 
L 62.5152 55.186126 
L 53.5426 56.451597 
L 44.57 56.248347 
L 44.57 57.141347 
L 53.5426 57.478758 
L 60.58596 59.469333 
L 62.5152 60.459061 
L 71.4878 61.423575 
L 80.4604 61.576668 
L 89.433 61.718794 
L 98.4056 61.617371 
L 107.3782 61.836614 
L 116.3508 62.040779 
L 125.3234 62.270463 
L 134.296 62.493406 
L 143.2686 62.729792 
L 152.2412 62.834444 
L 161.2138 62.986499 
L 170.1864 62.962878 
L 179.159 62.861795 
L 188.1316 62.847991 
L 197.1042 62.829382 
L 206.0768 62.864723 
L 215.0494 63.147698 
L 224.022 63.575129 
L 232.9946 63.917286 
L 239.443209 64.330667 
L 241.9672 64.455305 
L 250.9398 64.908331 
L 259.9124 65.217743 
L 268.885 65.37582 
L 277.8576 65.429372 
L 286.8302 65.391868 
L 295.8028 65.280014 
L 304.7754 65.212083 
L 313.748 65.341836 
L 322.7206 65.688183 
L 331.6932 66.440551 
L 340.6658 67.133581 
L 349.6384 67.992953 
L 358.611 68.996318 
L 360.39989 69.192 
z
M 70.339578 59.469333 
L 71.4878 58.817289 
L 80.4604 58.817819 
L 89.433 57.868012 
L 98.4056 58.97766 
L 107.3782 58.423299 
L 116.3508 58.32621 
L 125.3234 58.59137 
L 134.296 58.970889 
L 143.2686 58.821135 
L 152.2412 58.663667 
L 161.2138 58.825773 
L 170.1864 59.070674 
L 179.159 59.208678 
L 188.1316 58.927559 
L 197.1042 58.69767 
L 206.0768 58.383702 
L 215.0494 57.981793 
L 224.022 58.503482 
L 232.9946 59.453173 
L 233.216586 59.469333 
L 232.9946 59.484149 
L 224.022 60.089158 
L 215.0494 60.221998 
L 206.0768 60.027938 
L 197.1042 59.939453 
L 188.1316 59.839643 
L 179.159 59.682716 
L 170.1864 59.810902 
L 161.2138 60.015406 
L 152.2412 60.103203 
L 143.2686 59.935156 
L 134.296 59.795196 
L 125.3234 59.92128 
L 116.3508 59.895321 
L 107.3782 59.728676 
L 98.4056 59.606568 
L 89.433 59.862583 
L 80.4604 59.678751 
L 71.4878 59.595219 
z
M 318.036227 59.469333 
L 322.7206 58.972071 
L 331.6932 58.637681 
L 340.6658 58.884775 
L 346.796469 59.469333 
L 340.6658 61.65663 
L 331.6932 61.094707 
L 322.7206 60.180383 
z
" style="fill:#2db27d;"/>
    <path clip-path="url(#pe7987af261)" d="M 53.5426 35.406479 
L 62.5152 35.572994 
L 71.4878 35.730323 
L 80.4604 35.953542 
L 89.433 36.288149 
L 98.4056 36.536448 
L 107.3782 36.535937 
L 116.3508 36.35833 
L 125.3234 36.072617 
L 134.296 35.831078 
L 143.2686 35.750108 
L 152.2412 35.736009 
L 161.2138 35.677922 
L 170.1864 35.625762 
L 179.159 35.571236 
L 188.1316 35.539482 
L 197.1042 35.509453 
L 206.0768 35.40241 
L 215.0494 35.238441 
L 224.022 35.268189 
L 232.9946 35.42223 
L 241.9672 35.490101 
L 250.9398 35.410535 
L 259.9124 35.196159 
L 261.374609 35.162667 
L 268.885 34.828746 
L 277.8576 34.922811 
L 284.378941 35.162667 
L 286.8302 35.211795 
L 295.8028 35.285131 
L 303.076968 35.162667 
L 304.7754 35.104617 
L 313.748 34.54473 
L 322.7206 34.12914 
L 331.6932 34.262267 
L 340.6658 34.371304 
L 349.6384 34.147781 
L 358.611 34.255444 
L 367.5836 34.489748 
L 376.5562 34.972643 
L 380.487825 35.162667 
L 385.5288 35.326997 
L 394.5014 35.46002 
L 403.474 35.388731 
L 403.474 35.162667 
L 403.474 30.768535 
L 394.5014 30.800225 
L 385.5288 30.397908 
L 383.323075 30.301333 
L 385.5288 30.177945 
L 394.5014 29.674768 
L 403.474 29.700433 
L 403.474 25.44 
L 394.5014 25.44 
L 385.5288 25.44 
L 376.5562 25.44 
L 367.5836 25.44 
L 363.894646 25.44 
L 358.611 25.797453 
L 353.743802 25.44 
L 349.6384 25.44 
L 340.6658 25.44 
L 331.6932 25.44 
L 329.749863 25.44 
L 322.7206 26.43864 
L 313.748 26.650229 
L 304.7754 26.420627 
L 295.8028 25.779645 
L 289.924181 25.44 
L 286.8302 25.44 
L 281.213252 25.44 
L 277.8576 25.563853 
L 268.885 26.045325 
L 259.9124 25.590705 
L 250.9398 25.58587 
L 241.9672 25.942257 
L 232.9946 25.863337 
L 224.022 25.783949 
L 215.0494 25.564308 
L 213.127837 25.44 
L 206.0768 25.44 
L 197.1042 25.44 
L 193.107314 25.44 
L 188.1316 25.819412 
L 179.159 26.343366 
L 170.1864 26.662644 
L 161.2138 26.715143 
L 152.2412 26.424161 
L 143.2686 26.358135 
L 134.296 26.537201 
L 125.3234 26.528203 
L 116.3508 26.335076 
L 107.3782 26.266765 
L 98.4056 26.362195 
L 89.433 26.573552 
L 80.4604 26.725984 
L 71.4878 26.604086 
L 62.5152 26.134802 
L 53.5426 25.752308 
L 44.57 25.524854 
L 44.57 30.289663 
L 46.233493 30.301333 
L 44.57 30.313962 
L 44.57 35.162667 
L 44.57 35.304162 
z
M 93.28727 30.301333 
L 98.4056 30.132709 
L 107.3782 30.116938 
L 114.478656 30.301333 
L 107.3782 30.764566 
L 98.4056 30.746362 
z
M 194.150456 30.301333 
L 197.1042 30.147782 
L 206.0768 30.150433 
L 209.4572 30.301333 
L 206.0768 30.453321 
L 197.1042 30.467956 
z
M 276.96222 30.301333 
L 277.8576 30.254866 
L 286.8302 29.550624 
L 295.8028 29.8245 
L 302.758884 30.301333 
L 295.8028 30.837983 
L 286.8302 31.036121 
L 277.8576 30.346662 
z
M 328.390822 30.301333 
L 331.6932 29.970667 
L 340.6658 29.22487 
L 349.6384 30.119161 
L 354.570083 30.301333 
L 349.6384 30.436441 
L 340.6658 31.102155 
L 331.6932 30.554846 
z
" style="fill:#2db27d;"/>
   </g>
   <g id="PathCollection_6">
    <path clip-path="url(#pe7987af261)" d="M 71.4878 59.595219 
L 80.4604 59.678751 
L 89.433 59.862583 
L 98.4056 59.606568 
L 107.3782 59.728676 
L 116.3508 59.895321 
L 125.3234 59.92128 
L 134.296 59.795196 
L 143.2686 59.935156 
L 152.2412 60.103203 
L 161.2138 60.015406 
L 170.1864 59.810902 
L 179.159 59.682716 
L 188.1316 59.839643 
L 197.1042 59.939453 
L 206.0768 60.027938 
L 215.0494 60.221998 
L 224.022 60.089158 
L 232.9946 59.484149 
L 233.216586 59.469333 
L 232.9946 59.453173 
L 224.022 58.503482 
L 215.0494 57.981793 
L 206.0768 58.383702 
L 197.1042 58.69767 
L 188.1316 58.927559 
L 179.159 59.208678 
L 170.1864 59.070674 
L 161.2138 58.825773 
L 152.2412 58.663667 
L 143.2686 58.821135 
L 134.296 58.970889 
L 125.3234 58.59137 
L 116.3508 58.32621 
L 107.3782 58.423299 
L 98.4056 58.97766 
L 89.433 57.868012 
L 80.4604 58.817819 
L 71.4878 58.817289 
L 70.339578 59.469333 
z
" style="fill:#73d056;"/>
    <path clip-path="url(#pe7987af261)" d="M 322.7206 60.180383 
L 331.6932 61.094707 
L 340.6658 61.65663 
L 346.796469 59.469333 
L 340.6658 58.884775 
L 331.6932 58.637681 
L 322.7206 58.972071 
L 318.036227 59.469333 
z
" style="fill:#73d056;"/>
    <path clip-path="url(#pe7987af261)" d="M 53.5426 56.451597 
L 62.5152 55.186126 
L 63.634164 54.608 
L 62.5152 54.515894 
L 53.5426 53.078177 
L 44.57 53.069828 
L 44.57 53.907204 
L 53.5426 53.930518 
L 57.661439 54.608 
L 53.5426 55.424437 
L 44.57 55.355347 
L 44.57 56.248347 
z
" style="fill:#73d056;"/>
    <path clip-path="url(#pe7987af261)" d="M 46.233493 30.301333 
L 44.57 30.289663 
L 44.57 30.301333 
L 44.57 30.313962 
z
" style="fill:#73d056;"/>
    <path clip-path="url(#pe7987af261)" d="M 98.4056 30.746362 
L 107.3782 30.764566 
L 114.478656 30.301333 
L 107.3782 30.116938 
L 98.4056 30.132709 
L 93.28727 30.301333 
z
" style="fill:#73d056;"/>
    <path clip-path="url(#pe7987af261)" d="M 197.1042 30.467956 
L 206.0768 30.453321 
L 209.4572 30.301333 
L 206.0768 30.150433 
L 197.1042 30.147782 
L 194.150456 30.301333 
z
" style="fill:#73d056;"/>
    <path clip-path="url(#pe7987af261)" d="M 277.8576 30.346662 
L 286.8302 31.036121 
L 295.8028 30.837983 
L 302.758884 30.301333 
L 295.8028 29.8245 
L 286.8302 29.550624 
L 277.8576 30.254866 
L 276.96222 30.301333 
z
" style="fill:#73d056;"/>
    <path clip-path="url(#pe7987af261)" d="M 331.6932 30.554846 
L 340.6658 31.102155 
L 349.6384 30.436441 
L 354.570083 30.301333 
L 349.6384 30.119161 
L 340.6658 29.22487 
L 331.6932 29.970667 
L 328.390822 30.301333 
z
" style="fill:#73d056;"/>
    <path clip-path="url(#pe7987af261)" d="M 385.5288 30.397908 
L 394.5014 30.800225 
L 403.474 30.768535 
L 403.474 30.301333 
L 403.474 29.700433 
L 394.5014 29.674768 
L 385.5288 30.177945 
L 383.323075 30.301333 
z
" style="fill:#73d056;"/>
   </g>
   <g id="PathCollection_7">
    <path clip-path="url(#pe7987af261)" d="M 53.5426 55.424437 
L 57.661439 54.608 
L 53.5426 53.930518 
L 44.57 53.907204 
L 44.57 54.608 
L 44.57 55.355347 
z
" style="fill:#d0e11c;"/>
   </g>
   <g id="matplotlib.axis_1">
    <g id="xtick_1">
     <g id="line2d_1">
      <defs>
       <path d="M 0 0 
L 0 3.5 
" id="m3322d8ea41" style="stroke:#000000;stroke-width:0.8;"/>
      </defs>
      <g>
       <use style="stroke:#000000;stroke-width:0.8;" x="44.57" xlink:href="#m3322d8ea41" y="390.04"/>
      </g>
     </g>
     <g id="text_1">
      <!-- 0 -->
      <defs>
       <path d="M 31.78125 66.40625 
Q 24.171875 66.40625 20.328125 58.90625 
Q 16.5 51.421875 16.5 36.375 
Q 16.5 21.390625 20.328125 13.890625 
Q 24.171875 6.390625 31.78125 6.390625 
Q 39.453125 6.390625 43.28125 13.890625 
Q 47.125 21.390625 47.125 36.375 
Q 47.125 51.421875 43.28125 58.90625 
Q 39.453125 66.40625 31.78125 66.40625 
z
M 31.78125 74.21875 
Q 44.046875 74.21875 50.515625 64.515625 
Q 56.984375 54.828125 56.984375 36.375 
Q 56.984375 17.96875 50.515625 8.265625 
Q 44.046875 -1.421875 31.78125 -1.421875 
Q 19.53125 -1.421875 13.0625 8.265625 
Q 6.59375 17.96875 6.59375 36.375 
Q 6.59375 54.828125 13.0625 64.515625 
Q 19.53125 74.21875 31.78125 74.21875 
z
" id="DejaVuSans-48"/>
      </defs>
      <g transform="translate(41.38875 404.638438)scale(0.1 -0.1)">
       <use xlink:href="#DejaVuSans-48"/>
      </g>
     </g>
    </g>
    <g id="xtick_2">
     <g id="line2d_2">
      <g>
       <use style="stroke:#000000;stroke-width:0.8;" x="89.433" xlink:href="#m3322d8ea41" y="390.04"/>
      </g>
     </g>
     <g id="text_2">
      <!-- 5 -->
      <defs>
       <path d="M 10.796875 72.90625 
L 49.515625 72.90625 
L 49.515625 64.59375 
L 19.828125 64.59375 
L 19.828125 46.734375 
Q 21.96875 47.46875 24.109375 47.828125 
Q 26.265625 48.1875 28.421875 48.1875 
Q 40.625 48.1875 47.75 41.5 
Q 54.890625 34.8125 54.890625 23.390625 
Q 54.890625 11.625 47.5625 5.09375 
Q 40.234375 -1.421875 26.90625 -1.421875 
Q 22.3125 -1.421875 17.546875 -0.640625 
Q 12.796875 0.140625 7.71875 1.703125 
L 7.71875 11.625 
Q 12.109375 9.234375 16.796875 8.0625 
Q 21.484375 6.890625 26.703125 6.890625 
Q 35.15625 6.890625 40.078125 11.328125 
Q 45.015625 15.765625 45.015625 23.390625 
Q 45.015625 31 40.078125 35.4375 
Q 35.15625 39.890625 26.703125 39.890625 
Q 22.75 39.890625 18.8125 39.015625 
Q 14.890625 38.140625 10.796875 36.28125 
z
" id="DejaVuSans-53"/>
      </defs>
      <g transform="translate(86.25175 404.638438)scale(0.1 -0.1)">
       <use xlink:href="#DejaVuSans-53"/>
      </g>
     </g>
    </g>
    <g id="xtick_3">
     <g id="line2d_3">
      <g>
       <use style="stroke:#000000;stroke-width:0.8;" x="134.296" xlink:href="#m3322d8ea41" y="390.04"/>
      </g>
     </g>
     <g id="text_3">
      <!-- 10 -->
      <defs>
       <path d="M 12.40625 8.296875 
L 28.515625 8.296875 
L 28.515625 63.921875 
L 10.984375 60.40625 
L 10.984375 69.390625 
L 28.421875 72.90625 
L 38.28125 72.90625 
L 38.28125 8.296875 
L 54.390625 8.296875 
L 54.390625 0 
L 12.40625 0 
z
" id="DejaVuSans-49"/>
      </defs>
      <g transform="translate(127.9335 404.638438)scale(0.1 -0.1)">
       <use xlink:href="#DejaVuSans-49"/>
       <use x="63.623047" xlink:href="#DejaVuSans-48"/>
      </g>
     </g>
    </g>
    <g id="xtick_4">
     <g id="line2d_4">
      <g>
       <use style="stroke:#000000;stroke-width:0.8;" x="179.159" xlink:href="#m3322d8ea41" y="390.04"/>
      </g>
     </g>
     <g id="text_4">
      <!-- 15 -->
      <g transform="translate(172.7965 404.638438)scale(0.1 -0.1)">
       <use xlink:href="#DejaVuSans-49"/>
       <use x="63.623047" xlink:href="#DejaVuSans-53"/>
      </g>
     </g>
    </g>
    <g id="xtick_5">
     <g id="line2d_5">
      <g>
       <use style="stroke:#000000;stroke-width:0.8;" x="224.022" xlink:href="#m3322d8ea41" y="390.04"/>
      </g>
     </g>
     <g id="text_5">
      <!-- 20 -->
      <defs>
       <path d="M 19.1875 8.296875 
L 53.609375 8.296875 
L 53.609375 0 
L 7.328125 0 
L 7.328125 8.296875 
Q 12.9375 14.109375 22.625 23.890625 
Q 32.328125 33.6875 34.8125 36.53125 
Q 39.546875 41.84375 41.421875 45.53125 
Q 43.3125 49.21875 43.3125 52.78125 
Q 43.3125 58.59375 39.234375 62.25 
Q 35.15625 65.921875 28.609375 65.921875 
Q 23.96875 65.921875 18.8125 64.3125 
Q 13.671875 62.703125 7.8125 59.421875 
L 7.8125 69.390625 
Q 13.765625 71.78125 18.9375 73 
Q 24.125 74.21875 28.421875 74.21875 
Q 39.75 74.21875 46.484375 68.546875 
Q 53.21875 62.890625 53.21875 53.421875 
Q 53.21875 48.921875 51.53125 44.890625 
Q 49.859375 40.875 45.40625 35.40625 
Q 44.1875 33.984375 37.640625 27.21875 
Q 31.109375 20.453125 19.1875 8.296875 
z
" id="DejaVuSans-50"/>
      </defs>
      <g transform="translate(217.6595 404.638438)scale(0.1 -0.1)">
       <use xlink:href="#DejaVuSans-50"/>
       <use x="63.623047" xlink:href="#DejaVuSans-48"/>
      </g>
     </g>
    </g>
    <g id="xtick_6">
     <g id="line2d_6">
      <g>
       <use style="stroke:#000000;stroke-width:0.8;" x="268.885" xlink:href="#m3322d8ea41" y="390.04"/>
      </g>
     </g>
     <g id="text_6">
      <!-- 25 -->
      <g transform="translate(262.5225 404.638438)scale(0.1 -0.1)">
       <use xlink:href="#DejaVuSans-50"/>
       <use x="63.623047" xlink:href="#DejaVuSans-53"/>
      </g>
     </g>
    </g>
    <g id="xtick_7">
     <g id="line2d_7">
      <g>
       <use style="stroke:#000000;stroke-width:0.8;" x="313.748" xlink:href="#m3322d8ea41" y="390.04"/>
      </g>
     </g>
     <g id="text_7">
      <!-- 30 -->
      <defs>
       <path d="M 40.578125 39.3125 
Q 47.65625 37.796875 51.625 33 
Q 55.609375 28.21875 55.609375 21.1875 
Q 55.609375 10.40625 48.1875 4.484375 
Q 40.765625 -1.421875 27.09375 -1.421875 
Q 22.515625 -1.421875 17.65625 -0.515625 
Q 12.796875 0.390625 7.625 2.203125 
L 7.625 11.71875 
Q 11.71875 9.328125 16.59375 8.109375 
Q 21.484375 6.890625 26.8125 6.890625 
Q 36.078125 6.890625 40.9375 10.546875 
Q 45.796875 14.203125 45.796875 21.1875 
Q 45.796875 27.640625 41.28125 31.265625 
Q 36.765625 34.90625 28.71875 34.90625 
L 20.21875 34.90625 
L 20.21875 43.015625 
L 29.109375 43.015625 
Q 36.375 43.015625 40.234375 45.921875 
Q 44.09375 48.828125 44.09375 54.296875 
Q 44.09375 59.90625 40.109375 62.90625 
Q 36.140625 65.921875 28.71875 65.921875 
Q 24.65625 65.921875 20.015625 65.03125 
Q 15.375 64.15625 9.8125 62.3125 
L 9.8125 71.09375 
Q 15.4375 72.65625 20.34375 73.4375 
Q 25.25 74.21875 29.59375 74.21875 
Q 40.828125 74.21875 47.359375 69.109375 
Q 53.90625 64.015625 53.90625 55.328125 
Q 53.90625 49.265625 50.4375 45.09375 
Q 46.96875 40.921875 40.578125 39.3125 
z
" id="DejaVuSans-51"/>
      </defs>
      <g transform="translate(307.3855 404.638438)scale(0.1 -0.1)">
       <use xlink:href="#DejaVuSans-51"/>
       <use x="63.623047" xlink:href="#DejaVuSans-48"/>
      </g>
     </g>
    </g>
    <g id="xtick_8">
     <g id="line2d_8">
      <g>
       <use style="stroke:#000000;stroke-width:0.8;" x="358.611" xlink:href="#m3322d8ea41" y="390.04"/>
      </g>
     </g>
     <g id="text_8">
      <!-- 35 -->
      <g transform="translate(352.2485 404.638438)scale(0.1 -0.1)">
       <use xlink:href="#DejaVuSans-51"/>
       <use x="63.623047" xlink:href="#DejaVuSans-53"/>
      </g>
     </g>
    </g>
    <g id="xtick_9">
     <g id="line2d_9">
      <g>
       <use style="stroke:#000000;stroke-width:0.8;" x="403.474" xlink:href="#m3322d8ea41" y="390.04"/>
      </g>
     </g>
     <g id="text_9">
      <!-- 40 -->
      <defs>
       <path d="M 37.796875 64.3125 
L 12.890625 25.390625 
L 37.796875 25.390625 
z
M 35.203125 72.90625 
L 47.609375 72.90625 
L 47.609375 25.390625 
L 58.015625 25.390625 
L 58.015625 17.1875 
L 47.609375 17.1875 
L 47.609375 0 
L 37.796875 0 
L 37.796875 17.1875 
L 4.890625 17.1875 
L 4.890625 26.703125 
z
" id="DejaVuSans-52"/>
      </defs>
      <g transform="translate(397.1115 404.638438)scale(0.1 -0.1)">
       <use xlink:href="#DejaVuSans-52"/>
       <use x="63.623047" xlink:href="#DejaVuSans-48"/>
      </g>
     </g>
    </g>
    <g id="text_10">
     <!-- X -->
     <defs>
      <path d="M 6.296875 72.90625 
L 16.890625 72.90625 
L 35.015625 45.796875 
L 53.21875 72.90625 
L 63.8125 72.90625 
L 40.375 37.890625 
L 65.375 0 
L 54.78125 0 
L 34.28125 31 
L 13.625 0 
L 2.984375 0 
L 29 38.921875 
z
" id="DejaVuSans-88"/>
     </defs>
     <g transform="translate(220.597 418.316562)scale(0.1 -0.1)">
      <use xlink:href="#DejaVuSans-88"/>
     </g>
    </g>
   </g>
   <g id="matplotlib.axis_2">
    <g id="ytick_1">
     <g id="line2d_10">
      <defs>
       <path d="M 0 0 
L -3.5 0 
" id="m7bc1135192" style="stroke:#000000;stroke-width:0.8;"/>
      </defs>
      <g>
       <use style="stroke:#000000;stroke-width:0.8;" x="44.57" xlink:href="#m7bc1135192" y="390.04"/>
      </g>
     </g>
     <g id="text_11">
      <!-- 0 -->
      <g transform="translate(31.2075 393.839219)scale(0.1 -0.1)">
       <use xlink:href="#DejaVuSans-48"/>
      </g>
     </g>
    </g>
    <g id="ytick_2">
     <g id="line2d_11">
      <g>
       <use style="stroke:#000000;stroke-width:0.8;" x="44.57" xlink:href="#m7bc1135192" y="341.426667"/>
      </g>
     </g>
     <g id="text_12">
      <!-- 10 -->
      <g transform="translate(24.845 345.225885)scale(0.1 -0.1)">
       <use xlink:href="#DejaVuSans-49"/>
       <use x="63.623047" xlink:href="#DejaVuSans-48"/>
      </g>
     </g>
    </g>
    <g id="ytick_3">
     <g id="line2d_12">
      <g>
       <use style="stroke:#000000;stroke-width:0.8;" x="44.57" xlink:href="#m7bc1135192" y="292.813333"/>
      </g>
     </g>
     <g id="text_13">
      <!-- 20 -->
      <g transform="translate(24.845 296.612552)scale(0.1 -0.1)">
       <use xlink:href="#DejaVuSans-50"/>
       <use x="63.623047" xlink:href="#DejaVuSans-48"/>
      </g>
     </g>
    </g>
    <g id="ytick_4">
     <g id="line2d_13">
      <g>
       <use style="stroke:#000000;stroke-width:0.8;" x="44.57" xlink:href="#m7bc1135192" y="244.2"/>
      </g>
     </g>
     <g id="text_14">
      <!-- 30 -->
      <g transform="translate(24.845 247.999219)scale(0.1 -0.1)">
       <use xlink:href="#DejaVuSans-51"/>
       <use x="63.623047" xlink:href="#DejaVuSans-48"/>
      </g>
     </g>
    </g>
    <g id="ytick_5">
     <g id="line2d_14">
      <g>
       <use style="stroke:#000000;stroke-width:0.8;" x="44.57" xlink:href="#m7bc1135192" y="195.586667"/>
      </g>
     </g>
     <g id="text_15">
      <!-- 40 -->
      <g transform="translate(24.845 199.385885)scale(0.1 -0.1)">
       <use xlink:href="#DejaVuSans-52"/>
       <use x="63.623047" xlink:href="#DejaVuSans-48"/>
      </g>
     </g>
    </g>
    <g id="ytick_6">
     <g id="line2d_15">
      <g>
       <use style="stroke:#000000;stroke-width:0.8;" x="44.57" xlink:href="#m7bc1135192" y="146.973333"/>
      </g>
     </g>
     <g id="text_16">
      <!-- 50 -->
      <g transform="translate(24.845 150.772552)scale(0.1 -0.1)">
       <use xlink:href="#DejaVuSans-53"/>
       <use x="63.623047" xlink:href="#DejaVuSans-48"/>
      </g>
     </g>
    </g>
    <g id="ytick_7">
     <g id="line2d_16">
      <g>
       <use style="stroke:#000000;stroke-width:0.8;" x="44.57" xlink:href="#m7bc1135192" y="98.36"/>
      </g>
     </g>
     <g id="text_17">
      <!-- 60 -->
      <defs>
       <path d="M 33.015625 40.375 
Q 26.375 40.375 22.484375 35.828125 
Q 18.609375 31.296875 18.609375 23.390625 
Q 18.609375 15.53125 22.484375 10.953125 
Q 26.375 6.390625 33.015625 6.390625 
Q 39.65625 6.390625 43.53125 10.953125 
Q 47.40625 15.53125 47.40625 23.390625 
Q 47.40625 31.296875 43.53125 35.828125 
Q 39.65625 40.375 33.015625 40.375 
z
M 52.59375 71.296875 
L 52.59375 62.3125 
Q 48.875 64.0625 45.09375 64.984375 
Q 41.3125 65.921875 37.59375 65.921875 
Q 27.828125 65.921875 22.671875 59.328125 
Q 17.53125 52.734375 16.796875 39.40625 
Q 19.671875 43.65625 24.015625 45.921875 
Q 28.375 48.1875 33.59375 48.1875 
Q 44.578125 48.1875 50.953125 41.515625 
Q 57.328125 34.859375 57.328125 23.390625 
Q 57.328125 12.15625 50.6875 5.359375 
Q 44.046875 -1.421875 33.015625 -1.421875 
Q 20.359375 -1.421875 13.671875 8.265625 
Q 6.984375 17.96875 6.984375 36.375 
Q 6.984375 53.65625 15.1875 63.9375 
Q 23.390625 74.21875 37.203125 74.21875 
Q 40.921875 74.21875 44.703125 73.484375 
Q 48.484375 72.75 52.59375 71.296875 
z
" id="DejaVuSans-54"/>
      </defs>
      <g transform="translate(24.845 102.159219)scale(0.1 -0.1)">
       <use xlink:href="#DejaVuSans-54"/>
       <use x="63.623047" xlink:href="#DejaVuSans-48"/>
      </g>
     </g>
    </g>
    <g id="ytick_8">
     <g id="line2d_17">
      <g>
       <use style="stroke:#000000;stroke-width:0.8;" x="44.57" xlink:href="#m7bc1135192" y="49.746667"/>
      </g>
     </g>
     <g id="text_18">
      <!-- 70 -->
      <defs>
       <path d="M 8.203125 72.90625 
L 55.078125 72.90625 
L 55.078125 68.703125 
L 28.609375 0 
L 18.3125 0 
L 43.21875 64.59375 
L 8.203125 64.59375 
z
" id="DejaVuSans-55"/>
      </defs>
      <g transform="translate(24.845 53.545885)scale(0.1 -0.1)">
       <use xlink:href="#DejaVuSans-55"/>
       <use x="63.623047" xlink:href="#DejaVuSans-48"/>
      </g>
     </g>
    </g>
    <g id="text_19">
     <!-- Y -->
     <defs>
      <path d="M -0.203125 72.90625 
L 10.40625 72.90625 
L 30.609375 42.921875 
L 50.6875 72.90625 
L 61.28125 72.90625 
L 35.5 34.71875 
L 35.5 0 
L 25.59375 0 
L 25.59375 34.71875 
z
" id="DejaVuSans-89"/>
     </defs>
     <g transform="translate(18.765313 210.793906)rotate(-90)scale(0.1 -0.1)">
      <use xlink:href="#DejaVuSans-89"/>
     </g>
    </g>
   </g>
   <g id="patch_3">
    <path d="M 44.57 390.04 
L 44.57 25.44 
" style="fill:none;stroke:#000000;stroke-linecap:square;stroke-linejoin:miter;stroke-width:0.8;"/>
   </g>
   <g id="patch_4">
    <path d="M 403.474 390.04 
L 403.474 25.44 
" style="fill:none;stroke:#000000;stroke-linecap:square;stroke-linejoin:miter;stroke-width:0.8;"/>
   </g>
   <g id="patch_5">
    <path d="M 44.57 390.04 
L 403.474 390.04 
" style="fill:none;stroke:#000000;stroke-linecap:square;stroke-linejoin:miter;stroke-width:0.8;"/>
   </g>
   <g id="patch_6">
    <path d="M 44.57 25.44 
L 403.474 25.44 
" style="fill:none;stroke:#000000;stroke-linecap:square;stroke-linejoin:miter;stroke-width:0.8;"/>
   </g>
   <g id="text_20">
    <!-- Contour plot output -->
    <defs>
     <path d="M 64.40625 67.28125 
L 64.40625 56.890625 
Q 59.421875 61.53125 53.78125 63.8125 
Q 48.140625 66.109375 41.796875 66.109375 
Q 29.296875 66.109375 22.65625 58.46875 
Q 16.015625 50.828125 16.015625 36.375 
Q 16.015625 21.96875 22.65625 14.328125 
Q 29.296875 6.6875 41.796875 6.6875 
Q 48.140625 6.6875 53.78125 8.984375 
Q 59.421875 11.28125 64.40625 15.921875 
L 64.40625 5.609375 
Q 59.234375 2.09375 53.4375 0.328125 
Q 47.65625 -1.421875 41.21875 -1.421875 
Q 24.65625 -1.421875 15.125 8.703125 
Q 5.609375 18.84375 5.609375 36.375 
Q 5.609375 53.953125 15.125 64.078125 
Q 24.65625 74.21875 41.21875 74.21875 
Q 47.75 74.21875 53.53125 72.484375 
Q 59.328125 70.75 64.40625 67.28125 
z
" id="DejaVuSans-67"/>
     <path d="M 30.609375 48.390625 
Q 23.390625 48.390625 19.1875 42.75 
Q 14.984375 37.109375 14.984375 27.296875 
Q 14.984375 17.484375 19.15625 11.84375 
Q 23.34375 6.203125 30.609375 6.203125 
Q 37.796875 6.203125 41.984375 11.859375 
Q 46.1875 17.53125 46.1875 27.296875 
Q 46.1875 37.015625 41.984375 42.703125 
Q 37.796875 48.390625 30.609375 48.390625 
z
M 30.609375 56 
Q 42.328125 56 49.015625 48.375 
Q 55.71875 40.765625 55.71875 27.296875 
Q 55.71875 13.875 49.015625 6.21875 
Q 42.328125 -1.421875 30.609375 -1.421875 
Q 18.84375 -1.421875 12.171875 6.21875 
Q 5.515625 13.875 5.515625 27.296875 
Q 5.515625 40.765625 12.171875 48.375 
Q 18.84375 56 30.609375 56 
z
" id="DejaVuSans-111"/>
     <path d="M 54.890625 33.015625 
L 54.890625 0 
L 45.90625 0 
L 45.90625 32.71875 
Q 45.90625 40.484375 42.875 44.328125 
Q 39.84375 48.1875 33.796875 48.1875 
Q 26.515625 48.1875 22.3125 43.546875 
Q 18.109375 38.921875 18.109375 30.90625 
L 18.109375 0 
L 9.078125 0 
L 9.078125 54.6875 
L 18.109375 54.6875 
L 18.109375 46.1875 
Q 21.34375 51.125 25.703125 53.5625 
Q 30.078125 56 35.796875 56 
Q 45.21875 56 50.046875 50.171875 
Q 54.890625 44.34375 54.890625 33.015625 
z
" id="DejaVuSans-110"/>
     <path d="M 18.3125 70.21875 
L 18.3125 54.6875 
L 36.8125 54.6875 
L 36.8125 47.703125 
L 18.3125 47.703125 
L 18.3125 18.015625 
Q 18.3125 11.328125 20.140625 9.421875 
Q 21.96875 7.515625 27.59375 7.515625 
L 36.8125 7.515625 
L 36.8125 0 
L 27.59375 0 
Q 17.1875 0 13.234375 3.875 
Q 9.28125 7.765625 9.28125 18.015625 
L 9.28125 47.703125 
L 2.6875 47.703125 
L 2.6875 54.6875 
L 9.28125 54.6875 
L 9.28125 70.21875 
z
" id="DejaVuSans-116"/>
     <path d="M 8.5 21.578125 
L 8.5 54.6875 
L 17.484375 54.6875 
L 17.484375 21.921875 
Q 17.484375 14.15625 20.5 10.265625 
Q 23.53125 6.390625 29.59375 6.390625 
Q 36.859375 6.390625 41.078125 11.03125 
Q 45.3125 15.671875 45.3125 23.6875 
L 45.3125 54.6875 
L 54.296875 54.6875 
L 54.296875 0 
L 45.3125 0 
L 45.3125 8.40625 
Q 42.046875 3.421875 37.71875 1 
Q 33.40625 -1.421875 27.6875 -1.421875 
Q 18.265625 -1.421875 13.375 4.4375 
Q 8.5 10.296875 8.5 21.578125 
z
M 31.109375 56 
z
" id="DejaVuSans-117"/>
     <path d="M 41.109375 46.296875 
Q 39.59375 47.171875 37.8125 47.578125 
Q 36.03125 48 33.890625 48 
Q 26.265625 48 22.1875 43.046875 
Q 18.109375 38.09375 18.109375 28.8125 
L 18.109375 0 
L 9.078125 0 
L 9.078125 54.6875 
L 18.109375 54.6875 
L 18.109375 46.1875 
Q 20.953125 51.171875 25.484375 53.578125 
Q 30.03125 56 36.53125 56 
Q 37.453125 56 38.578125 55.875 
Q 39.703125 55.765625 41.0625 55.515625 
z
" id="DejaVuSans-114"/>
     <path id="DejaVuSans-32"/>
     <path d="M 18.109375 8.203125 
L 18.109375 -20.796875 
L 9.078125 -20.796875 
L 9.078125 54.6875 
L 18.109375 54.6875 
L 18.109375 46.390625 
Q 20.953125 51.265625 25.265625 53.625 
Q 29.59375 56 35.59375 56 
Q 45.5625 56 51.78125 48.09375 
Q 58.015625 40.1875 58.015625 27.296875 
Q 58.015625 14.40625 51.78125 6.484375 
Q 45.5625 -1.421875 35.59375 -1.421875 
Q 29.59375 -1.421875 25.265625 0.953125 
Q 20.953125 3.328125 18.109375 8.203125 
z
M 48.6875 27.296875 
Q 48.6875 37.203125 44.609375 42.84375 
Q 40.53125 48.484375 33.40625 48.484375 
Q 26.265625 48.484375 22.1875 42.84375 
Q 18.109375 37.203125 18.109375 27.296875 
Q 18.109375 17.390625 22.1875 11.75 
Q 26.265625 6.109375 33.40625 6.109375 
Q 40.53125 6.109375 44.609375 11.75 
Q 48.6875 17.390625 48.6875 27.296875 
z
" id="DejaVuSans-112"/>
     <path d="M 9.421875 75.984375 
L 18.40625 75.984375 
L 18.40625 0 
L 9.421875 0 
z
" id="DejaVuSans-108"/>
    </defs>
    <g transform="translate(164.96325 19.44)scale(0.12 -0.12)">
     <use xlink:href="#DejaVuSans-67"/>
     <use x="69.824219" xlink:href="#DejaVuSans-111"/>
     <use x="131.005859" xlink:href="#DejaVuSans-110"/>
     <use x="194.384766" xlink:href="#DejaVuSans-116"/>
     <use x="233.59375" xlink:href="#DejaVuSans-111"/>
     <use x="294.775391" xlink:href="#DejaVuSans-117"/>
     <use x="358.154297" xlink:href="#DejaVuSans-114"/>
     <use x="399.267578" xlink:href="#DejaVuSans-32"/>
     <use x="431.054688" xlink:href="#DejaVuSans-112"/>
     <use x="494.53125" xlink:href="#DejaVuSans-108"/>
     <use x="522.314453" xlink:href="#DejaVuSans-111"/>
     <use x="583.496094" xlink:href="#DejaVuSans-116"/>
     <use x="622.705078" xlink:href="#DejaVuSans-32"/>
     <use x="654.492188" xlink:href="#DejaVuSans-111"/>
     <use x="715.673828" xlink:href="#DejaVuSans-117"/>
     <use x="779.052734" xlink:href="#DejaVuSans-116"/>
     <use x="818.261719" xlink:href="#DejaVuSans-112"/>
     <use x="881.738281" xlink:href="#DejaVuSans-117"/>
     <use x="945.117188" xlink:href="#DejaVuSans-116"/>
    </g>
   </g>
   <g id="legend_1">
    <g id="patch_7">
     <path d="M 392.474 38.44 
L 396.474 38.44 
Q 398.474 38.44 398.474 36.44 
L 398.474 32.44 
Q 398.474 30.44 396.474 30.44 
L 392.474 30.44 
Q 390.474 30.44 390.474 32.44 
L 390.474 36.44 
Q 390.474 38.44 392.474 38.44 
z
" style="fill:#ffffff;opacity:0.8;stroke:#cccccc;stroke-linejoin:miter;"/>
    </g>
   </g>
  </g>
  <g id="axes_2">
   <g id="patch_8">
    <path clip-path="url(#p374b4a0fb0)" d="M 425.9055 390.04 
L 425.9055 337.954286 
L 425.9055 77.525714 
L 425.9055 25.44 
L 444.1355 25.44 
L 444.1355 77.525714 
L 444.1355 337.954286 
L 444.1355 390.04 
z
" style="fill:#ffffff;stroke:#ffffff;stroke-linejoin:miter;stroke-width:0.01;"/>
   </g>
   <g id="QuadMesh_1">
    <path clip-path="url(#p374b4a0fb0)" d="M 425.9055 390.04 
L 444.1355 390.04 
L 444.1355 337.954286 
L 425.9055 337.954286 
L 425.9055 390.04 
" style="fill:#481b6d;"/>
    <path clip-path="url(#p374b4a0fb0)" d="M 425.9055 337.954286 
L 444.1355 337.954286 
L 444.1355 285.868571 
L 425.9055 285.868571 
L 425.9055 337.954286 
" style="fill:#3f4788;"/>
    <path clip-path="url(#p374b4a0fb0)" d="M 425.9055 285.868571 
L 444.1355 285.868571 
L 444.1355 233.782857 
L 425.9055 233.782857 
L 425.9055 285.868571 
" style="fill:#2e6e8e;"/>
    <path clip-path="url(#p374b4a0fb0)" d="M 425.9055 233.782857 
L 444.1355 233.782857 
L 444.1355 181.697143 
L 425.9055 181.697143 
L 425.9055 233.782857 
" style="fill:#21918c;"/>
    <path clip-path="url(#p374b4a0fb0)" d="M 425.9055 181.697143 
L 444.1355 181.697143 
L 444.1355 129.611429 
L 425.9055 129.611429 
L 425.9055 181.697143 
" style="fill:#2db27d;"/>
    <path clip-path="url(#p374b4a0fb0)" d="M 425.9055 129.611429 
L 444.1355 129.611429 
L 444.1355 77.525714 
L 425.9055 77.525714 
L 425.9055 129.611429 
" style="fill:#73d056;"/>
    <path clip-path="url(#p374b4a0fb0)" d="M 425.9055 77.525714 
L 444.1355 77.525714 
L 444.1355 25.44 
L 425.9055 25.44 
L 425.9055 77.525714 
" style="fill:#d0e11c;"/>
   </g>
   <g id="matplotlib.axis_3"/>
   <g id="matplotlib.axis_4">
    <g id="ytick_9">
     <g id="line2d_18">
      <defs>
       <path d="M 0 0 
L 3.5 0 
" id="mf9e1e46fc6" style="stroke:#000000;stroke-width:0.8;"/>
      </defs>
      <g>
       <use style="stroke:#000000;stroke-width:0.8;" x="444.1355" xlink:href="#mf9e1e46fc6" y="390.04"/>
      </g>
     </g>
     <g id="text_21">
      <!-- 24 -->
      <defs>
       <path d="M 10.59375 35.5 
L 73.1875 35.5 
L 73.1875 27.203125 
L 10.59375 27.203125 
z
" id="DejaVuSans-8722"/>
      </defs>
      <g transform="translate(451.1355 393.839219)scale(0.1 -0.1)">
       <use xlink:href="#DejaVuSans-8722"/>
       <use x="83.789062" xlink:href="#DejaVuSans-50"/>
       <use x="147.412109" xlink:href="#DejaVuSans-52"/>
      </g>
     </g>
    </g>
    <g id="ytick_10">
     <g id="line2d_19">
      <g>
       <use style="stroke:#000000;stroke-width:0.8;" x="444.1355" xlink:href="#mf9e1e46fc6" y="337.954286"/>
      </g>
     </g>
     <g id="text_22">
      <!-- 16 -->
      <g transform="translate(451.1355 341.753504)scale(0.1 -0.1)">
       <use xlink:href="#DejaVuSans-8722"/>
       <use x="83.789062" xlink:href="#DejaVuSans-49"/>
       <use x="147.412109" xlink:href="#DejaVuSans-54"/>
      </g>
     </g>
    </g>
    <g id="ytick_11">
     <g id="line2d_20">
      <g>
       <use style="stroke:#000000;stroke-width:0.8;" x="444.1355" xlink:href="#mf9e1e46fc6" y="285.868571"/>
      </g>
     </g>
     <g id="text_23">
      <!-- 8 -->
      <defs>
       <path d="M 31.78125 34.625 
Q 24.75 34.625 20.71875 30.859375 
Q 16.703125 27.09375 16.703125 20.515625 
Q 16.703125 13.921875 20.71875 10.15625 
Q 24.75 6.390625 31.78125 6.390625 
Q 38.8125 6.390625 42.859375 10.171875 
Q 46.921875 13.96875 46.921875 20.515625 
Q 46.921875 27.09375 42.890625 30.859375 
Q 38.875 34.625 31.78125 34.625 
z
M 21.921875 38.8125 
Q 15.578125 40.375 12.03125 44.71875 
Q 8.5 49.078125 8.5 55.328125 
Q 8.5 64.0625 14.71875 69.140625 
Q 20.953125 74.21875 31.78125 74.21875 
Q 42.671875 74.21875 48.875 69.140625 
Q 55.078125 64.0625 55.078125 55.328125 
Q 55.078125 49.078125 51.53125 44.71875 
Q 48 40.375 41.703125 38.8125 
Q 48.828125 37.15625 52.796875 32.3125 
Q 56.78125 27.484375 56.78125 20.515625 
Q 56.78125 9.90625 50.3125 4.234375 
Q 43.84375 -1.421875 31.78125 -1.421875 
Q 19.734375 -1.421875 13.25 4.234375 
Q 6.78125 9.90625 6.78125 20.515625 
Q 6.78125 27.484375 10.78125 32.3125 
Q 14.796875 37.15625 21.921875 38.8125 
z
M 18.3125 54.390625 
Q 18.3125 48.734375 21.84375 45.5625 
Q 25.390625 42.390625 31.78125 42.390625 
Q 38.140625 42.390625 41.71875 45.5625 
Q 45.3125 48.734375 45.3125 54.390625 
Q 45.3125 60.0625 41.71875 63.234375 
Q 38.140625 66.40625 31.78125 66.40625 
Q 25.390625 66.40625 21.84375 63.234375 
Q 18.3125 60.0625 18.3125 54.390625 
z
" id="DejaVuSans-56"/>
      </defs>
      <g transform="translate(451.1355 289.66779)scale(0.1 -0.1)">
       <use xlink:href="#DejaVuSans-8722"/>
       <use x="83.789062" xlink:href="#DejaVuSans-56"/>
      </g>
     </g>
    </g>
    <g id="ytick_12">
     <g id="line2d_21">
      <g>
       <use style="stroke:#000000;stroke-width:0.8;" x="444.1355" xlink:href="#mf9e1e46fc6" y="233.782857"/>
      </g>
     </g>
     <g id="text_24">
      <!-- 0 -->
      <g transform="translate(451.1355 237.582076)scale(0.1 -0.1)">
       <use xlink:href="#DejaVuSans-48"/>
      </g>
     </g>
    </g>
    <g id="ytick_13">
     <g id="line2d_22">
      <g>
       <use style="stroke:#000000;stroke-width:0.8;" x="444.1355" xlink:href="#mf9e1e46fc6" y="181.697143"/>
      </g>
     </g>
     <g id="text_25">
      <!-- 8 -->
      <g transform="translate(451.1355 185.496362)scale(0.1 -0.1)">
       <use xlink:href="#DejaVuSans-56"/>
      </g>
     </g>
    </g>
    <g id="ytick_14">
     <g id="line2d_23">
      <g>
       <use style="stroke:#000000;stroke-width:0.8;" x="444.1355" xlink:href="#mf9e1e46fc6" y="129.611429"/>
      </g>
     </g>
     <g id="text_26">
      <!-- 16 -->
      <g transform="translate(451.1355 133.410647)scale(0.1 -0.1)">
       <use xlink:href="#DejaVuSans-49"/>
       <use x="63.623047" xlink:href="#DejaVuSans-54"/>
      </g>
     </g>
    </g>
    <g id="ytick_15">
     <g id="line2d_24">
      <g>
       <use style="stroke:#000000;stroke-width:0.8;" x="444.1355" xlink:href="#mf9e1e46fc6" y="77.525714"/>
      </g>
     </g>
     <g id="text_27">
      <!-- 24 -->
      <g transform="translate(451.1355 81.324933)scale(0.1 -0.1)">
       <use xlink:href="#DejaVuSans-50"/>
       <use x="63.623047" xlink:href="#DejaVuSans-52"/>
      </g>
     </g>
    </g>
    <g id="ytick_16">
     <g id="line2d_25">
      <g>
       <use style="stroke:#000000;stroke-width:0.8;" x="444.1355" xlink:href="#mf9e1e46fc6" y="25.44"/>
      </g>
     </g>
     <g id="text_28">
      <!-- 32 -->
      <g transform="translate(451.1355 29.239219)scale(0.1 -0.1)">
       <use xlink:href="#DejaVuSans-51"/>
       <use x="63.623047" xlink:href="#DejaVuSans-50"/>
      </g>
     </g>
    </g>
   </g>
   <g id="patch_9">
    <path d="M 425.9055 390.04 
L 425.9055 337.954286 
L 425.9055 77.525714 
L 425.9055 25.44 
L 444.1355 25.44 
L 444.1355 77.525714 
L 444.1355 337.954286 
L 444.1355 390.04 
z
" style="fill:none;stroke:#000000;stroke-linejoin:miter;stroke-width:0.8;"/>
   </g>
  </g>
 </g>
 <defs>
  <clipPath id="pe7987af261">
   <rect height="364.6" width="358.904" x="44.57" y="25.44"/>
  </clipPath>
  <clipPath id="p374b4a0fb0">
   <rect height="364.6" width="18.23" x="425.9055" y="25.44"/>
  </clipPath>
 </defs>
</svg>
